<?xml version="1.0" encoding="utf-8"?>
<!-- Generator: Adobe Illustrator 25.2.3, SVG Export Plug-In . SVG Version: 6.00 Build 0)  -->
<svg version="1.1" id="Layer_1" xmlns="http://www.w3.org/2000/svg" xmlns:xlink="http://www.w3.org/1999/xlink" x="0px" y="0px"
	 viewBox="0 0 36 36" style="enable-background:new 0 0 36 36;" xml:space="preserve">
<style type="text/css">
	.st0{fill:#7B6A29;}
</style>
<path class="st0" d="M27.8,10.8H8.2c-0.6,0-1.1,0.5-1.1,1.1v0.3v0.3v4.8c0,0.8,0.7,1.5,1.5,1.5h1.6h0.3h15.2h0.3h1.6
	c0.8,0,1.5-0.7,1.5-1.5v-4.8v-0.3v-0.3C28.9,11.3,28.4,10.8,27.8,10.8z M10.3,18.5l-0.2-1.1h15.8l-0.2,1.1H10.3z M28.6,17.3
	c0,0.7-0.5,1.2-1.2,1.2h-1.5l0.3-1.4H9.7l0.3,1.4H8.5c-0.7,0-1.2-0.5-1.2-1.2v-4.8h21.2V17.3z M7.4,12.2v-0.3c0-0.4,0.4-0.8,0.8-0.8
	h19.6c0.4,0,0.8,0.4,0.8,0.8v0.3H7.4z"/>
<path class="st0" d="M14.1,26C14,26,14,26,14.1,26c-0.1-0.1-0.2-0.2-0.1-0.2c0.5-0.7,0.7-1.4,0.5-2c-0.1-0.3-0.2-0.5-0.3-0.7
	c-0.1-0.2-0.3-0.5-0.4-0.8c-0.1-0.7,0.1-1.4,0.6-2.2c0.1-0.1,0.1-0.1,0.2,0s0.1,0.1,0,0.2c-0.5,0.7-0.7,1.4-0.5,2
	c0.1,0.3,0.2,0.5,0.3,0.7c0.1,0.2,0.3,0.5,0.4,0.8c0.1,0.7-0.1,1.4-0.6,2.2C14.1,26,14.1,26,14.1,26z"/>
<path class="st0" d="M16.5,26C16.5,26,16.5,26,16.5,26c-0.1-0.1-0.2-0.2-0.1-0.2c0.5-0.7,0.7-1.4,0.5-2c-0.1-0.3-0.2-0.5-0.3-0.7
	c-0.1-0.2-0.3-0.5-0.4-0.8c-0.1-0.7,0.1-1.4,0.6-2.2c0.1-0.1,0.1-0.1,0.2,0s0.1,0.1,0,0.2c-0.5,0.7-0.7,1.4-0.5,2
	c0.1,0.3,0.2,0.5,0.3,0.7s0.3,0.5,0.4,0.8c0.1,0.7-0.1,1.4-0.6,2.2C16.6,26,16.6,26,16.5,26z"/>
<path class="st0" d="M19,26C19,26,18.9,26,19,26c-0.1-0.1-0.2-0.2-0.1-0.2c0.5-0.7,0.7-1.4,0.5-2c-0.1-0.3-0.2-0.5-0.3-0.7
	c-0.1-0.2-0.3-0.5-0.4-0.8c-0.1-0.7,0.1-1.4,0.6-2.2c0.1-0.1,0.1-0.1,0.2,0s0.1,0.1,0,0.2c-0.5,0.7-0.7,1.4-0.5,2
	c0.1,0.3,0.2,0.5,0.3,0.7c0.1,0.2,0.3,0.5,0.4,0.8c0.1,0.7-0.1,1.4-0.6,2.2C19.1,25.9,19,26,19,26z"/>
<path class="st0" d="M21.5,25.9C21.4,25.9,21.4,25.9,21.5,25.9c-0.1-0.1-0.2-0.2-0.1-0.2c0.5-0.7,0.7-1.4,0.5-2
	c-0.1-0.3-0.2-0.5-0.3-0.7c-0.1-0.2-0.3-0.5-0.4-0.8c-0.1-0.7,0.1-1.4,0.6-2.2c0.1-0.1,0.1-0.1,0.2,0c0.1,0.1,0.1,0.1,0,0.2
	c-0.5,0.7-0.7,1.4-0.5,2c0.1,0.3,0.2,0.5,0.3,0.7c0.1,0.2,0.3,0.5,0.4,0.8c0.1,0.7-0.1,1.4-0.6,2.2C21.6,25.9,21.5,25.9,21.5,25.9z"
	/>
<path class="st0" d="M10.5,13.8H8.2c-0.1,0-0.2-0.1-0.2-0.2c0-0.1,0.1-0.2,0.2-0.2h2.3c0.1,0,0.2,0.1,0.2,0.2
	C10.7,13.7,10.6,13.8,10.5,13.8z"/>
<path class="st0" d="M10.5,14.8H8.2c-0.1,0-0.2-0.1-0.2-0.2c0-0.1,0.1-0.2,0.2-0.2h2.3c0.1,0,0.2,0.1,0.2,0.2
	C10.7,14.8,10.6,14.8,10.5,14.8z"/>
<path class="st0" d="M10.5,15.8H8.2c-0.1,0-0.2-0.1-0.2-0.2c0-0.1,0.1-0.2,0.2-0.2h2.3c0.1,0,0.2,0.1,0.2,0.2
	C10.7,15.7,10.6,15.8,10.5,15.8z"/>
<path class="st0" d="M27.7,13.8h-2.3c-0.1,0-0.2-0.1-0.2-0.2c0-0.1,0.1-0.2,0.2-0.2h2.3c0.1,0,0.2,0.1,0.2,0.2
	C27.9,13.7,27.8,13.8,27.7,13.8z"/>
<path class="st0" d="M27.7,14.8h-2.3c-0.1,0-0.2-0.1-0.2-0.2c0-0.1,0.1-0.2,0.2-0.2h2.3c0.1,0,0.2,0.1,0.2,0.2
	C27.9,14.8,27.8,14.8,27.7,14.8z"/>
<path class="st0" d="M27.7,15.8h-2.3c-0.1,0-0.2-0.1-0.2-0.2c0-0.1,0.1-0.2,0.2-0.2h2.3c0.1,0,0.2,0.1,0.2,0.2
	C27.9,15.7,27.8,15.8,27.7,15.8z"/>
<circle class="st0" cx="27.2" cy="16.9" r="0.4"/>
</svg>
