<?xml version="1.0" encoding="utf-8"?>
<!-- Generator: Adobe Illustrator 25.2.3, SVG Export Plug-In . SVG Version: 6.00 Build 0)  -->
<svg version="1.1" id="Layer_1" xmlns="http://www.w3.org/2000/svg" xmlns:xlink="http://www.w3.org/1999/xlink" x="0px" y="0px"
	 viewBox="0 0 36 36" style="enable-background:new 0 0 36 36;" xml:space="preserve">
<style type="text/css">
	.st0{fill-rule:evenodd;clip-rule:evenodd;fill:#7B6929;}
</style>
<path class="st0" d="M27.79,13.49H9.68v0.56c0,0.36,0.26,0.69,0.61,0.69h16.88c0.36,0,0.61-0.33,0.61-0.69L27.79,13.49z M17.5,18.15
	c0-0.48-1.03-0.87-2.29-0.87c-0.66,0-1.25,0.11-1.68,0.3c-0.81,0.35-0.81,0.81,0,1.15c0.92,0.4,2.44,0.4,3.36,0
	C17.26,18.56,17.5,18.36,17.5,18.15L17.5,18.15z M14.97,20.44v4.11h0.47v-4.11H14.97z M15.61,20.05c-0.69,0.05-1.49-0.03-2.09-0.28
	c-0.38-0.16-0.61-0.37-0.61-0.58v-0.37c1.01,0.79,3.57,0.79,4.58,0v0.37c0,0.21-0.23,0.42-0.61,0.58c-0.33,0.14-0.77,0.24-1.26,0.28
	C15.62,20.05,15.62,20.05,15.61,20.05z M15.82,24.55v0.19c0,0.11-0.09,0.19-0.19,0.19h-0.85c-0.11,0-0.19-0.09-0.19-0.19v-0.19
	c-0.3,0.04-0.55,0.1-0.74,0.17c-0.17,0.07-0.27,0.13-0.27,0.18c0,0.07,0.15,0.15,0.4,0.23c0.67,0.22,1.78,0.22,2.45,0
	c0.25-0.08,0.4-0.16,0.4-0.23c0-0.05-0.1-0.12-0.27-0.18C16.38,24.65,16.12,24.59,15.82,24.55L15.82,24.55z M23.94,17.57
	c-0.92-0.4-2.44-0.4-3.36,0c-0.81,0.35-0.81,0.81,0,1.15c0.92,0.4,2.44,0.4,3.36,0C24.76,18.38,24.76,17.92,23.94,17.57z
	 M22.03,20.44v4.11h0.47v-4.11H22.03z M22.67,20.05c-0.69,0.05-1.49-0.03-2.09-0.28c-0.38-0.16-0.61-0.37-0.61-0.58v-0.37
	c1.01,0.79,3.57,0.79,4.58,0v0.37c0,0.21-0.23,0.42-0.61,0.58c-0.33,0.14-0.77,0.24-1.26,0.28C22.68,20.05,22.67,20.05,22.67,20.05z
	 M21.02,23.15h0.62v0.44h-5.82v-0.44h0.62c0.25,0,0.25-0.39,0-0.39h-0.62v-2.35c0.46-0.05,0.88-0.15,1.21-0.3
	c0.52-0.22,0.84-0.55,0.84-0.93v-1.04c0-0.7-1.2-1.26-2.68-1.26c-0.71,0-1.36,0.13-1.83,0.33c-0.52,0.22-0.84,0.55-0.84,0.92v1.05
	c0,0.38,0.32,0.71,0.84,0.93c0.33,0.14,0.75,0.25,1.21,0.3v2.35h-0.62c-0.25,0-0.25,0.39,0,0.39h0.62v0.44l-4.17,0v-8.47h16.64v8.47
	h-4.17v-0.44h0.62c0.25,0,0.25-0.39,0-0.39h-0.62v-2.35c0.46-0.05,0.88-0.15,1.21-0.3c0.52-0.22,0.84-0.55,0.84-0.93v-1.04
	c0-0.38-0.32-0.71-0.84-0.93c-1.02-0.44-2.64-0.44-3.66,0c-0.52,0.22-0.84,0.55-0.84,0.92v1.05c0,0.38,0.32,0.71,0.84,0.93
	c0.33,0.14,0.75,0.25,1.21,0.3v2.35h-0.62C20.77,22.77,20.77,23.15,21.02,23.15L21.02,23.15z M22.88,24.55v0.19
	c0,0.11-0.09,0.19-0.19,0.19h-0.85c-0.11,0-0.19-0.09-0.19-0.19v-0.19c-0.3,0.04-0.55,0.1-0.74,0.17c-0.17,0.07-0.27,0.13-0.27,0.18
	c0,0.07,0.15,0.15,0.4,0.23c0.67,0.22,1.78,0.22,2.45,0c0.25-0.08,0.4-0.16,0.4-0.23c0-0.05-0.1-0.12-0.27-0.18
	C23.43,24.65,23.18,24.59,22.88,24.55L22.88,24.55z M15.68,10.4h-1.73v0.69c0,0.41,0.29,0.76,0.67,0.85v-0.08
	c0-0.25,0.39-0.25,0.39,0v0.08c0.39-0.09,0.67-0.44,0.67-0.85L15.68,10.4z M18.47,10.4h-1.73v0.69c0,0.41,0.29,0.76,0.67,0.85v-0.08
	c0-0.25,0.39-0.25,0.39,0v0.08c0.39-0.09,0.67-0.44,0.67-0.85L18.47,10.4z M21.94,13.33h1.47l0-2.39c0-0.21-0.18-0.38-0.36-0.4
	c-0.1,0-0.18-0.09-0.18-0.19V8.87h-0.38v1.48h0c0,0.1-0.07,0.18-0.17,0.19c-0.2,0.02-0.37,0.19-0.37,0.4L21.94,13.33z M14.62,11.85
	c0-0.25,0.39-0.25,0.39,0v1.25c0,0.25-0.39,0.25-0.39,0V11.85z M14.16,13.3h1.31c0.25,0,0.25-0.39,0-0.39h-1.31
	C13.9,12.91,13.9,13.3,14.16,13.3z M17.41,11.85c0-0.25,0.39-0.25,0.39,0v1.25c0,0.25-0.39,0.25-0.39,0V11.85z M16.95,13.3h1.31
	c0.25,0,0.25-0.39,0-0.39h-1.31C16.7,12.91,16.7,13.3,16.95,13.3z"/>
</svg>
