<?xml version="1.0" encoding="utf-8"?>
<!-- Generator: Adobe Illustrator 25.2.3, SVG Export Plug-In . SVG Version: 6.00 Build 0)  -->
<svg version="1.1" id="Layer_1" xmlns="http://www.w3.org/2000/svg" xmlns:xlink="http://www.w3.org/1999/xlink" x="0px" y="0px"
	 viewBox="0 0 36 36" style="enable-background:new 0 0 36 36;" xml:space="preserve">
<style type="text/css">
	.st0{fill:#7B6929;}
</style>
<path class="st0" d="M10.58,26.74c-0.41,0-0.83-0.01-1.24,0c-0.15,0-0.22-0.02-0.2-0.2c0.11-1.37,0.21-2.74,0.32-4.12
	c0.06-0.79,0.13-1.58,0.18-2.37c0.01-0.16,0.05-0.21,0.22-0.21c0.5,0.01,0.99,0.01,1.49,0c0.15,0,0.2,0.04,0.21,0.19
	c0.12,1.63,0.24,3.25,0.36,4.87c0.04,0.54,0.07,1.08,0.13,1.62c0.02,0.19-0.03,0.22-0.21,0.22C11.43,26.74,11.01,26.74,10.58,26.74z
	"/>
<path class="st0" d="M23.45,26.74c-0.42,0-0.84-0.01-1.26,0c-0.15,0-0.2-0.02-0.18-0.19c0.17-2.15,0.33-4.29,0.49-6.44
	c0.02-0.22,0.08-0.28,0.29-0.27c0.48,0.02,0.96,0.01,1.44,0c0.14,0,0.18,0.04,0.19,0.18c0.16,2.15,0.32,4.29,0.5,6.44
	c0.02,0.21,0,0.3-0.25,0.28C24.26,26.73,23.86,26.74,23.45,26.74z"/>
<path class="st0" d="M25.79,26.74c-0.07,0-0.14-0.01-0.2,0c-0.11,0.01-0.16-0.02-0.17-0.15c-0.11-1.54-0.23-3.08-0.35-4.62
	c-0.05-0.65-0.1-1.3-0.15-1.94c-0.01-0.16,0.03-0.2,0.19-0.2c0.55,0,0.54,0,0.58,0.52c0.15,2.03,0.3,4.07,0.47,6.1
	c0.02,0.26-0.05,0.3-0.27,0.27C25.86,26.74,25.83,26.74,25.79,26.74z"/>
<path class="st0" d="M7.92,26.28c0.15-2.04,0.31-4.13,0.46-6.21c0.01-0.17,0.07-0.22,0.24-0.22c0.54,0.01,0.53,0,0.48,0.55
	c-0.13,1.64-0.25,3.28-0.38,4.92c-0.03,0.43-0.07,0.86-0.1,1.29c-0.01,0.1-0.03,0.16-0.14,0.14c-0.06-0.01-0.12,0-0.18,0
	C7.9,26.74,7.9,26.74,7.92,26.28z"/>
<path class="st0" d="M12.07,20.21c-0.02-0.36-0.02-0.36,0.35-0.36c0.05,0,0.1,0.01,0.15,0c0.15-0.02,0.21,0.02,0.23,0.19
	c0.1,1.47,0.22,2.93,0.33,4.39c0.05,0.71,0.1,1.41,0.16,2.12c0.01,0.14-0.01,0.19-0.16,0.19c-0.58,0.01-0.56,0.01-0.61-0.58
	c-0.12-1.67-0.25-3.33-0.38-5C12.12,20.85,12.1,20.53,12.07,20.21z"/>
<path class="st0" d="M21.12,26.74c-0.36,0-0.37,0-0.34-0.37c0.13-1.66,0.26-3.32,0.38-4.98c0.04-0.45,0.08-0.91,0.1-1.36
	c0.01-0.16,0.07-0.19,0.21-0.19c0.55,0,0.55,0,0.51,0.55c-0.15,1.98-0.3,3.96-0.45,5.94c0,0.01,0,0.02,0,0.03
	C21.49,26.74,21.49,26.74,21.12,26.74z"/>
<path class="st0" d="M10.56,19.34c-0.89,0-1.79,0-2.68,0c-0.16,0-0.21-0.04-0.21-0.21c0-0.56,0-0.56,0.56-0.56c1.68,0,3.36,0,5.03,0
	c0.19,0,0.24,0.04,0.23,0.23c-0.01,0.53,0,0.53-0.54,0.53C12.16,19.34,11.36,19.34,10.56,19.34z"/>
<path class="st0" d="M23.48,19.34c-0.9,0-1.8,0-2.71,0c-0.16,0-0.21-0.04-0.21-0.21c0-0.56,0-0.56,0.56-0.56c1.68,0,3.36,0,5.03,0
	c0.19,0,0.24,0.04,0.23,0.23c-0.01,0.53,0,0.53-0.54,0.53C25.07,19.34,24.27,19.34,23.48,19.34z"/>
<path class="st0" d="M21.43,10.07c-0.27,0-0.54-0.01-0.81,0c-0.12,0-0.16-0.03-0.16-0.15c0.01-0.23,0-0.46,0-0.68
	c0-0.19,0.09-0.28,0.28-0.28c0.47,0,0.94,0,1.41,0c0.18,0,0.28,0.1,0.28,0.28c0,0.02,0,0.03,0,0.05c0,0.25,0.09,0.58-0.04,0.73
	c-0.13,0.16-0.47,0.03-0.72,0.05C21.6,10.07,21.52,10.07,21.43,10.07z"/>
<path class="st0" d="M24.22,10.07c-0.27,0-0.54,0-0.81,0c-0.11,0-0.17-0.01-0.16-0.14c0.01-0.23,0-0.46,0-0.68
	c0-0.2,0.1-0.29,0.3-0.29c0.46,0,0.93,0,1.39,0c0.2,0,0.29,0.1,0.29,0.3c0,0.22-0.01,0.44,0,0.66c0.01,0.15-0.05,0.16-0.17,0.16
	C24.78,10.06,24.5,10.07,24.22,10.07z"/>
<path class="st0" d="M28.97,24.19c0-4.24,0-8.48,0-12.72c0-0.18-0.03-0.25-0.23-0.24c-0.53,0.02-1.06,0.01-1.59,0
	c-0.16,0-0.22,0.03-0.21,0.2c0.01,0.4,0,0.81,0.01,1.22c0,0.21-0.09,0.31-0.3,0.31c-0.66,0-1.32,0-1.97,0
	c-0.12,0-0.16-0.02-0.16-0.15c0.01-0.28,0.01-0.56,0-0.84c0-0.11,0.03-0.16,0.13-0.2c0.44-0.21,0.6-0.59,0.58-1.06
	c0-0.09-0.01-0.14-0.12-0.14c-0.58,0-1.16,0-1.75,0c-0.07,0-0.11,0.01-0.11,0.1c-0.02,0.4,0.05,0.81,0.42,0.99
	c0.36,0.16,0.35,0.4,0.34,0.7c-0.01,0.15-0.01,0.3,0,0.46c0.01,0.13-0.04,0.16-0.16,0.15c-0.41-0.01-0.83,0-1.24,0
	c-0.3,0-0.6-0.01-0.91-0.01c-0.06-0.32-0.01-0.64-0.03-0.95c0-0.01,0-0.02,0-0.03c-0.01-0.1,0.03-0.14,0.12-0.18
	c0.47-0.2,0.66-0.55,0.64-1.07c0-0.11-0.03-0.14-0.14-0.14c-0.56,0.01-1.13,0-1.69,0c-0.08,0-0.14,0-0.14,0.11
	c-0.01,0.37,0.04,0.77,0.38,0.93c0.39,0.18,0.34,0.46,0.33,0.76c0,0.13-0.01,0.25,0,0.38c0.01,0.15-0.02,0.2-0.19,0.2
	c-0.72-0.01-1.43-0.01-2.15,0c-0.18,0-0.2-0.07-0.2-0.22c0.01-0.79,0-1.59,0.01-2.38c0-0.15-0.03-0.21-0.19-0.2
	c-0.25,0.02-0.51,0.02-0.76,0c-0.17-0.01-0.23,0.03-0.22,0.22c0.01,0.74,0,1.49,0,2.23c0,0.37,0,0.36-0.36,0.35
	c-0.11,0-0.14-0.03-0.14-0.14c0-0.95,0-1.89,0-2.84c0-0.22,0.11-0.32,0.33-0.32c0.38,0,0.76-0.01,1.14,0.01
	c0.2,0.01,0.22-0.07,0.19-0.23c-0.06-0.36-0.19-0.68-0.44-0.95c-0.23-0.24-0.32-0.53-0.31-0.85c0.01-0.52,0-1.03,0-1.55
	c0-0.22-0.1-0.33-0.32-0.32c-0.28,0-0.56,0-0.83,0c-0.28,0-0.36,0.08-0.36,0.36c0,0.52,0,1.05,0,1.57c0,0.28-0.07,0.54-0.26,0.74
	c-0.36,0.38-0.5,0.84-0.5,1.36c0.01,0.99,0,1.98,0,2.97c0,0.11,0.02,0.2-0.16,0.2c-2.68-0.01-5.36,0-8.04,0
	c-0.21,0-0.3-0.1-0.3-0.31c0.01-0.41-0.01-0.81,0.01-1.22c0.01-0.17-0.05-0.21-0.21-0.2c-0.52,0.01-1.05,0.02-1.57,0
	c-0.22-0.01-0.25,0.06-0.25,0.26c0.01,2.49,0,4.98,0,7.48c0,2.51,0,5.02-0.01,7.53c0,0.22,0.06,0.26,0.26,0.26
	c0.61-0.01,1.21-0.01,1.82,0c0.15,0,0.22-0.03,0.23-0.2c0.02-0.43,0.06-0.86,0.09-1.29c0.13-1.67,0.26-3.33,0.38-5
	c0.03-0.4,0.02-0.4-0.37-0.41c-0.23,0-0.35-0.08-0.34-0.33c0.01-0.36,0-0.73,0-1.09c0-0.27,0.09-0.35,0.37-0.36
	c0.23,0,0.46,0,0.68,0c1.8,0,3.61,0,5.41,0c0.29,0,0.36,0.07,0.36,0.35c0,0.38,0,0.76,0,1.14c0,0.19-0.08,0.29-0.27,0.28
	c-0.08,0-0.15,0.01-0.23,0c-0.16-0.02-0.21,0.03-0.2,0.2c0.17,2.15,0.34,4.31,0.49,6.47c0.01,0.19,0.07,0.23,0.25,0.23
	c1.99-0.01,3.98-0.01,5.97,0c0.18,0,0.24-0.04,0.25-0.23c0.15-2.1,0.31-4.19,0.47-6.29c0.03-0.37,0.03-0.38-0.35-0.37
	c-0.22,0-0.33-0.08-0.32-0.31c0.01-0.38,0-0.76,0-1.14c0-0.21,0.08-0.33,0.31-0.33c2.06,0,4.11,0,6.17,0c0.23,0,0.35,0.1,0.35,0.33
	c0,0.38,0,0.76,0,1.14c0,0.2-0.1,0.29-0.29,0.3c-0.08,0-0.17,0.01-0.25,0c-0.18-0.02-0.2,0.05-0.18,0.21
	c0.1,1.23,0.19,2.46,0.28,3.69c0.07,0.9,0.14,1.8,0.2,2.7c0.01,0.22,0.06,0.31,0.32,0.3c0.59-0.02,1.18-0.02,1.77,0
	c0.18,0,0.24-0.03,0.24-0.23C28.96,25.74,28.97,24.97,28.97,24.19z M6.26,19.69C6.05,19.7,6,19.55,6,19.37c0-0.77,0-1.54,0-2.3
	c0-0.75,0-1.5,0-2.25c0-0.19,0.03-0.35,0.26-0.34c0.21,0,0.25,0.16,0.25,0.34c0,1.52,0,3.04,0,4.56
	C6.51,19.54,6.47,19.69,6.26,19.69z M6.26,13.99c-0.22,0-0.27-0.16-0.26-0.33c-0.01-0.2,0.06-0.34,0.26-0.34
	c0.22,0.01,0.25,0.18,0.25,0.36C6.51,13.86,6.45,13.99,6.26,13.99z"/>
</svg>
