<?xml version="1.0" encoding="utf-8"?>
<!-- Generator: Adobe Illustrator 25.2.3, SVG Export Plug-In . SVG Version: 6.00 Build 0)  -->
<svg version="1.1" id="Layer_1" xmlns="http://www.w3.org/2000/svg" xmlns:xlink="http://www.w3.org/1999/xlink" x="0px" y="0px"
	 viewBox="0 0 36 36" style="enable-background:new 0 0 36 36;" xml:space="preserve">
<style type="text/css">
	.st0{fill:#7B6A29;}
</style>
<path class="st0" d="M27.2,17.3c-0.2-0.8-0.7-1.4-1.4-1.8c-0.2-0.1-0.2-0.2-0.2-0.4c0-1.4,0-2.7,0-4.1c0-0.5-0.3-1-0.8-1.1
	c-0.2-0.1-0.4-0.1-0.6-0.1c-3.3,0-6.5,0-9.8,0c-0.1,0-0.1,0-0.2,0c-0.6,0-1,0.3-1.2,0.8c-0.1,0.2-0.1,0.4-0.1,0.6c0,1.3,0,2.6,0,4
	c0,0.2,0,0.3-0.2,0.3c-0.4,0.3-0.8,0.6-1,1.1c-0.2,0.4-0.4,0.8-0.4,1.3c0,1.6,0,3.2,0,4.9c0,0.1,0.2,0.2,0.3,0.2c0.6,0,1.2,0,1.7,0
	c0.2,0,0.3-0.1,0.3-0.3c0-0.1,0-0.1,0-0.2c0-0.3,0-0.7,0-1c0-0.2,0-0.2,0.2-0.2c0,0,0.1,0,0.1,0c1.4,0,2.7,0,4.1,0
	c2.2,0,4.5,0,6.7,0c0.2,0,0.3,0,0.3,0.3c0,0.4,0,0.7,0,1.1c0,0.2,0.1,0.4,0.4,0.4c0.5,0,1.1,0,1.6,0c0.1,0,0.3-0.1,0.3-0.2
	c0-1.6,0-3.2,0-4.8C27.2,17.8,27.2,17.5,27.2,17.3z M13.5,11c0-0.4,0.3-0.6,0.7-0.7c0.1,0,0.1,0,0.2,0c3.3,0,6.6,0,9.9,0
	c0.4,0,0.6,0.2,0.7,0.5c0,0.1,0,0.1,0,0.2c0,1.4,0,2.7,0,4.1c0,0,0,0,0,0.1c-0.3-0.1-0.6-0.2-1-0.2C24,15,24,15,24,14.9
	c0-0.2,0-0.3,0-0.5c0-0.5-0.4-0.9-0.9-0.9c-0.5,0-1,0-1.5,0c-0.5,0-0.9,0.4-0.9,0.9c0,0.2,0,0.3,0,0.5c0,0.1,0,0.1-0.1,0.1
	c-0.8,0-1.7,0-2.5,0c-0.1,0-0.1,0-0.1-0.1c0-0.2,0-0.4,0-0.7c0-0.5-0.3-0.8-0.7-0.8c-0.6,0-1.3,0-1.9,0c-0.5,0-0.7,0.3-0.7,0.8
	c0,0.2,0,0.4,0,0.7c0,0.1,0,0.1-0.1,0.1c-0.3,0-0.6,0.1-0.9,0.2c-0.1,0-0.1,0-0.1-0.1C13.5,13.7,13.5,12.4,13.5,11z M21.1,14.4
	c0-0.3,0.1-0.4,0.4-0.4c0.5,0,1,0,1.6,0c0.3,0,0.4,0.1,0.4,0.4c0,0.2,0,0.3,0,0.5c0,0.1,0,0.2-0.1,0.1c-0.4,0-0.7,0-1.1,0
	c-0.3,0-0.7,0-1,0c-0.1,0-0.1,0-0.1-0.1C21.1,14.7,21.1,14.6,21.1,14.4z M15,14.2c0-0.1,0.1-0.2,0.2-0.2c0.7,0,1.3,0,2,0
	c0.1,0,0.2,0.1,0.2,0.2c0,0.2,0,0.4,0,0.7c0,0.1,0,0.1-0.1,0.1c-0.4,0-0.7,0-1.1,0c-0.4,0-0.7,0-1.1,0C15,15,15,15,15,14.9
	C15,14.7,15,14.4,15,14.2z M11.9,17.6c0.3-1.2,1.4-2.1,2.7-2.1c1.9,0,3.7,0,5.6,0c1.2,0,2.5,0,3.7,0c1.3,0,2.4,0.9,2.7,2.1
	c0,0.1,0,0.2-0.1,0.2c-2.4,0-4.9,0-7.3,0c-2.4,0-4.8,0-7.3,0C11.8,17.8,11.8,17.7,11.9,17.6z M13,22.4c-0.2,0-0.4,0-0.5,0
	c-0.2,0-0.4,0-0.5,0c-0.1,0-0.1,0-0.1-0.1c0-0.4,0-0.7,0-1.1c0-0.1,0-0.1,0.1-0.1c0.4,0,0.7,0,1.1,0c0.1,0,0.1,0,0.1,0.1
	c0,0.3,0,0.7,0,1C13.1,22.4,13,22.4,13,22.4z M26.8,22.3C26.8,22.4,26.7,22.4,26.8,22.3c-0.4,0.1-0.8,0.1-1.2,0.1
	c-0.1,0-0.1,0-0.1-0.1c0-0.4,0-0.7,0-1.1c0-0.1,0-0.1,0.1-0.1c0.2,0,0.4,0,0.5,0s0.4,0,0.5,0c0.1,0,0.1,0,0.1,0.1
	C26.8,21.6,26.8,22,26.8,22.3z M26.8,20.5c0,0.1,0,0.2-0.2,0.2c-2.4,0-4.9,0-7.3,0c0,0,0,0,0,0c-1.9,0-3.7,0-5.6,0
	c-0.6,0-1.2,0-1.8,0c-0.1,0-0.2,0-0.1-0.2c0-0.7,0-1.4,0-2.1c0-0.1,0-0.2,0.2-0.2c1.7,0,3.3,0,5,0c3.2,0,6.4,0,9.7,0
	c0.1,0,0.2,0,0.2,0.2C26.8,19.1,26.8,19.8,26.8,20.5z"/>
</svg>
