<?xml version="1.0" encoding="utf-8"?>
<!-- Generator: Adobe Illustrator 25.2.3, SVG Export Plug-In . SVG Version: 6.00 Build 0)  -->
<svg version="1.1" id="Layer_1" xmlns="http://www.w3.org/2000/svg" xmlns:xlink="http://www.w3.org/1999/xlink" x="0px" y="0px"
	 viewBox="0 0 36 36" style="enable-background:new 0 0 36 36;" xml:space="preserve">
<style type="text/css">
	.st0{fill:#7B6929;}
	.st1{fill:#FCFCFD;}
</style>
<path class="st0" d="M30.79,18.88c-1.39-4.76-3.32-9.31-5.51-13.75c-0.06-0.12-0.15-0.2-0.27-0.27c-1-0.54-2-1.09-3-1.64
	c-0.1-0.05-0.2-0.09-0.23-0.23c-0.13-0.46-0.44-0.72-0.86-0.73c-0.44-0.02-0.78,0.21-0.95,0.66c-0.44,1.11-0.88,2.23-1.33,3.34
	C18.41,6.83,18.19,7.39,17.94,8c-0.69-1.73-1.35-3.41-2.01-5.08c-0.17-0.44-0.52-0.67-0.96-0.64c-0.43,0.02-0.76,0.3-0.86,0.77
	c-0.03,0.12-0.09,0.17-0.19,0.23C12.96,3.79,12,4.32,11.04,4.84c-0.18,0.09-0.29,0.22-0.38,0.4c-1.45,2.93-2.77,5.91-3.91,8.98
	c-1.23,3.31-2.29,6.66-2.74,10.17c-0.03,0.26,0.05,0.39,0.28,0.48c1.6,0.66,3.21,1.32,4.81,1.98c0.37,0.15,0.45,0.12,0.6-0.26
	c1.09-2.76,2.02-5.58,2.71-8.46c0.12-0.5,0.23-1,0.36-1.54c0.29,0.67,0.57,1.3,0.98,1.85c0.07,0.1,0.01,0.15-0.04,0.21
	c-0.25,0.35-0.48,0.72-0.69,1.1c-1.39,2.56-2.02,5.33-2.24,8.21c-0.13,1.73-0.07,3.46,0.1,5.18c0.03,0.35,0.09,0.41,0.44,0.41
	c4.44,0,8.88,0,13.32,0c0.34,0,0.4-0.05,0.43-0.39c0.26-2.63,0.25-5.26-0.24-7.87c-0.45-2.38-1.2-4.65-2.61-6.66
	c-0.07-0.1-0.04-0.15,0.02-0.23c0.26-0.35,0.46-0.73,0.64-1.12c0.1-0.22,0.2-0.43,0.32-0.69c0.26,1.27,0.56,2.48,0.9,3.68
	c0.62,2.17,1.34,4.31,2.19,6.4c0.11,0.28,0.22,0.33,0.49,0.22c1.65-0.68,3.3-1.36,4.95-2.04c0.2-0.08,0.27-0.2,0.24-0.42
	C31.75,22.54,31.32,20.7,30.79,18.88z M14.82,2.87c0.24-0.15,0.49-0.04,0.61,0.27c0.34,0.86,0.69,1.72,1.03,2.59
	c0.37,0.94,0.74,1.88,1.12,2.81c0.05,0.13,0.06,0.24,0,0.37c-0.12,0.28-0.23,0.57-0.36,0.91c-0.12-0.29-0.21-0.54-0.31-0.78
	c-0.74-1.86-1.48-3.72-2.22-5.58C14.58,3.19,14.63,2.99,14.82,2.87z M16.04,32.74c0,0.21-0.04,0.27-0.26,0.27
	c-1.37-0.01-2.74-0.01-4.11,0c-0.18,0-0.23-0.04-0.25-0.22c-0.16-1.73-0.18-3.47-0.03-5.2c0.16-1.83,0.51-3.61,1.14-5.34
	c0.42-1.16,0.94-2.27,1.66-3.28c0.09-0.12,0.18-0.18,0.34-0.18c0.41,0.01,0.82,0.02,1.22-0.02c0.28-0.02,0.31,0.08,0.31,0.32
	c-0.01,2.27-0.01,4.54-0.01,6.8C16.03,28.17,16.03,30.45,16.04,32.74z M16.03,13.05c0,1.64,0,3.28,0.01,4.92
	c0,0.2-0.05,0.27-0.25,0.26c-0.43-0.01-0.86,0-1.3,0.01c-0.13,0-0.23-0.03-0.3-0.15c-0.53-0.76-0.88-1.61-1.18-2.49
	c-0.08-0.23,0.04-0.48,0.08-0.72c0.2-1.25,0.32-2.51,0.35-3.77c0-0.1,0.01-0.2,0-0.29c-0.02-0.16-0.11-0.26-0.27-0.26
	c-0.16,0-0.26,0.1-0.26,0.26c-0.01,0.23-0.01,0.46-0.02,0.68c-0.09,2.4-0.53,4.74-1.12,7.06c-0.64,2.55-1.46,5.05-2.42,7.5
	c-0.07,0.19-0.13,0.22-0.32,0.14c-1.4-0.59-2.81-1.17-4.22-1.75c-0.19-0.08-0.23-0.17-0.2-0.36c0.34-2.4,0.97-4.72,1.72-7.02
	c1.26-3.84,2.84-7.56,4.62-11.19c0.04-0.08,0.08-0.16,0.13-0.26c0.61,0.72,1.19,1.41,1.77,2.1c0.03,0.04,0.06,0.08,0.09,0.11
	c0.12,0.14,0.27,0.17,0.41,0.05c0.13-0.12,0.12-0.26,0.01-0.39c-0.28-0.33-0.56-0.66-0.83-0.99c-0.36-0.42-0.71-0.85-1.09-1.29
	c0.55-0.3,1.08-0.59,1.61-0.88c0.32-0.18,0.65-0.34,0.96-0.53c0.18-0.11,0.24-0.06,0.3,0.11c0.67,1.7,1.35,3.41,2.02,5.11
	c0.17,0.44,0.35,0.88,0.53,1.32c0.05,0.13,0.05,0.24,0,0.37c-0.25,0.62-0.49,1.24-0.74,1.86C16.06,12.75,16.03,12.89,16.03,13.05z
	 M17.38,32.72c0,0.24-0.05,0.3-0.29,0.29c-0.51-0.02-0.51-0.01-0.51-0.53c0-3.19,0-6.38,0-9.57c0-3.26,0-6.51,0-9.77
	c0-0.15,0.02-0.29,0.08-0.43c1.27-3.19,2.53-6.37,3.8-9.56c0.09-0.22,0.21-0.37,0.47-0.34c0.19,0.02,0.3,0.15,0.34,0.33
	c0.03,0.12-0.03,0.22-0.07,0.33c-1.17,2.94-2.33,5.89-3.51,8.83c-0.21,0.52-0.31,1.03-0.31,1.58
	C17.38,20.17,17.37,26.44,17.38,32.72z M23.48,22.24c0.62,1.73,0.98,3.51,1.14,5.34c0.15,1.68,0.12,3.36-0.02,5.03
	c0,0.04-0.01,0.08-0.01,0.12c0.01,0.23-0.09,0.28-0.32,0.28c-2.03-0.01-4.06-0.01-6.09,0c-0.22,0-0.27-0.06-0.27-0.27
	c0.01-4.58,0.01-9.15,0-13.73c0-0.21,0.04-0.28,0.26-0.27c0.48,0.02,0.48,0,0.35,0.45c-0.11,0.39-0.22,0.79-0.23,1.2
	c-0.02,0.47,0.33,0.86,0.78,0.91c0.48,0.06,0.91-0.23,1.02-0.68c0.04-0.16,0.03-0.32-0.01-0.48c-0.11-0.48-0.29-0.93-0.56-1.42
	c0.7,0,1.33,0.01,1.97,0c0.16,0,0.21,0.1,0.28,0.2C22.52,19.92,23.05,21.05,23.48,22.24z M31.23,24.47
	c-1.43,0.58-2.85,1.17-4.27,1.76c-0.16,0.07-0.23,0.06-0.29-0.12c-1.31-3.39-2.39-6.84-3.06-10.41c-0.29-1.57-0.49-3.16-0.5-4.76
	c0-0.19-0.04-0.35-0.26-0.37c-0.18-0.02-0.28,0.13-0.28,0.38c0.01,1.44,0.17,2.86,0.41,4.28c0.04,0.21,0.03,0.41-0.05,0.62
	c-0.29,0.74-0.59,1.46-1.02,2.13c-0.09,0.14-0.19,0.19-0.36,0.19c-1.13,0-2.27,0.02-3.4,0.04c-0.18,0-0.24-0.03-0.23-0.22
	c0.01-1.54,0.01-3.08,0-4.63c0-0.12,0.03-0.22,0.07-0.33c1.21-3.04,2.42-6.08,3.62-9.13c0.07-0.17,0.11-0.22,0.3-0.12
	c0.88,0.49,1.77,0.97,2.67,1.46c-0.61,0.72-1.21,1.43-1.81,2.15c-0.04,0.04-0.07,0.09-0.11,0.13c-0.11,0.14-0.13,0.29,0.02,0.41
	c0.15,0.12,0.29,0.07,0.41-0.07C23.44,7.43,23.8,7,24.16,6.57c0.25-0.3,0.5-0.6,0.78-0.92C25.3,6.41,25.65,7.14,26,7.88
	c1.57,3.4,2.98,6.87,4.07,10.46c0.58,1.9,1.05,3.83,1.33,5.81C31.43,24.3,31.41,24.4,31.23,24.47z"/>
<path class="st1" d="M19.11,19.1c0.24,0.42,0.39,0.82,0.46,1.25c0.04,0.24-0.14,0.42-0.37,0.42c-0.23,0-0.39-0.18-0.37-0.42
	C18.87,19.94,18.97,19.54,19.11,19.1z"/>
</svg>
