<?xml version="1.0" encoding="utf-8"?>
<!-- Generator: Adobe Illustrator 25.2.3, SVG Export Plug-In . SVG Version: 6.00 Build 0)  -->
<svg version="1.1" id="Layer_1" xmlns="http://www.w3.org/2000/svg" xmlns:xlink="http://www.w3.org/1999/xlink" x="0px" y="0px"
	 viewBox="0 0 36 36" style="enable-background:new 0 0 36 36;" xml:space="preserve">
<style type="text/css">
	.st0{fill:#7B6929;}
</style>
<path class="st0" d="M17.65,7.5c4.84,0,8.76,3.92,8.76,8.76c0,0.34-0.02,0.68-0.06,1.01c-0.17-0.12-0.35-0.22-0.54-0.31
	c0.02-0.23,0.03-0.46,0.03-0.7c0-1.24-0.28-2.47-0.83-3.58c-0.02,0.05-0.05,0.09-0.08,0.13l0,0l-0.01,0.02l-1.79,2.31l-0.02,0.02
	c-0.12,0.14-0.28,0.23-0.45,0.26c-0.19,0.02-0.38-0.03-0.54-0.14l-0.29-0.22c0.05,0.15,0.08,0.31,0.11,0.47
	c0.06,0.41-0.02,0.83-0.24,1.18l0,0c-0.21,0.33-0.51,0.6-0.85,0.79v2.73c0,0.02,0,0.04,0,0.05c-0.01,0.21-0.12,0.4-0.3,0.52
	c-0.2,0.1-0.42,0.15-0.64,0.13h-4.41l0.49-0.49h3.91c0.13,0.01,0.26-0.01,0.38-0.06c0.04-0.03,0.06-0.08,0.08-0.18v-2.86
	c0-0.09,0.05-0.17,0.13-0.21c0.32-0.15,0.59-0.39,0.79-0.68c0.16-0.25,0.22-0.55,0.17-0.85c-0.07-0.47-0.27-0.91-0.57-1.27
	c-0.36-0.28-0.71-0.55-1.07-0.82c-0.76-0.36-1.59-0.54-2.43-0.53c-1.04-0.03-2.06,0.26-2.93,0.81c-0.47,0.3-0.83,0.74-1.03,1.27
	l-0.07-0.02c-0.14-0.04-0.28-0.06-0.42-0.07c0.22-0.66,0.66-1.22,1.25-1.6c0.96-0.61,2.08-0.92,3.21-0.89c0.13,0,0.26,0,0.39,0.01
	l-0.28-0.11c-0.17-0.06-0.31-0.18-0.39-0.34c-0.07-0.15-0.07-0.33,0-0.49l1.25-2.9c0-0.01,0.01-0.02,0.02-0.03
	c0.08-0.12,0.2-0.21,0.34-0.25c0.24-0.04,0.48-0.02,0.71,0.05c0.37,0.09,0.73,0.2,1.08,0.35l0.05,0.02c0.45,0.17,0.87,0.4,1.25,0.68
	l-0.22,0.18c-0.36-0.24-0.74-0.44-1.14-0.59l-0.05-0.02c-0.34-0.14-0.68-0.25-1.03-0.33c-0.18-0.06-0.37-0.07-0.56-0.05
	c-0.03,0.01-0.07,0.03-0.1,0.05c-0.03,0.02-0.06,0.05-0.08,0.08l-0.02,0.06c0.53,0.09,1.05,0.25,1.55,0.46
	c0.43,0.17,0.87,0.37,1.23,0.55c-0.08,0.07-0.15,0.14-0.23,0.2c-0.32-0.16-0.72-0.33-1.1-0.48c-0.67-0.26-1.31-0.46-1.57-0.45
	l-1.09,2.56c-0.04,0.08-0.05,0.17-0.02,0.26c0.06,0.09,0.14,0.16,0.24,0.2l1.37,0.56c0.19,0.05,0.37,0.1,0.54,0.17
	c0.03-0.1,0.07-0.2,0.14-0.28l2.03-2.56l0.02-0.03c0.06-0.05,0.13-0.09,0.2-0.11c0.07-0.03,0.14-0.04,0.22-0.04
	c0.25,0.03,0.48,0.11,0.69,0.25c0.22,0.12,0.44,0.25,0.65,0.39l-0.01-0.01l0,0c-3.2-3.2-8.38-3.21-11.59-0.01
	c-1.83,1.83-2.69,4.42-2.32,6.98l-0.3,0.28l-0.06,0.06l0,0c-0.05,0.05-0.1,0.1-0.14,0.15c-0.91-4.75,2.2-9.35,6.95-10.26
	C16.54,7.55,17.09,7.5,17.65,7.5z M28.5,26.26l-3.05-3.39c-2.37,0.21-4.03-3.27-2.32-4.44c2.07-1.41,4.83,1.97,3.38,3.67l3.2,3.34
	C30.48,26.26,29.33,27.19,28.5,26.26L28.5,26.26z M11.11,22.05c0.66,0.12,1.2-0.03,1.97-0.86l2.05-2.06
	c0.28-0.29-0.2-0.84-0.55-0.55l-1.68,1.64c-0.12,0.14-0.33,0.15-0.47,0.03c-0.14-0.12-0.15-0.33-0.03-0.47
	c0.01-0.01,0.02-0.02,0.03-0.03l1.74-1.7c0.3-0.31-0.16-0.84-0.51-0.51c-0.48,0.48-1.26,1.22-1.74,1.7
	c-0.28,0.33-0.75-0.07-0.39-0.39l1.73-1.69c0.14-0.16,0.12-0.41-0.04-0.55c-0.06-0.05-0.12-0.08-0.19-0.09
	c-0.3-0.07-0.5,0.2-0.71,0.39l-2.03,1.9c-0.56,0.58-0.87,1.19-0.63,1.84c0.05,0.12,0.12,0.24,0.2,0.34l-3.84,3.54
	c-0.29,0.27-0.3,0.71-0.04,1c0,0,0.01,0.01,0.01,0.01l0.06,0.06c0.32,0.31,0.82,0.3,1.13-0.02c0,0,0.01-0.01,0.01-0.01l3.5-3.76
	C10.81,21.92,10.96,22,11.11,22.05z M13.16,23.12c2.76,1.81,6.34,1.78,9.07-0.06c0.09,0.09,0.18,0.18,0.28,0.27
	c0.05,0.04,0.1,0.09,0.15,0.13c-3.03,2.12-7.07,2.1-10.09-0.04l0.05-0.02C12.81,23.32,12.99,23.23,13.16,23.12z M19.8,12.96
	c0.23,0.1,0.46,0.22,0.67,0.36c0.46,0.3,0.85,0.7,1.12,1.18l0.69,0.53c0.09,0.07,0.21,0.11,0.33,0.09c0.11-0.02,0.21-0.08,0.28-0.17
	l1.73-2.23c-0.22-0.31-0.86-0.86-1.52-1.35c-0.59-0.44-1.18-0.82-1.43-0.88l-1.79,2.25C19.83,12.81,19.8,12.88,19.8,12.96
	L19.8,12.96z M18.55,16.48c0.48,0,0.86,0.39,0.86,0.86s-0.39,0.86-0.86,0.86s-0.86-0.39-0.86-0.86l0,0
	C17.68,16.86,18.07,16.48,18.55,16.48z M18,18.84c0.17,0,0.31,0.14,0.31,0.31c0,0.17-0.14,0.31-0.31,0.31
	c-0.17,0-0.31-0.14-0.31-0.31c0,0,0,0,0,0C17.69,18.98,17.83,18.84,18,18.84C18,18.84,18,18.84,18,18.84z M15.92,15.1
	c0.29,0,0.53,0.24,0.53,0.53c0,0.29-0.24,0.53-0.53,0.53c-0.29,0-0.53-0.24-0.53-0.53c0,0,0,0,0,0
	C15.38,15.33,15.62,15.1,15.92,15.1L15.92,15.1z M14.29,15.05c0.14,0,0.26,0.12,0.26,0.26c0,0.13-0.1,0.24-0.23,0.26l-0.07-0.08
	c-0.07-0.06-0.14-0.12-0.21-0.17v-0.01C14.04,15.17,14.15,15.05,14.29,15.05C14.3,15.05,14.3,15.05,14.29,15.05L14.29,15.05z
	 M19.6,15.21c0.24,0,0.44,0.19,0.44,0.44c0,0.24-0.19,0.44-0.44,0.44c-0.24,0-0.44-0.19-0.44-0.44c0,0,0,0,0,0
	C19.17,15.41,19.36,15.21,19.6,15.21L19.6,15.21z M17.54,13.93c0.21,0,0.38,0.17,0.38,0.38c0,0.21-0.17,0.38-0.38,0.38
	s-0.38-0.17-0.38-0.38c0,0,0,0,0,0C17.17,14.1,17.33,13.93,17.54,13.93z M12.75,12.05c-0.08,0.12-0.24,0.16-0.36,0.08
	c-0.12-0.08-0.16-0.24-0.08-0.36c0.39-0.64,0.92-1.17,1.55-1.56c0.6-0.37,1.29-0.57,2-0.57c0.14-0.01,0.27,0.09,0.28,0.24
	c0.01,0.14-0.09,0.27-0.24,0.28c-0.02,0-0.03,0-0.05,0c-0.61,0-1.2,0.17-1.72,0.5c-0.56,0.35-1.03,0.83-1.38,1.39H12.75z
	 M22.12,10.13c-0.04,0-0.07,0.01-0.11,0.02c-0.04,0.01-0.07,0.03-0.1,0.06l-0.04,0.05c0.51,0.24,0.99,0.53,1.43,0.88
	c0.54,0.39,1.04,0.83,1.49,1.31c0.01-0.04,0.01-0.07,0.02-0.11c0-0.03,0-0.06,0-0.09c-0.11-0.2-0.22-0.37-0.34-0.55
	c-0.25-0.26-0.52-0.49-0.81-0.71l-0.05-0.03c-0.3-0.23-0.61-0.43-0.94-0.62C22.51,10.23,22.32,10.16,22.12,10.13z M23.23,11.93
	c-0.07-0.05-0.16-0.04-0.21,0.03s-0.04,0.16,0.03,0.21l0,0c0.07,0.05,0.16,0.04,0.21-0.03C23.31,12.07,23.29,11.98,23.23,11.93z
	 M23.67,12.32c-0.07-0.04-0.16-0.02-0.2,0.06c-0.03,0.06-0.02,0.13,0.02,0.18c0.07,0.05,0.16,0.04,0.21-0.03
	C23.75,12.46,23.74,12.36,23.67,12.32L23.67,12.32z M24.07,12.77c-0.07-0.04-0.16-0.02-0.2,0.06c-0.03,0.06-0.02,0.13,0.02,0.18
	c0.07,0.05,0.16,0.04,0.21-0.03C24.15,12.91,24.13,12.81,24.07,12.77L24.07,12.77z M22.75,11.58c0.07,0.05,0.08,0.14,0.03,0.21
	c-0.05,0.07-0.14,0.08-0.21,0.03c-0.07-0.05-0.08-0.14-0.03-0.21C22.6,11.55,22.69,11.53,22.75,11.58L22.75,11.58z M22.25,11.26
	c0.07,0.05,0.08,0.14,0.03,0.21c-0.05,0.07-0.14,0.08-0.21,0.03c-0.07-0.05-0.08-0.14-0.03-0.21
	C22.09,11.23,22.19,11.21,22.25,11.26C22.25,11.26,22.25,11.26,22.25,11.26z M21.72,11c0.07,0.05,0.08,0.14,0.03,0.21
	c-0.05,0.07-0.14,0.08-0.21,0.03c-0.07-0.05-0.08-0.14-0.03-0.21C21.56,10.96,21.66,10.95,21.72,11C21.72,11,21.72,11,21.72,11z
	 M20.29,10.05c-0.07-0.03-0.16,0-0.19,0.07c0,0,0,0.01,0,0.01c-0.02,0.08,0.02,0.16,0.1,0.18c0.07,0.02,0.14-0.01,0.17-0.07
	C20.39,10.17,20.36,10.08,20.29,10.05C20.28,10.05,20.28,10.05,20.29,10.05L20.29,10.05z M20.8,10.3c-0.07-0.03-0.16-0.01-0.19,0.06
	c0,0.01,0,0.01-0.01,0.02c-0.02,0.06-0.01,0.12,0.04,0.16c0.07-0.07,0.13-0.14,0.2-0.21c-0.01-0.01-0.03-0.02-0.05-0.03H20.8z
	 M19.76,9.84c0.07,0.03,0.11,0.12,0.07,0.19c-0.03,0.07-0.12,0.11-0.19,0.07c-0.07-0.03-0.1-0.11-0.08-0.18
	C19.59,9.84,19.67,9.8,19.76,9.84C19.75,9.83,19.75,9.83,19.76,9.84z M19.21,9.66c0.08,0.02,0.12,0.1,0.1,0.18s-0.1,0.12-0.18,0.1
	c-0.01,0-0.02-0.01-0.03-0.01c-0.08-0.02-0.12-0.1-0.1-0.18c0.02-0.08,0.1-0.12,0.18-0.1C19.19,9.65,19.2,9.66,19.21,9.66z
	 M18.63,9.56c0.07,0.03,0.11,0.11,0.09,0.18c0,0,0,0.01-0.01,0.01c-0.03,0.08-0.11,0.11-0.19,0.09c0,0-0.01,0-0.01,0
	c-0.07-0.04-0.1-0.12-0.06-0.2C18.49,9.58,18.56,9.55,18.63,9.56L18.63,9.56z"/>
</svg>
