<?xml version="1.0" encoding="utf-8"?>
<!-- Generator: Adobe Illustrator 25.2.3, SVG Export Plug-In . SVG Version: 6.00 Build 0)  -->
<svg version="1.1" id="Layer_1" xmlns="http://www.w3.org/2000/svg" xmlns:xlink="http://www.w3.org/1999/xlink" x="0px" y="0px"
	 viewBox="0 0 36 36" style="enable-background:new 0 0 36 36;" xml:space="preserve">
<style type="text/css">
	.st0{fill:#7B6929;}
</style>
<path class="st0" d="M13.52,23.28c-0.01,0.01-0.01,0.01-0.02,0.02c-0.04-0.04-0.06-0.08-0.07-0.14
	C13.46,23.2,13.49,23.24,13.52,23.28z"/>
<path class="st0" d="M14.16,22.88c-0.01,0.01-0.01,0.01-0.02,0.02c-0.03-0.04-0.06-0.08-0.09-0.11
	C14.11,22.81,14.14,22.84,14.16,22.88z"/>
<path class="st0" d="M-40.21,0.84c0.04,0.08-0.02,0.2,0.08,0.27c-0.09,0.5-0.19,1-0.28,1.49C-40.38,2.01-40.38,1.42-40.21,0.84z"/>
<path class="st0" d="M25.75,14.9c0.01-0.01,0.01-0.01,0.02-0.02c0.03,0.06,0.04,0.12,0.02,0.19C25.78,15.01,25.77,14.95,25.75,14.9z
	"/>
<g>
	<path class="st0" d="M11.18,24.81c0.02-0.02,0.03-0.04,0.05-0.06C11.21,24.76,11.19,24.78,11.18,24.81
		C11.17,24.8,11.17,24.8,11.18,24.81z"/>
	<path class="st0" d="M27.81,15.95c-6.51,0-13.02,0-19.54,0c-0.07,0-0.14,0-0.21,0c0,0.06,0,0.12,0,0.19
		c0.04,0.07,0.11,0.09,0.19,0.09c0.96,0,1.92,0,2.88,0c0.06,0,0.12,0,0.17,0.02c0.21,0.07,0.42,0.14,0.64,0.19
		c0.39,0.1,0.76,0.29,1.19,0.24c0.01,0,0.01,0,0.02,0c0.03,0,0.04,0.02,0.03,0.05c-0.03,0.16,0.05,0.26,0.16,0.35
		c0.25,0.21,0.47,0.45,0.59,0.77c0.03,0.09,0.04,0.18,0.02,0.27c-0.02,0.08-0.02,0.17,0.01,0.24c0.12,0.27,0.14,0.56,0.16,0.85
		c0.06,0.65,0.06,1.3,0.32,1.92c0.04,0.1,0.02,0.2-0.05,0.29c-0.11,0.14-0.22,0.28-0.32,0.43c-0.06,0.08-0.11,0.11-0.21,0.08
		c-0.13-0.04-0.24-0.01-0.32,0.11c-0.07,0.11-0.16,0.21-0.23,0.31c-0.03,0.04-0.06,0.06-0.11,0.03c-0.07-0.04-0.13-0.02-0.18,0.05
		c-0.53,0.69-1.07,1.37-1.6,2.05c-0.07,0.09-0.14,0.18-0.21,0.26c0.66-0.64,1.32-1.28,1.99-1.92c0.03,0.02,0.04,0.09,0.1,0.11
		c0.16-0.19,0.31-0.38,0.47-0.58c0.05,0.08,0.1,0.14,0.15,0.22c0.04-0.05,0.06-0.09,0.09-0.13c0.13-0.18,0.25-0.37,0.39-0.54
		c0.13-0.17,0.26-0.32,0.49-0.37c0.12-0.03,0.16-0.15,0.09-0.25c-0.3-0.44-0.39-0.94-0.43-1.46c-0.03-0.39-0.04-0.77-0.1-1.16
		c-0.04-0.23-0.14-0.46-0.08-0.7c0-0.02-0.01-0.05-0.01-0.07c-0.08-0.32-0.25-0.6-0.47-0.84c-0.05-0.06-0.12-0.11-0.15-0.18
		c-0.03-0.07-0.01-0.11,0.06-0.14c0.26-0.09,0.51-0.08,0.73,0.12c0.21,0.19,0.37,0.42,0.51,0.65c0.23,0.37,0.42,0.77,0.67,1.13
		c0.15,0.22,0.34,0.37,0.58,0.47c0.31,0.13,0.63,0.19,0.97,0.2c0.58,0.02,1.12-0.14,1.65-0.34c0.28-0.11,0.55-0.25,0.83-0.35
		c0.25-0.08,0.44-0.23,0.6-0.43c0.1-0.12,0.2-0.25,0.32-0.36c0.42-0.38,0.89-0.7,1.37-0.99c0.12-0.07,0.26-0.13,0.4-0.16
		c0.05-0.01,0.11-0.02,0.16,0c0.1,0.02,0.13,0.1,0.07,0.18c-0.05,0.06-0.1,0.11-0.16,0.16c-0.35,0.33-0.7,0.65-1.01,1.03
		c-0.35,0.43-0.74,0.82-1.23,1.1c-0.22,0.13-0.42,0.29-0.59,0.49c-0.1,0.11-0.17,0.23-0.2,0.38c-0.02,0.13,0.03,0.23,0.14,0.25
		c0.09,0.02,0.15-0.05,0.17-0.19c0.02-0.16,0.09-0.28,0.25-0.35c0.04-0.02,0.08-0.04,0.12-0.06c0.51-0.23,0.96-0.56,1.34-0.97
		c0.2-0.21,0.4-0.41,0.61-0.62c0,0.01,0.01,0.02,0.01,0.02c-0.22,0.37-0.42,0.75-0.72,1.06c-0.08,0.09-0.16,0.16-0.28,0.19
		c-0.09,0.02-0.16,0.07-0.23,0.12c-0.51,0.38-1.01,0.78-1.42,1.28c-0.07,0.08-0.14,0.15-0.23,0.2c-0.74,0.37-1.4,0.86-2,1.44
		c-0.08,0.08-0.17,0.16-0.27,0.22c-0.14,0.09-0.27,0.19-0.38,0.32c-0.28,0.31-0.52,0.66-0.75,1.02c-0.03,0.05-0.05,0.07-0.11,0.04
		c-0.57-0.31-1.1-0.66-1.54-1.13c-0.02-0.01-0.03,0-0.02,0.02c0.21,0.29,0.45,0.56,0.71,0.79c0.38,0.34,0.81,0.62,1.27,0.85
		c0.07,0.04,0.08,0.06,0.03,0.12c-0.09,0.12-0.18,0.25-0.26,0.38c-0.03,0.05-0.06,0.07-0.12,0.03c-0.11-0.07-0.23-0.13-0.34-0.2
		c-0.72-0.44-1.38-0.93-1.9-1.6c-0.02,0-0.03,0-0.02,0.02c0.08,0.15,0.18,0.28,0.28,0.42c0.59,0.81,1.35,1.43,2.22,1.91
		c0.07,0.04,0.07,0.06,0.03,0.12c-0.45,0.67-0.91,1.35-1.34,2.03c-0.02,0.03-0.05,0.06-0.05,0.1c0.01-0.01,0.02-0.02,0.03-0.02
		c0.6-0.71,1.21-1.41,1.81-2.12c0.06-0.08,0.07-0.15,0.04-0.24c-0.04-0.12-0.11-0.23-0.2-0.32c-0.04-0.04-0.04-0.06-0.01-0.1
		c0.11-0.15,0.21-0.3,0.32-0.46c0.02-0.03,0.05-0.06,0.04-0.1c-0.03-0.22-0.13-0.4-0.32-0.55c0,0.06,0.01,0.1,0.01,0.13
		c0,0.04,0.01,0.08,0.01,0.11c0,0.12,0,0.12-0.11,0.07c-0.16-0.07-0.16-0.07-0.06-0.22c0.32-0.51,0.67-0.98,1.17-1.32
		c0.09-0.06,0.17-0.14,0.26-0.22c0.52-0.47,1.08-0.87,1.7-1.19c0.13-0.07,0.25-0.15,0.34-0.26c0.29-0.34,0.61-0.64,0.95-0.92
		c0.2-0.17,0.39-0.35,0.63-0.46c0.21-0.1,0.37-0.25,0.49-0.44c0.36-0.55,0.73-1.09,1.14-1.6c0.14-0.18,0.28-0.37,0.41-0.56
		c0.07-0.1,0.14-0.2,0.14-0.33c0-0.11,0.05-0.11,0.13-0.11c0.16,0,0.33,0.02,0.49-0.03c0.31-0.1,0.62-0.18,0.93-0.29
		c0.31-0.11,0.63-0.15,0.97-0.14c0.6,0.01,1.2,0,1.8,0.01c0.08,0,0.14-0.02,0.18-0.09c0-0.06,0-0.12,0-0.19
		C27.89,15.95,27.85,15.95,27.81,15.95z M19.89,16.79c-0.16,0.22-0.25,0.46-0.29,0.73c-0.02,0.16-0.08,0.31-0.16,0.45
		c-0.05,0.08-0.1,0.16-0.13,0.26c-0.01,0.03-0.02,0.05-0.05,0.06c-0.12,0.05-0.23,0.13-0.33,0.21c-0.05,0.04-0.12,0.07-0.18,0.07
		c-0.35,0.05-0.66,0.19-0.99,0.31c-0.46,0.16-0.88,0.1-1.3-0.12c-0.29-0.15-0.52-0.37-0.68-0.66c-0.23-0.41-0.45-0.84-0.75-1.21
		c-0.05-0.06-0.11-0.13-0.17-0.2c1.71,0,3.4,0,5.11,0C19.94,16.73,19.91,16.76,19.89,16.79z"/>
</g>
<path class="st0" d="M25.77,14.88c0-0.02,0-0.03-0.01-0.05c-0.19-0.83-0.5-1.61-0.96-2.32c-1.16-1.83-2.8-2.98-4.92-3.45
	c-0.4-0.09-0.8-0.14-1.2-0.15c-0.04,0-0.09,0-0.06-0.07c0.08-0.22,0.16-0.44,0.34-0.6C19.1,8.11,19.24,8,19.4,7.9
	c0.11-0.07,0.12-0.1,0.04-0.2c-0.02-0.03-0.05-0.06-0.09-0.09c-0.1-0.07-0.21-0.11-0.33-0.15c-0.14-0.04-0.28-0.04-0.42-0.08
	c-0.21,0-0.41,0-0.62,0c-0.03,0.03-0.06,0.02-0.1,0.02c-0.16,0.02-0.31,0.05-0.46,0.1c-0.1,0.04-0.2,0.09-0.27,0.18
	c-0.09,0.11-0.08,0.15,0.04,0.22c0.36,0.22,0.64,0.5,0.76,0.92c0.02,0.06,0.02,0.08-0.05,0.08c-0.38,0.01-0.77,0.06-1.14,0.15
	c-2.53,0.59-4.33,2.06-5.41,4.42c-0.27,0.6-0.45,1.22-0.54,1.88c0,0.02-0.03,0.05,0.02,0.06c0.14-0.66,0.36-1.29,0.69-1.88
	c1.37-2.42,3.46-3.73,6.21-4c1.23-0.12,2.43,0.06,3.57,0.53c2.22,0.92,3.73,2.51,4.45,4.83C25.77,14.9,25.78,14.9,25.77,14.88z
	 M18.41,8.81c-0.02,0.08-0.05,0.09-0.12,0.09c-0.07,0-0.09-0.03-0.11-0.09c-0.12-0.39-0.07-0.52-0.67-1.02
	c0.53-0.18,1.04-0.19,1.56,0c-0.01,0.02-0.01,0.03-0.02,0.04C18.7,8.07,18.49,8.4,18.41,8.81z"/>
</svg>
