<?xml version="1.0" encoding="utf-8"?>
<!-- Generator: Adobe Illustrator 25.2.3, SVG Export Plug-In . SVG Version: 6.00 Build 0)  -->
<svg version="1.1" id="Layer_1" xmlns="http://www.w3.org/2000/svg" xmlns:xlink="http://www.w3.org/1999/xlink" x="0px" y="0px"
	 viewBox="0 0 36 36" style="enable-background:new 0 0 36 36;" xml:space="preserve">
<style type="text/css">
	.st0{fill:#7B6929;}
</style>
<g>
	<g>
		<path class="st0" d="M18.47,7.86C12.86,7.86,8.32,12.4,8.32,18s4.54,10.14,10.14,10.14S28.61,23.6,28.61,18S24.07,7.86,18.47,7.86
			z M18.47,27.77c-5.4,0-9.77-4.38-9.77-9.77c0-5.4,4.38-9.77,9.77-9.77s9.77,4.38,9.77,9.77S23.86,27.77,18.47,27.77z"/>
		<path class="st0" d="M17.82,18.01h-1.49c0-1.14,0.93-2.08,2.07-2.09c0.01,0,0.01,0,0.02,0c0.01,0,0.01,0,0.02,0
			c1.14,0.01,2.07,0.95,2.07,2.09h-1.49v0.37h1.86v-0.37c0-1.07-0.69-1.99-1.64-2.32c0.43-0.28,0.72-0.75,0.72-1.3
			c0-0.84-0.69-1.53-1.53-1.53c-0.84,0-1.53,0.69-1.53,1.53c0,0.55,0.28,1.02,0.72,1.3c-0.95,0.34-1.64,1.25-1.64,2.32v0.37h1.86
			v-0.37H17.82z M17.27,14.39c0-0.64,0.52-1.16,1.16-1.16c0.64,0,1.16,0.52,1.16,1.16c0,0.64-0.51,1.15-1.14,1.16
			c-0.01,0-0.01,0-0.02,0c-0.01,0-0.01,0-0.02,0C17.78,15.53,17.27,15.02,17.27,14.39z"/>
		<path class="st0" d="M13.56,18.75h9.75v0.37h-9.75V18.75z"/>
		<path class="st0" d="M24.95,15.25c0-0.64-0.52-1.16-1.16-1.16s-1.16,0.52-1.16,1.16c0,0.64,0.52,1.16,1.16,1.16
			c0.01,0,0.02,0,0.03,0l-0.8,1.6H22.1v0.37h1.16v-0.02L23.94,17l0.42,3.89h-1.99v0.01l-1.05,2.09l0.34,0.17l0.96-1.92h2.11V20.9
			l0,0l-0.49-4.5l0.05-0.09C24.67,16.1,24.95,15.7,24.95,15.25z M23.78,16.03c-0.44,0-0.79-0.35-0.79-0.79s0.35-0.79,0.79-0.79
			s0.79,0.35,0.79,0.79C24.57,15.69,24.22,16.03,23.78,16.03z"/>
		<path class="st0" d="M14.56,20.88L14.56,20.88L14.56,20.88L14.56,20.88h-1.98l0.42-3.89l0.68,1.36v0.02h1.16V18h-0.92l-0.81-1.6
			c0.01,0,0.02,0,0.03,0c0.64,0,1.16-0.52,1.16-1.16s-0.52-1.16-1.16-1.16s-1.16,0.52-1.16,1.16c0,0.46,0.27,0.86,0.65,1.05
			l0.05,0.09l-0.49,4.5l0,0v0.34h2.11l0.96,1.92l0.34-0.17L14.56,20.88L14.56,20.88z M12.36,15.25c0-0.44,0.35-0.79,0.79-0.79
			s0.79,0.35,0.79,0.79s-0.35,0.79-0.79,0.79S12.36,15.69,12.36,15.25z"/>
	</g>
</g>
</svg>
