<?xml version="1.0" encoding="utf-8"?>
<!-- Generator: Adobe Illustrator 25.2.3, SVG Export Plug-In . SVG Version: 6.00 Build 0)  -->
<svg version="1.1" id="Layer_1" xmlns="http://www.w3.org/2000/svg" xmlns:xlink="http://www.w3.org/1999/xlink" x="0px" y="0px"
	 viewBox="0 0 36 36" style="enable-background:new 0 0 36 36;" xml:space="preserve">
<style type="text/css">
	.st0{fill:#7B6929;}
	.st1{fill:#FFFFFF;}
</style>
<circle class="st0" cx="18.41" cy="18.33" r="9.63"/>
<g>
	<path class="st1" d="M15.92,22.24c-0.08-0.07-0.16-0.08-0.21-0.08c-0.03,0-0.06,0.02-0.08,0.04l-0.07,0.07c0,0-0.03-0.03-0.08,0.02
		s-0.01,0.08-0.01,0.08l-0.13,0.08c0,0-0.08-0.07-0.13-0.16c-0.04-0.2-0.35-0.33-0.35-0.33l-0.03-0.01c0,0-0.21-0.16-0.31-0.23
		c-0.1-0.07-0.17-0.01-0.18,0.01c-0.02,0.02-0.28,0.47-0.31,0.54c-0.04,0.07-0.09,0.25-0.09,0.25s-0.04,0-0.14-0.03
		c-0.1-0.03-0.12,0.04-0.14,0.06c-0.03,0.02-0.54,0.2-0.54,0.2v0.04c0,0-0.34,0.21-0.53,0.25c-0.19,0.04-0.25,0.06-0.43,0.18
		c-0.18,0.12-0.46,0.24-0.46,0.24s-0.01-0.02-0.1,0c-0.05-0.04-0.26-0.03-0.27-0.04c-0.01,0-0.09-0.02-0.11,0.01
		c-0.02,0.03,0,0.14,0,0.14s0.01,0.05,0.02,0.13c-0.04,0.03,0.08,0.25,0.14,0.27c0.06,0.02,0.32-0.11,0.32-0.11s0.23-0.07,0.5-0.04
		c0.26,0.03,0.45-0.04,0.5-0.07s0.24-0.07,0.28-0.08c0.04-0.01,0.33-0.06,0.33-0.06s0.01,0.04,0.07,0.15
		c0.14-0.06,0.21-0.04,0.52-0.15c0.31-0.11,0.31-0.24,0.31-0.24s0.02,0.01,0.07-0.03c0.08,0,0.25-0.07,0.3-0.09
		c0.05-0.02,0.24-0.02,0.38-0.02c0.14-0.01,0.17,0.01,0.17,0.01v0.14l0.03,0.01c-0.02,0.12,0.06,0.3,0.11,0.44
		c0.01,0.1,0.05,0.13,0.07,0.15c0.03,0.02,0.09,0.02,0.17,0.03c0.02,0.02,0.07,0.01,0.07,0.01s0.01,0.02,0.09,0.02
		c0.03-0.04-0.01-0.05-0.01-0.05s0-0.06,0-0.1c0-0.03,0-0.05-0.04-0.07c-0.01-0.05-0.02-0.05-0.09-0.05
		c-0.07-0.11-0.1-0.31-0.1-0.31l0-0.02c0,0-0.01-0.09,0-0.19c0.01-0.11,0.02-0.2-0.02-0.26c-0.01-0.02,0-0.12,0-0.12l0.02-0.04
		l0-0.03c0.03-0.04,0.14-0.06,0.23-0.08c0.02,0.03,0.06,0.03,0.11,0.01s0.02-0.05,0.02-0.05l0.07-0.03
		c0.04-0.01,0.07-0.05,0.08-0.09C15.98,22.45,16.01,22.33,15.92,22.24z M12.75,23.4c-0.1,0.04-0.27,0.06-0.4,0.1
		c-0.12,0.04-0.37,0.14-0.47,0.16c-0.1,0.02-0.2,0-0.2,0s0.07-0.01,0.07-0.05c0-0.04,0.23-0.13,0.35-0.13
		c0.12-0.01,0.37-0.06,0.47-0.15c0,0,0.05-0.04,0.18-0.03c0.13,0.01,0.46-0.12,0.46-0.12l0.03,0.03l0.03,0.02
		C13.29,23.23,12.85,23.36,12.75,23.4z M14.24,22.5c0,0-0.04-0.08-0.06-0.1c-0.02-0.03-0.02-0.07,0.03-0.14
		c0.05-0.07,0.26-0.28,0.26-0.28s0.13,0.16,0.22,0.19c0.08,0.07,0.11,0.1,0.11,0.1S14.52,22.47,14.24,22.5z"/>
	<path class="st1" d="M20.46,11.38v-0.09c0-0.08-0.07-0.14-0.15-0.14h-0.07v-0.03c0-0.04-0.03-0.07-0.06-0.07s-0.06,0.03-0.06,0.07
		v0.09h-0.03v0.09v0.07h-0.1v0.03h-0.62c-0.03-0.03-0.06-0.02-0.06-0.02s0-0.02-0.1-0.02c-0.03-0.01-0.05,0.01-0.05,0.04h-1.47
		c0-0.03-0.02-0.04-0.05-0.06c-0.05-0.02-0.04,0.01-0.04,0.01s-0.06,0.02-0.12,0.03c-0.02,0-0.04-0.01-0.04,0.02h-0.67v-0.06h-0.16
		v-0.23c0-0.02,0.01-0.04-0.01-0.05c-0.05-0.02-0.09-0.01-0.13,0c-0.02,0.01-0.03,0.03-0.03,0.05v0.04h-0.03
		c-0.08,0-0.16,0.05-0.16,0.14v0.09h-0.61v0.19h0.61v0.06c0,0.08,0.08,0.17,0.16,0.17h0.07v-0.01c0,0.03,0.07,0.07,0.09,0.07h0.02
		c0.03,0,0.02-0.03,0.02-0.06l-0.01-0.01V11.6h0.16v-0.1h0.61c0,0.06,0.03,0.04,0.03,0.04s0.04,0.08,0.03,0.21
		c-0.01,0.14,0.08,0.33,0.08,0.33s0.06,0.08,0.12,0.29c0,0.19,0.08,0.41,0.21,0.53c-0.01,0.08,0,0.27,0,0.27v0.05l0.07,0.11
		c0,0,0.01,0.09,0.01,0.23c0,0.02,0.07,0.61,0.01,0.73c-0.06,0.12-0.11,0.4-0.09,0.58c0.02,0.18,0.04,0.49,0.04,0.53
		c0,0.05-0.1,0.22-0.07,0.42c0.02,0.2,0,0.57,0,0.57l0.01,0.01v0.04c0,0-0.09,0.08-0.09,0.12c0,0.04-0.09,0.12-0.09,0.12
		c-0.01,0.02-0.01,0.05-0.01,0.07c0,0.03,0.02,0.06,0.05,0.06h0.22c0.02,0,0.03-0.03,0.04-0.05l0-0.02l0.05-0.02
		c0.02,0,0.03-0.02,0.03-0.04l0-0.19l-0.01-0.06c0,0,0.01-0.36,0.03-0.42c0.02-0.07,0.07-0.15,0.07-0.24
		c0.01-0.09-0.01-0.18,0.03-0.29s0.06-0.25,0.06-0.32c0-0.08,0.07-0.21,0.09-0.26c0.02-0.05,0.06-0.2,0.06-0.2h0.03
		c0,0,0.15,0.45,0.16,0.56c0.01,0.11-0.01,0.12,0.04,0.27c0.06,0.15,0,0.23,0.03,0.31c0.03,0.08,0.08,0.26,0.08,0.36
		c0,0.09-0.02,0.17-0.02,0.17l0.01,0.05l-0.02,0.04l-0.02,0.25c0,0.02,0.02,0.05,0.04,0.05h0.01c0.02,0.03,0.04,0.03,0.06,0.03h0.17
		c0.05,0,0.09-0.02,0.09-0.07s-0.05-0.12-0.05-0.12s0-0.02-0.01-0.04c-0.01-0.03-0.09-0.09-0.09-0.09v-0.05c0,0,0-0.04,0-0.07
		c-0.01-0.03,0.03-0.68,0.03-0.71c0-0.03-0.09-0.22-0.06-0.29c0.07-0.26,0.05-0.55,0.05-0.64s-0.08-0.36-0.08-0.36v-0.07l-0.01-0.05
		c0,0-0.01-0.12-0.01-0.45c0.05-0.21,0.06-0.43,0.06-0.43l0.04-0.09l0-0.03c0,0,0,0,0.02-0.19c0.02-0.21,0.18-0.25,0.21-0.4
		c0.03-0.15,0.09-0.3,0.18-0.47c0.1-0.2,0.13-0.45,0.14-0.57c0.01-0.02,0.02-0.02,0.02-0.02h0.54v0.03h0.1v0.01v0.12h0.03v0.05
		c0,0.04,0.05,0.11,0.09,0.11h0.02c0.04,0,0.05-0.07,0.05-0.11v0.01h0.04c0.08,0,0.15-0.09,0.15-0.17v-0.06h0.61v-0.19H20.46z
		 M19.19,11.77c-0.07,0.14-0.09,0.2-0.14,0.38c-0.05,0.03-0.15,0.12-0.24,0.41c-0.19,0.08-0.23,0.22-0.23,0.22h-0.05
		c0,0,0.01-0.07,0.03-0.15c0.04,0,0.06-0.06,0.07-0.11c0.01-0.05-0.03-0.06-0.03-0.06s0.02-0.11,0-0.19
		c-0.02-0.08-0.1-0.16-0.22-0.16c-0.12,0-0.22,0.04-0.23,0.12c-0.01,0.07,0.01,0.2,0.01,0.2s-0.03,0.01-0.02,0.06
		c0,0.08,0.03,0.08,0.03,0.08l0.01,0.03v0.17h-0.02l-0.04-0.07c0,0,0-0.02-0.05-0.04c-0.03-0.06-0.12-0.11-0.12-0.11
		s-0.08-0.29-0.22-0.42c0-0.14-0.15-0.52-0.17-0.57c-0.02-0.05,0.01-0.04,0.01-0.04c0.07,0,0.08-0.03,0.08-0.03s1.25,0,1.5,0
		c0.05,0.1,0.09,0.03,0.09,0.03S19.26,11.63,19.19,11.77z"/>
	<path class="st1" d="M20.79,23.99c-0.03-0.06-0.08-0.19-0.1-0.24c0-0.01,0-0.02,0-0.03c0.02-0.03,0.08-0.06,0.11-0.06
		c0,0-0.03-0.06,0.05-0.07c0.08-0.01,0.28-0.12,0.31-0.12c0.03,0,0.05,0.02,0.05,0.02s0.19-0.1,0.28-0.2
		c0.09-0.11,0.3-0.3,0.45-0.29c0.18-0.16,0.24-0.18,0.24-0.18s0.03-0.07,0.1-0.12c0.02-0.05,0.02-0.05,0.02-0.05s0.3-0.26,0.43-0.34
		c0.13-0.08,0.26-0.22,0.35-0.2c0.08-0.02,0.08-0.02,0.08-0.02h0.03c0,0,0.12-0.1,0.24-0.09c0.15-0.11,0.32-0.23,0.38-0.3
		c0.06-0.07,0.09-0.14,0.08-0.19c-0.01-0.06-0.12-0.09-0.13-0.24c-0.01-0.15,0.01-0.4-0.01-0.43c-0.02-0.03-0.05-0.05-0.05-0.2
		c0-0.14,0.1-0.45,0.09-0.52c-0.01-0.05-0.01-0.05-0.01-0.05H23.7v0.08c0,0.02-0.01,0.03-0.03,0.03h-0.1
		c-0.02,0-0.03-0.01-0.03-0.03v-0.19c0-0.02,0.01-0.03,0.03-0.03h0.11c0.02,0,0.03,0.01,0.03,0.03v0.06h0.05c0,0,0-0.08,0.03-0.08
		s0.12,0,0.12,0s0-0.02,0.03-0.02c0.03,0,0.05,0.01,0.05,0.01l0.03,0.04h0.02v-0.02c0-0.02,0.01-0.03,0.03-0.03h0.08
		c0.02,0,0.03,0.01,0.03,0.03v0.19c0,0.02-0.01,0.03-0.03,0.03h-0.08c-0.02,0-0.03-0.01-0.03-0.03v-0.06h-0.03
		c0,0-0.07,0.08-0.1,0.08c0,0.1-0.01,0.35,0.05,0.54c0.03,0.12,0,0.2,0,0.2s0.07,0.21,0.09,0.33c0.15,0.09,0.14,0.2,0.15,0.28
		c0.12,0.05,0.14,0.06,0.14,0.06l0.13-0.12c0-0.05-0.01-0.07,0.02-0.11c0.03-0.03,0.05-0.05,0.08-0.03c0.09-0.1,0.21-0.17,0.34-0.1
		c0.12,0.07,0.17,0.21,0.09,0.37c-0.08,0.11-0.17,0.12-0.17,0.12s0.02,0.06-0.1,0.07c-0.06,0.01-0.07-0.03-0.07-0.03
		s-0.11,0.07-0.11,0.11c0,0.03,0.04,0.16,0.04,0.17c0.03,0.05,0.1,0.27-0.04,0.46c0,0,0.01,0.33,0.02,0.36
		c0.01,0.03,0.05,0.09,0.07,0.32c0.02,0.23,0.07,0.41,0.08,0.42c0.01,0.01,0.1,0.05,0.1,0.05l0.03,0.04v-0.03
		c0-0.02,0.01-0.03,0.03-0.03h0.1c0.02,0,0.03,0.01,0.03,0.03v0.19c0,0.02-0.01,0.03-0.03,0.03h-0.1c-0.02,0-0.03-0.01-0.03-0.03
		v-0.06h-0.03c0,0-0.05,0.05-0.07,0.05c-0.02,0-0.16-0.02-0.16-0.03c0-0.01-0.02-0.04-0.02-0.04h-0.09v0.1
		c0,0.02-0.02,0.04-0.04,0.04h-0.08c-0.02,0-0.04-0.02-0.04-0.04v-0.19c0-0.02,0.02-0.04,0.04-0.04h0.08c0.02,0,0.04,0.02,0.04,0.04
		v0.03h0.06l0.01-0.09c0,0-0.07-0.18-0.12-0.31c-0.06-0.12-0.1-0.25-0.1-0.33c0-0.07-0.06-0.33-0.04-0.39
		c0.02-0.06,0.06-0.22,0.06-0.22s-0.12,0.08-0.22,0.11c-0.12,0.06-0.41,0.16-0.45,0.19s-0.14,0.1-0.14,0.1l0,0.05l-0.09,0.11
		c0,0-0.36,0.33-0.42,0.33c-0.1,0.02-0.31,0.02-0.31,0.02l-0.04,0.05l-0.16-0.06c0,0-0.22,0.11-0.36,0.11
		c-0.13,0.16-0.52,0.19-0.61,0.21c-0.09,0.02-0.16,0.05-0.18,0.06c-0.02,0.02-0.16,0.16-0.16,0.16s-0.05,0.1-0.11,0.13
		c-0.05,0.03-0.2,0.08-0.27,0.11C20.82,24.02,20.8,24.01,20.79,23.99z"/>
	<path class="st1" d="M16.44,23.68h0.13c0,0,0.05-0.07-0.01-0.12c-0.06-0.05-0.07-0.1-0.07-0.13c0-0.03-0.02-0.11,0-0.15
		c0.02-0.04,0.06-0.03,0.03-0.09c0.13-0.06,0.1-0.06,0.26-0.09s0.26-0.12,0.33-0.12s0.32,0,0.4-0.03c0.15-0.01,0.45-0.14,0.45-0.14
		s0.02,0.03,0,0.12c-0.01,0.08,0.2-0.07,0.2-0.07l0.06,0.16h0.05l0.18,0.25c0,0-0.15-0.07-0.29-0.07c-0.19-0.05-0.35-0.11-0.45-0.12
		c0,0,0.01-0.04-0.09-0.06c-0.1-0.01-0.16,0-0.2,0.01c-0.04,0.02-0.03,0.08-0.03,0.1s0.02,0.47,0.03,0.5c0,0.03,0.05,0.17,0.16,0.18
		c0.11,0.01,0.13-0.05,0.11-0.12c-0.02-0.07,0.05-0.29,0.05-0.29s0.09,0.01,0.08-0.04c0.13-0.01,0.27,0.06,0.39,0.15
		c0.12,0.09,0.33,0.13,0.33,0.13s0.17,0.1,0.28,0.04c0.11-0.06,0.1-0.15,0.1-0.15s0-0.29-0.05-0.47l0-0.04c0,0-0.08-0.27-0.14-0.32
		c0.05-0.1,0.05-0.1,0.05-0.1h0.07c0,0,0.37-0.09,0.42-0.14c0.12,0.04,0.19,0.05,0.19,0.05s-0.03,0.18,0.03,0.33
		c-0.07,0.18-0.16,0.38-0.14,0.57c0.02,0.18,0.02,0.24,0.02,0.24l0.08,0.01c0,0-0.03,0.24,0.03,0.28c0.34,0.02,0.45,0.03,0.45,0.03
		s0.11-0.03,0.09-0.07l-0.06-0.03l-0.06-0.03l-0.14-0.03c-0.05-0.02-0.13-0.01-0.13-0.01l0-0.16l0.19,0l0.04-0.03l-0.08-0.04h-0.05
		l-0.05-0.01l-0.06,0c0,0,0.1-0.22,0.12-0.28c0.02-0.06,0-0.24,0-0.24s0.01-0.24,0-0.36c0.11-0.13,0.15-0.14,0.15-0.36
		c0.12,0.01,0.17,0.02,0.17,0.02l0.05,0.12l0.03,0c0,0,0,0,0.01,0l0.06-0.02c0.01,0,0.01,0,0.02,0l0.02,0c0.01,0,0.01,0,0.02,0
		l0.02-0.01c0.01,0,0.02,0,0.03,0l0,0c0.02,0.01,0.04,0,0.05-0.02l0.02-0.05c0-0.01,0.02-0.02,0.03-0.02l0.01,0
		c0.01,0,0.01,0,0.02,0l0.12-0.07c0,0,0.07,0.05,0.14,0c-0.04-0.06-0.02-0.19-0.02-0.19s-0.05-0.3-0.22-0.27
		c-0.16-0.03-0.26,0.07-0.29,0.1C20.1,21.99,20.04,22,20.04,22l-0.03,0.03c0,0-0.07-0.01-0.13-0.02c-0.1-0.07-0.16-0.12-0.23-0.12
		c-0.07,0-0.52-0.04-0.92,0.2c-0.1,0.05-0.18,0.04-0.18,0.04l-0.08-0.04c0,0-0.39-0.03-0.56,0.23c-0.07,0.11-0.28,0.12-0.28,0.12
		l-0.02,0.06l-0.27,0.18c-0.04,0.01-0.29-0.02-0.47,0.04c-0.18,0.07-0.27,0.18-0.38,0.23c-0.11,0.06-0.21,0.08-0.21,0.08
		s-0.04-0.03-0.08,0.01c-0.04,0.05-0.13-0.01-0.16,0.04s-0.04,0.08,0.03,0.15c0.06,0.06,0.22,0.29,0.28,0.39
		C16.38,23.67,16.41,23.68,16.44,23.68z"/>
	<path class="st1" d="M20.42,19.9c-0.07,0.01-0.08,0.11-0.08,0.11s0-0.13,0-0.16c0-0.03-0.04-0.09-0.1-0.07
		c-0.06,0.02-0.05,0.07-0.07,0.12c-0.02,0.05-0.14,0.14-0.22,0.16c-0.08,0.02-0.04,0.07-0.04,0.07s-0.08,0-0.11-0.01
		c-0.03-0.01-0.51-0.26-0.62-0.34c-0.06-0.12-0.21-0.14-0.21-0.14l-0.18-0.13v-0.02l-0.21-0.14l-0.2-0.1l-0.06-0.08l-0.14-0.05
		v-0.05l-0.01-0.02c0,0,0.01-0.06-0.07-0.14c0-0.05-0.03-0.1-0.03-0.1s0.01-0.04-0.06-0.23c0.07-0.22-0.06-0.38-0.09-0.43
		c-0.01-0.01-0.01-0.02-0.01-0.03l0.01-0.06c0-0.01,0-0.02-0.01-0.02l-0.02-0.02l0.01-0.08l0.09,0c0,0,0.01,0,0.01,0l0.02-0.01
		c0.01,0,0.01-0.01,0.01-0.02l-0.01-0.03c0,0,0-0.01,0-0.01l0.01-0.02c0-0.01,0-0.01,0-0.02c0-0.01,0-0.02,0-0.02l0,0
		c0,0,0.01-0.01,0-0.02l0-0.02c0-0.01,0-0.01,0.01-0.02l0.02-0.02c0.01-0.01,0.01-0.02,0-0.03l-0.04-0.06c0-0.01,0-0.01,0-0.02
		l0.01-0.03c0,0,0-0.01,0-0.01c0-0.01-0.01-0.04-0.04-0.1c0.04-0.03,0.03-0.09-0.02-0.15c-0.01,0.03-0.07,0.03-0.2-0.01
		c-0.13-0.03-0.2,0.07-0.2,0.08c0,0.01-0.08,0.07-0.08,0.18c0,0.11,0.07,0.18,0.07,0.18l0.01,0.12l0.01-0.01v0.03
		c-0.13,0.08-0.13,0.1-0.17,0.26c-0.06,0.12-0.1,0.21-0.1,0.3c0,0.1-0.03,0.13-0.04,0.23c-0.01,0.1-0.09,0.22-0.09,0.32
		c0,0.1,0.01,0.35,0.01,0.35h-0.18h-0.29v0.22h0.35v0.42h-0.18h-0.07c-0.04,0-0.07,0.03-0.07,0.07v0.07v0.47h0.13v-0.48h0.54v0.48
		h0.13v-0.47v-0.07c0-0.04-0.03-0.07-0.07-0.07h-0.07h-0.21v-0.42h0.42v-0.11c0-0.01,0-0.02,0-0.04v-0.08l-0.07-0.03l-0.09-0.02
		c0-0.04,0.01-0.08,0.02-0.14c0.01-0.07,0.05-0.09,0.1-0.23c0.06,0.06,0.13,0.26,0.13,0.26l-0.01,0.02l0.01,0.05
		c-0.02,0.28,0.19,0.42,0.33,0.48c0.13,0.06,0.34,0.23,0.34,0.23l0.11-0.11c0.08,0.04,0.41,0.1,0.41,0.1s0,0,0.17,0.12
		c0.17,0.12,0.23,0.12,0.44,0.18c0.22,0.07,0.38,0.15,0.38,0.15s0,0.04,0.02,0.05c0.02,0.02,0.16,0.12,0.16,0.12
		c0.08,0.03,0.14-0.06,0.19-0.15c-0.01-0.04,0.01-0.07,0.06-0.1c0.13-0.14,0.15-0.32,0.15-0.35S20.48,19.89,20.42,19.9z
		 M17.36,19.22v0.13h-0.03L17.36,19.22z"/>
	<path class="st1" d="M15.54,20c-0.09-0.01-0.16-0.1-0.2-0.14c-0.07-0.09-0.11-0.07-0.11-0.07s-0.04-0.11-0.02-0.33
		c0.02-0.22,0-0.41,0-0.41c0.02,0.02,0.04,0,0.04,0l-0.01-0.11c-0.02-0.06,0-0.12,0-0.12v-0.03l-0.03-0.05c0,0-0.06-0.04-0.09-0.1
		c-0.07-0.15-0.18-0.2-0.24-0.21c-0.05-0.02-0.13-0.09-0.23-0.2c-0.03-0.1-0.08-0.18-0.08-0.18c0.01-0.04,0.06-0.17,0.06-0.17
		c0.12,0,0.12-0.03,0.12-0.04c0-0.01,0-0.04,0-0.05c0,0,0,0,0-0.01l0.01-0.02l0-0.01l0.01-0.01l0-0.03c0-0.01,0-0.01,0.01-0.02
		c0.01,0,0.01-0.02,0.01-0.02l-0.04-0.07c0,0,0-0.01,0-0.01l0.01-0.02c0,0,0-0.01,0-0.01l-0.03-0.09l0.04-0.07
		c0,0-0.02,0.01-0.08-0.02c-0.19-0.1-0.34-0.06-0.38,0.02c-0.06,0.02-0.11,0.11-0.1,0.2c0.01,0.1,0.09,0.2,0.09,0.2
		s0.04,0.09-0.05,0.14c-0.09,0.04-0.15,0.13-0.19,0.22c-0.04,0.09-0.1,0.15-0.04,0.35c0,0.29-0.11,0.37-0.11,0.37v0.04
		c-0.13,0.07-0.15,0.16-0.15,0.16s0,0-0.03,0.02c-0.04,0.11,0,0.25,0,0.25s-0.23,0.18-0.28,0.22c0,0,0.02,0.04,0.05,0.08
		c-0.09,0.1-0.19,0.21-0.23,0.23c-0.08,0.02-0.3-0.08-0.5-0.02c-0.2,0.06-0.42,0.04-0.42,0.04l-0.01-0.02l-0.09-0.15
		c-0.01-0.01-0.03-0.02-0.04-0.01l-0.18,0.12l-0.02,0.06c0,0-0.03,0-0.19,0.12c-0.17,0.12-0.14,0.18-0.14,0.18s0.5,0.01,0.55,0
		c0.05-0.01,0.03-0.06,0.03-0.06s0.18-0.04,0.27-0.04c0.09,0,0.33,0.05,0.45,0.04c0.11-0.01,0.18,0.01,0.3,0.04
		c0.12,0.03,0.19-0.02,0.19-0.02c0.14-0.09,0.25-0.17,0.34-0.23c0.03,0.04,0.06,0.07,0.09,0.07c0.07-0.01,0.09-0.1,0.19-0.32l0,0
		c0,0,0,0,0-0.01c0.01-0.02,0.02-0.04,0.03-0.05c0.01-0.01,0.01-0.01,0.02-0.02c0.05-0.03,0.16-0.12,0.16-0.12l0.06-0.01l0.03,0.01
		l0.04-0.03c0,0,0.02,0,0.06-0.02c0.18-0.01,0.38-0.03,0.38-0.05c0.01-0.03,0.01-0.15,0-0.22c0.04-0.02,0.06-0.03,0.06-0.03
		s-0.03,0.22,0.04,0.36C15.04,19.59,15,19.9,15,19.9c-0.03-0.03-0.05-0.01-0.05-0.01l-0.02,0.2c0,0.02,0.01,0.04,0.03,0.05
		c0.05,0.01,0.14,0.02,0.21,0.01c0.05-0.05,0.09-0.01,0.13,0s0.35,0.01,0.36-0.04C15.67,20.02,15.62,20.01,15.54,20z M14.79,18.74
		L14.79,18.74l-0.06-0.03l-0.16,0.1l0.08-0.1c0,0,0.01-0.12,0.04-0.18c0.12,0.1,0.24,0.19,0.24,0.19S14.86,18.74,14.79,18.74z"/>
	<path class="st1" d="M25.22,17.81c0-0.12-0.08-0.25-0.21-0.24c-0.12,0-0.27,0.11-0.27,0.11s0,0-0.04,0.04
		c-0.04,0-0.14,0.01-0.14,0.01c-0.2-0.16-0.43-0.23-0.56-0.2c-0.13,0.03-0.3,0.11-0.52,0.12c-0.26-0.21-0.49-0.1-0.71-0.03
		s-0.62,0.14-0.62,0.14c-0.14-0.08-0.32-0.14-0.48-0.18l-0.21-0.11l-0.1,0.04c-0.03-0.01-0.05-0.01-0.05-0.01s-0.14-0.11-0.17-0.14
		c-0.03-0.03-0.1-0.08-0.17-0.03s-0.14,0.3-0.14,0.3s-0.08,0.06-0.14,0.22c-0.03,0.13,0.01,0.19,0.05,0.21
		c-0.13,0.15-0.21,0.34-0.21,0.56c0,0.47,0.38,0.86,0.86,0.86c0.47,0,0.86-0.38,0.86-0.86c0-0.14-0.03-0.27-0.09-0.38
		c0.29,0.04,0.6,0.04,0.7,0.04c0.14,0,0.4-0.09,0.4-0.09l0.08-0.07c0.11,0.1,0.38,0.11,0.38,0.11s0.23,0.03,0.31-0.01l0.06,0.06
		c0,0-0.02,0.16,0.04,0.43c0,0.26,0.03,0.5,0.05,0.6c0,0.03,0.03,0.05,0.05,0.07l0.02,0.01l0.07,0.22c0.01,0.04,0.05,0.07,0.09,0.07
		l0.07,0l0.1,0.02h0.22L24.8,19.6l-0.09-0.04l-0.12-0.05h-0.15l0-0.11l0.09-0.04c0.01,0,0.02-0.01,0.03,0l0.11,0.01v-0.03
		l-0.03-0.02c-0.01-0.01-0.02-0.01-0.02-0.02l0-0.01c-0.01-0.02-0.03-0.03-0.05-0.03h-0.11c0,0,0,0,0.02-0.16
		c0.02-0.16,0.01-0.29,0.01-0.29s0.03-0.26,0.02-0.42c0.11-0.14,0.09-0.32,0.09-0.32l0.09,0.02l0.03,0.07
		c0.01,0.02,0.03,0.03,0.05,0.03l0.09-0.02c0.01,0,0.01,0,0.02,0l0.07,0.02c0.01,0,0.03,0,0.03-0.02l0.02-0.04
		c0.01-0.02,0.02-0.03,0.04-0.03h0.04l0.05-0.06c0,0,0.05,0.02,0.09,0.03C25.17,18.04,25.22,17.93,25.22,17.81z M20.99,17.87
		l0.17-0.12l0.14,0.06C21.3,17.81,21.17,17.79,20.99,17.87z"/>
	<path class="st1" d="M14.42,14.56c-0.01-0.03-0.04-0.06-0.07-0.07l-0.08-0.02l-0.01-0.03l-0.06-0.02c0,0-0.03-0.52-0.05-0.61
		c0-0.01,0-0.02-0.01-0.04c-0.01-0.11-0.03-0.23-0.05-0.38c0.05-0.27-0.01-0.4-0.08-0.46c-0.04-0.05-0.08-0.05-0.08-0.05s0,0-0.01,0
		c-0.01,0-0.01,0-0.01,0c-0.01,0-0.03-0.01-0.04-0.01l-0.1-0.09c0-0.05,0-0.11,0-0.11s0.05,0,0.09-0.01
		c0.02-0.02,0.04-0.21,0.04-0.21v-0.06l0.03-0.06l-0.02-0.1l0.05-0.08l-0.04,0l0.03-0.04c-0.06-0.01-0.11-0.11-0.19-0.09
		c-0.15-0.02-0.29,0.04-0.29,0.04s0,0,0.04,0c-0.18,0.13-0.08,0.34-0.08,0.34l0.06,0.1l0.01,0.04l0.03,0.01l-0.02,0.1
		c0,0.01-0.13,0.1-0.29,0.2c0,0-0.24,0.03-0.24,0.34c0.01,0.3,0.05,0.6,0.05,0.6s-0.05,0.3,0.03,0.69h-0.04
		c-0.02,0-0.04,0.01-0.05,0.02l-0.04,0.04c-0.02,0.02-0.02,0.05-0.01,0.07l0.01,0.03c0.01,0.02,0.03,0.04,0.05,0.04l0.05,0.01
		c0.02,0,0.05,0,0.07-0.02l0.08,0.04l-0.06,0.35c0,0,0.02,0.01,0.1,0.02c0.03,0.12-0.05,0.34-0.05,0.34s-0.09,0.14-0.1,0.29
		c-0.01,0.15,0.02,0.48,0.02,0.63c-0.05,0.01-0.07,0.07-0.07,0.1c0,0.03-0.03,0.14-0.05,0.18c-0.02,0.04,0.03,0.07,0.09,0.09
		c0.02,0.08,0.18,0.08,0.18,0.08h0.11c0.02,0,0.04-0.02,0.04-0.04c0-0.03,0-0.07-0.01-0.1c-0.01-0.02-0.04-0.06-0.07-0.11
		c0-0.02-0.01-0.05-0.01-0.09c0-0.03-0.01-0.05-0.04-0.07c-0.01-0.04-0.03-0.07-0.03-0.07s-0.01-0.07,0.04-0.25
		c0.06-0.19,0.05-0.32,0.12-0.56c0.1-0.03,0.16-0.41,0.16-0.41l0.05-0.01l0.05-0.08l0.01,0.06c0,0.09,0.02,0.33,0.02,0.33
		s-0.06,0.27-0.02,0.37c0.03,0.1,0.06,0.3,0.03,0.49c-0.08-0.01-0.07,0.19-0.07,0.19l0,0.02c0,0.03,0.01,0.07,0.05,0.08
		c0.03,0.01,0.08,0.03,0.11,0.03c0.06-0.02,0.06,0,0.15,0.04c0.2,0.04,0.3,0,0.32-0.02c0.01-0.02,0.01-0.06-0.05-0.1
		c-0.03-0.02-0.08-0.05-0.13-0.08h0c0,0-0.09-0.13-0.11-0.19c-0.01-0.02-0.03-0.02-0.06,0c0-0.1,0.01-0.28,0.02-0.33
		c0-0.04,0.04-0.23,0.03-0.44c0.04-0.13,0.03-0.2,0.03-0.2s0-0.04,0.01-0.2c0.09-0.01,0.17-0.04,0.17-0.04l-0.07-0.42l0.09,0l0,0.01
		c0.01,0.03,0.04,0.06,0.07,0.07l0.02,0.01c0.04,0.01,0.09,0,0.11-0.04l0.01-0.02C14.42,14.64,14.43,14.6,14.42,14.56z M13.29,14
		l-0.04,0.07c0,0,0,0,0,0.08c-0.06,0.06-0.06,0.29-0.06,0.29s-0.03,0-0.05-0.27c0.06-0.17,0.07-0.4,0.07-0.44
		c0-0.04,0.03-0.15,0.03-0.15s0,0.06,0.07,0.19C13.29,13.86,13.29,14,13.29,14z M13.99,14.19v-0.05l-0.03-0.04
		c0.03-0.09,0-0.19,0-0.19c0.05,0.14,0.08,0.47,0.08,0.47L13.99,14.19z"/>
	<path class="st1" d="M24.53,13.04c0-0.02-0.02-0.03-0.03-0.03h-0.04l0-0.05c0,0,0.04-0.02,0.04-0.05c0-0.03,0-0.16-0.03-0.16
		c-0.02-0.01-0.04-0.01-0.04-0.01l-0.01-0.02l0.03-0.01c0.02,0,0.03-0.02,0.03-0.04l-0.01-0.09c0-0.02-0.02-0.03-0.04-0.03
		l-0.13,0.02c-0.02,0-0.03,0.02-0.03,0.04l0.02,0.09c0,0.02,0.02,0.03,0.03,0.03l0.01,0v0.02c0,0-0.04,0.01-0.04,0.02
		c0,0.02-0.01,0.06-0.03,0.08c-0.01,0.01-0.2,0.07-0.28,0.07c-0.08,0-0.24,0.01-0.33,0.05c0,0-0.01-0.06-0.24-0.07
		c-0.1-0.1-0.21-0.1-0.27-0.09c-0.02,0-0.04,0.01-0.05,0.01c-0.01,0-0.02,0.01-0.02,0.01l-0.03,0l0.01-0.16c0,0,0.11-0.01,0.12-0.03
		c0.01-0.02,0.03-0.22,0.03-0.22l-0.01-0.04l0.02-0.05l-0.01-0.11l0.05-0.05l-0.05-0.06l0.05-0.03c0,0-0.07-0.1-0.22-0.07
		c-0.15,0.03-0.27,0-0.27,0l0.05,0.03c0,0-0.13,0.04-0.11,0.22c0.01,0.15,0.08,0.26,0.08,0.26l0.02,0.02c0,0-0.04,0.14-0.09,0.17
		l-0.11,0.05c0,0-0.16-0.11-0.37,0.02C22.11,12.72,22,12.78,22,12.78c-0.16-0.12-0.21-0.13-0.25-0.15
		c-0.04-0.02-0.16-0.11-0.16-0.11v-0.19l0.03-0.01c0.01-0.01,0.02-0.02,0.02-0.03l0.02-0.09c0-0.02-0.01-0.04-0.03-0.05l-0.16-0.06
		c-0.02-0.01-0.05,0-0.05,0.02l-0.04,0.1c-0.01,0.02,0,0.04,0.02,0.05l0.05,0.03l-0.01,0.03c0,0-0.06-0.02-0.07,0
		c-0.01,0.02-0.01,0.04-0.01,0.04s-0.04,0.02-0.03,0.05c0,0-0.03,0.03,0,0.06c-0.03,0.04-0.05,0.06,0.04,0.12l-0.01,0.03l-0.05-0.01
		c-0.02,0-0.04,0.01-0.05,0.03l-0.03,0.1c-0.01,0.02,0,0.04,0.02,0.05l0.18,0.07c0.02,0.01,0.05,0,0.05-0.03l0.05-0.13
		c0,0,0.1,0.11,0.12,0.14c0.02,0.03,0.13,0.12,0.27,0.13c0.21,0.06,0.26,0.14,0.43,0.1c0.05-0.02,0.12,0.11,0.13,0.2
		c0.01,0.09,0.1,0.32,0.1,0.32s0.03,0.13,0.03,0.21c0,0.08-0.07,0.22-0.07,0.22l-0.01,0.07l-0.04,0.1c0,0-0.12,0.79-0.11,0.89
		l0.13,0.02c0,0-0.02,0.19-0.05,0.29c-0.03,0.1-0.14,0.22-0.14,0.33c0,0.11,0.03,0.56,0.01,0.64c-0.05,0-0.07,0.02-0.07,0.11
		c-0.01,0.06-0.01,0.16-0.01,0.2c0,0.02,0.01,0.03,0.02,0.03l0.04,0.01c0,0-0.01,0.06,0.07,0.08c0.07,0.02,0.26,0.01,0.29-0.01
		c0.03-0.03-0.03-0.18-0.09-0.2c-0.02-0.1-0.03-0.11-0.03-0.11s0.03-0.12-0.03-0.12c0,0-0.03-0.14,0.03-0.29
		c0.06-0.15,0.09-0.37,0.09-0.44c0.1-0.19,0.11-0.23,0.11-0.23s0.09-0.14,0.08-0.29c0.06-0.02,0.06-0.02,0.06-0.02v-0.04
		c0,0,0.05-0.01,0.06,0.02c0.01,0.03,0,0.19,0.03,0.3c-0.03,0.19-0.07,0.38-0.02,0.52c0.03,0.1-0.02,0.39-0.02,0.39
		s-0.04-0.02-0.06,0.02c-0.01,0.04-0.01,0.26-0.01,0.26c0.01,0.02,0.1,0.07,0.2,0.04c0.1-0.01,0.07,0.05,0.18,0.06
		c0.11,0.01,0.26-0.04,0.27-0.06c0-0.04-0.01-0.07-0.06-0.09c-0.05-0.01-0.12-0.05-0.19-0.15c-0.06-0.09-0.07-0.13-0.11-0.14
		c0,0,0-0.19,0.06-0.42c0.06-0.23,0.01-0.38,0.01-0.38s0.05-0.08,0.04-0.18l0.01-0.18l0.13-0.03c0,0-0.11-0.76-0.17-0.9l0.01-0.07
		l-0.01-0.05c0,0,0.01-0.15-0.01-0.28c0.02-0.21,0-0.34,0-0.34s0.06-0.13,0.06-0.26c0.14,0.06,0.43,0.02,0.43,0.02s0.12,0,0.2-0.02
		c0.08-0.03,0.36-0.14,0.36-0.14h0.08v0.02l0,0c-0.02,0.01-0.03,0.02-0.02,0.04l0.01,0.07c0,0.02,0.02,0.03,0.04,0.03l0.11-0.01
		c0.02,0,0.03-0.02,0.03-0.04L24.53,13.04z"/>
</g>
</svg>
