<?xml version="1.0" encoding="utf-8"?>
<!-- Generator: Adobe Illustrator 25.2.3, SVG Export Plug-In . SVG Version: 6.00 Build 0)  -->
<svg version="1.1" id="Layer_1" xmlns="http://www.w3.org/2000/svg" xmlns:xlink="http://www.w3.org/1999/xlink" x="0px" y="0px"
	 viewBox="0 0 36 36" style="enable-background:new 0 0 36 36;" xml:space="preserve">
<style type="text/css">
	.st0{fill:#7B6929;}
</style>
<g>
	<g>
		<path class="st0" d="M13.01,20.06c-3.34,0-6.16-2.2-6.16-4.81c0-2.61,2.82-4.81,6.16-4.81c2.29,0,3.94,0.54,6.03,1.22
			c1.24,0.41,2.65,0.86,4.43,1.28c0.14,0.03,0.24,0.16,0.24,0.3v4.02c0,0.14-0.09,0.26-0.22,0.3c-0.76,0.22-1.55,0.48-2.39,0.75
			C18.6,19.13,15.78,20.06,13.01,20.06z M13.01,11.05c-3.01,0-5.55,1.92-5.55,4.19c0,2.27,2.54,4.19,5.55,4.19
			c2.67,0,5.45-0.91,7.9-1.72c0.76-0.25,1.48-0.49,2.19-0.7v-3.55c-1.69-0.4-3.04-0.85-4.24-1.24
			C16.81,11.58,15.2,11.05,13.01,11.05z"/>
	</g>
	<g>
		<path class="st0" d="M12.71,17.57c-1.61,0-2.91-1.04-2.91-2.33s1.31-2.33,2.91-2.33c1.61,0,2.91,1.04,2.91,2.33
			S14.32,17.57,12.71,17.57z M12.71,13.54c-1.27,0-2.3,0.77-2.3,1.71c0,0.94,1.03,1.71,2.3,1.71s2.3-0.77,2.3-1.71
			C15.01,14.3,13.98,13.54,12.71,13.54z"/>
	</g>
	<g>
		<path class="st0" d="M15.33,27.16h-2.24c-0.43,0-0.85-0.4-0.94-0.92l-1.25-6.68c-0.02-0.1,0.02-0.21,0.09-0.28
			c0.08-0.07,0.18-0.1,0.29-0.07c1.02,0.27,2.06,0.27,3.19,0.14c0.17-0.02,0.31,0.09,0.34,0.25l1.22,6.53
			c0.06,0.3-0.01,0.58-0.17,0.78C15.72,27.08,15.53,27.16,15.33,27.16z M11.58,19.92l1.16,6.22c0.05,0.25,0.24,0.41,0.34,0.41h2.24
			c0.02,0,0.03,0,0.05-0.03c0.03-0.04,0.07-0.14,0.04-0.28L14.25,20C13.31,20.08,12.44,20.09,11.58,19.92z"/>
	</g>
	<g>
		<path class="st0" d="M30.19,17.93c-0.49,0-0.85-0.16-1.18-0.3c-0.52-0.23-0.97-0.42-1.95,0.01c-0.16,0.07-0.34,0-0.4-0.16
			c-0.07-0.16,0-0.34,0.16-0.4c1.22-0.54,1.87-0.26,2.44-0.01c0.52,0.23,0.97,0.42,1.94,0.01c0.16-0.07,0.34,0.01,0.4,0.16
			c0.07,0.16-0.01,0.34-0.16,0.4C30.94,17.85,30.54,17.93,30.19,17.93z M30.19,15.83c-0.49,0-0.85-0.16-1.18-0.3
			c-0.52-0.23-0.97-0.42-1.95,0.01c-0.16,0.07-0.34,0-0.4-0.16c-0.07-0.16,0-0.34,0.16-0.41c1.22-0.54,1.87-0.26,2.44-0.01
			c0.52,0.23,0.97,0.42,1.94,0.01c0.16-0.07,0.34,0.01,0.4,0.16c0.07,0.16-0.01,0.34-0.16,0.4C30.94,15.75,30.54,15.83,30.19,15.83z
			 M30.19,13.73c-0.49,0-0.85-0.16-1.18-0.3c-0.52-0.23-0.97-0.42-1.95,0.01c-0.16,0.07-0.34,0-0.4-0.16
			c-0.07-0.16,0-0.34,0.16-0.41c1.22-0.54,1.87-0.26,2.44-0.01c0.52,0.23,0.97,0.42,1.94,0.01c0.16-0.07,0.34,0.01,0.4,0.16
			c0.07,0.16-0.01,0.34-0.16,0.4C30.94,13.66,30.54,13.73,30.19,13.73z"/>
	</g>
	<g>
		<path class="st0" d="M24.98,18.01c-0.35,0-0.67-0.14-0.95-0.26c-0.23-0.1-0.44-0.19-0.61-0.18c-0.08,0-0.17-0.03-0.22-0.08
			c-0.06-0.06-0.11-0.14-0.11-0.22v-4.02c0-0.08,0.03-0.16,0.1-0.22c0.06-0.06,0.14-0.09,0.23-0.08c0,0,0,0,0,0
			c0.19,0,0.4-0.09,0.62-0.18c0.28-0.12,0.6-0.26,0.95-0.26c0.17,0,0.31,0.14,0.31,0.31v4.9C25.29,17.87,25.15,18.01,24.98,18.01z
			 M23.7,16.98c0.2,0.04,0.39,0.12,0.57,0.2c0.14,0.06,0.27,0.12,0.4,0.15v-4.18c-0.13,0.04-0.26,0.1-0.4,0.15
			c-0.19,0.08-0.38,0.16-0.57,0.2V16.98z"/>
	</g>
	<g>
		<path class="st0" d="M11.4,17.3c-0.04,0-0.09-0.01-0.13-0.03c-0.91-0.41-1.48-1.19-1.48-2.03c0-0.84,0.57-1.62,1.48-2.03
			c0.1-0.04,0.21-0.03,0.29,0.02c0.09,0.06,0.14,0.15,0.14,0.26V17c0,0.1-0.05,0.2-0.14,0.26C11.52,17.29,11.46,17.3,11.4,17.3z
			 M11.1,14.03c-0.43,0.32-0.68,0.76-0.68,1.22c0,0.46,0.25,0.9,0.68,1.22V14.03z"/>
	</g>
	<g>
		<path class="st0" d="M12.7,17.57C12.7,17.57,12.7,17.57,12.7,17.57c-0.5,0-0.99-0.1-1.43-0.3c-0.11-0.05-0.18-0.16-0.18-0.28V13.5
			c0-0.12,0.07-0.23,0.18-0.28c0.43-0.19,0.92-0.3,1.42-0.3c0,0,0,0,0,0c0.08,0,0.16,0.03,0.22,0.09c0.06,0.06,0.09,0.14,0.09,0.22
			v4.04c0,0.08-0.03,0.16-0.09,0.22C12.86,17.54,12.79,17.57,12.7,17.57z M11.71,16.79c0.22,0.08,0.45,0.13,0.68,0.16v-3.39
			c-0.24,0.02-0.47,0.08-0.68,0.16V16.79z"/>
	</g>
	<g>
		<path class="st0" d="M12.71,17.57C12.71,17.57,12.71,17.57,12.71,17.57l-0.01,0c-0.17,0-0.3-0.14-0.3-0.31v-4.04
			c0-0.17,0.14-0.31,0.31-0.31c0.5,0,0.99,0.1,1.42,0.29c0.11,0.05,0.18,0.16,0.18,0.28V17c0,0.12-0.07,0.23-0.18,0.28
			C13.7,17.47,13.21,17.57,12.71,17.57z M13.01,13.55v3.39c0.24-0.02,0.47-0.07,0.68-0.15V13.7C13.48,13.63,13.25,13.57,13.01,13.55
			z"/>
	</g>
	<g>
		<path class="st0" d="M14,17.31c-0.06,0-0.12-0.02-0.17-0.05C13.75,17.2,13.7,17.11,13.7,17V13.5c0-0.1,0.05-0.2,0.14-0.26
			c0.09-0.06,0.2-0.07,0.29-0.02c0.83,0.37,1.38,1.04,1.48,1.8c0,0.01,0,0.03,0,0.04v0.39c0,0.01,0,0.03,0,0.04
			c-0.09,0.76-0.65,1.43-1.48,1.8C14.09,17.3,14.05,17.31,14,17.31z M14.31,14.02v2.45c0.38-0.28,0.63-0.65,0.68-1.05v-0.35
			C14.94,14.67,14.69,14.3,14.31,14.02z"/>
	</g>
	<g>
		<path class="st0" d="M15.46,25.62c-1.32,0-2.39-1.04-2.39-2.33c0-1.01,0.66-1.9,1.65-2.21c0.08-0.03,0.17-0.02,0.25,0.03
			c0.08,0.05,0.13,0.12,0.14,0.21l0.73,3.94c0.02,0.09-0.01,0.18-0.06,0.25c-0.06,0.07-0.14,0.11-0.23,0.12
			C15.53,25.62,15.5,25.62,15.46,25.62z M14.59,21.81c-0.55,0.3-0.9,0.86-0.9,1.49c0,0.85,0.65,1.56,1.49,1.69L14.59,21.81z"/>
	</g>
</g>
</svg>
