<?xml version="1.0" encoding="utf-8"?>
<!-- Generator: Adobe Illustrator 25.2.3, SVG Export Plug-In . SVG Version: 6.00 Build 0)  -->
<svg version="1.1" id="Layer_1" xmlns="http://www.w3.org/2000/svg" xmlns:xlink="http://www.w3.org/1999/xlink" x="0px" y="0px"
	 viewBox="0 0 36 36" style="enable-background:new 0 0 36 36;" xml:space="preserve">
<style type="text/css">
	.st0{fill:#7B6929;}
</style>
<path class="st0" d="M18.52,4.06c0.03,0.03,0.05,0.06,0.08,0.08C19,4.64,19,4.64,18.48,5c-0.63,0.42-0.68,0.94-0.14,1.47
	c0.33,0.32,0.66,0.64,0.75,1.12c0.11,0.63-0.08,1.15-0.57,1.56c-0.18,0.15-0.39,0.26-0.58,0.4c-0.08,0.06-0.12,0.05-0.19-0.03
	c-0.39-0.5-0.39-0.5,0.13-0.85c0.61-0.4,0.66-0.94,0.14-1.45c-0.33-0.33-0.67-0.65-0.76-1.14C17.15,5.5,17.31,5,17.73,4.61
	c0.21-0.19,0.46-0.33,0.69-0.49C18.45,4.1,18.48,4.09,18.52,4.06z"/>
<path class="st0" d="M12.91,11.48c-0.05,0.02-0.07-0.02-0.08-0.04c-0.11-0.16-0.22-0.33-0.33-0.49c-0.06-0.09,0.01-0.11,0.06-0.14
	c0.16-0.11,0.33-0.21,0.49-0.33c0.45-0.32,0.5-0.87,0.12-1.27c-0.15-0.15-0.3-0.3-0.45-0.46c-0.66-0.72-0.57-1.78,0.22-2.37
	C13,6.34,13.06,6.3,13.12,6.27c0.16-0.09,0.31-0.31,0.47-0.27c0.13,0.04,0.2,0.28,0.32,0.42c0.1,0.12,0.09,0.19-0.05,0.27
	c-0.15,0.09-0.29,0.19-0.43,0.29c-0.46,0.32-0.51,0.88-0.12,1.29c0.14,0.15,0.29,0.29,0.43,0.44c0.68,0.73,0.57,1.82-0.24,2.4
	c-0.16,0.11-0.33,0.22-0.49,0.33C12.97,11.45,12.94,11.47,12.91,11.48z"/>
<path class="st0" d="M23.83,5.96c0.03,0.03,0.05,0.06,0.08,0.08c0.41,0.49,0.41,0.49-0.11,0.85c-0.62,0.42-0.68,0.94-0.14,1.47
	c0.33,0.32,0.66,0.64,0.74,1.12c0.11,0.63-0.08,1.15-0.57,1.56c-0.18,0.15-0.39,0.26-0.58,0.4c-0.08,0.06-0.14,0.06-0.18-0.03
	c0-0.01-0.01-0.01-0.01-0.02c-0.36-0.49-0.36-0.49,0.14-0.82c0.61-0.4,0.66-0.94,0.14-1.45c-0.33-0.33-0.67-0.65-0.76-1.14
	c-0.1-0.58,0.06-1.07,0.48-1.46c0.21-0.19,0.46-0.33,0.69-0.49C23.76,6,23.79,5.99,23.83,5.96z"/>
<path class="st0" d="M30.13,16.31c0-0.63-0.23-1.11-0.68-1.52c-0.58-0.53-1.28-0.86-2.01-1.13c-2.32-0.85-4.75-1.14-7.2-1.28
	c-1.68-0.09-3.37-0.06-5.04,0.09c-1.78,0.16-3.54,0.42-5.25,0.96c-0.88,0.28-1.74,0.62-2.48,1.19c-0.58,0.45-0.9,1.01-0.88,1.79
	c0.04,1.17,0.01,2.34,0.01,3.51c0,1.2,0.02,2.4-0.01,3.6c-0.01,0.64,0.23,1.13,0.69,1.54c0.69,0.62,1.52,0.97,2.39,1.26
	c2.21,0.74,4.49,1.01,6.8,1.14c2.14,0.12,4.28,0.04,6.41-0.23c1.47-0.19,2.93-0.46,4.33-0.96c0.81-0.28,1.58-0.63,2.23-1.21
	c0.46-0.41,0.69-0.91,0.69-1.54C30.11,21.12,30.11,18.72,30.13,16.31z M8.87,25.12c0,0.01-0.01,0.03-0.02,0.06
	c-0.45-0.21-0.87-0.45-1.2-0.81c-0.2-0.22-0.3-0.47-0.3-0.77c0.01-1.94,0-3.87,0-5.81c0-0.07,0-0.14,0-0.25
	c0.45,0.36,0.89,0.63,1.38,0.83c0.1,0.04,0.14,0.09,0.14,0.2C8.87,20.76,8.87,22.94,8.87,25.12z M11.15,25.28c0,0.06,0,0.13,0,0.19
	c0,0.52,0,0.52-0.51,0.37c-0.29-0.09-0.59-0.19-0.88-0.28c-0.09-0.03-0.13-0.07-0.13-0.18c0-2.2,0-4.41,0-6.64
	c0.48,0.15,0.94,0.3,1.41,0.4c0.16,0.03,0.11,0.15,0.11,0.24C11.15,21.34,11.15,23.31,11.15,25.28z M13.42,21.87
	c0,1.45,0,2.89,0,4.34c0,0.15,0,0.22-0.2,0.18c-0.38-0.09-0.78-0.14-1.16-0.21c-0.1-0.02-0.16-0.04-0.16-0.17c0-2.2,0-4.41,0-6.61
	c0-0.01,0.01-0.03,0.02-0.06c0.46,0.08,0.93,0.16,1.39,0.23c0.14,0.02,0.1,0.11,0.1,0.19C13.42,20.47,13.42,21.17,13.42,21.87z
	 M15.54,26.65c-0.39-0.05-0.78-0.09-1.18-0.12c-0.15-0.01-0.19-0.06-0.19-0.21c0.01-1.07,0-2.15,0-3.22s0-2.15,0-3.22
	c0-0.17,0.03-0.21,0.21-0.19c0.39,0.05,0.78,0.09,1.18,0.12c0.11,0.01,0.14,0.05,0.14,0.16c0,2.18,0,4.36,0,6.54
	C15.7,26.64,15.67,26.67,15.54,26.65z M17.98,25.88c0,0.24-0.01,0.47,0,0.71c0.01,0.14-0.04,0.17-0.17,0.17
	c-0.39-0.02-0.77-0.04-1.16-0.04c-0.16,0-0.19-0.05-0.19-0.2c0.01-1.07,0-2.15,0-3.22c0-1.07,0.01-2.13,0-3.2
	c0-0.18,0.05-0.22,0.22-0.21c0.36,0.03,0.73,0.04,1.09,0.04c0.18,0,0.22,0.05,0.22,0.22C17.97,22.05,17.98,23.96,17.98,25.88z
	 M20.04,26.72c-0.38,0-0.76,0.02-1.14,0.04c-0.13,0.01-0.17-0.03-0.17-0.17c0-2.17,0-4.33,0-6.5c0-0.13,0.04-0.17,0.17-0.17
	c0.39,0,0.77-0.02,1.16-0.04c0.16-0.01,0.19,0.04,0.19,0.19c-0.01,1.08,0,2.17,0,3.25c0,1.06,0,2.12,0,3.18
	C20.26,26.67,20.22,26.72,20.04,26.72z M22.53,19.97c0,2.11,0,4.22,0,6.32c0,0.16-0.01,0.24-0.2,0.25
	c-0.39,0.02-0.77,0.07-1.15,0.11c-0.11,0.01-0.17,0.01-0.17-0.14c0.01-2.18,0-4.36,0-6.54c0-0.06-0.03-0.14,0.09-0.15
	c0.49-0.04,0.97-0.09,1.47-0.14C22.52,19.79,22.53,19.88,22.53,19.97z M24.81,25.96c0,0.15-0.05,0.2-0.19,0.23
	c-0.44,0.07-0.87,0.15-1.33,0.24c0-0.1,0-0.17,0-0.24c0-2.12,0-4.25,0-6.37c0-0.18,0.06-0.24,0.23-0.26
	c0.37-0.05,0.73-0.12,1.1-0.18c0.13-0.02,0.2-0.03,0.2,0.16C24.81,21.67,24.81,23.81,24.81,25.96z M26.88,25.59
	c-0.43,0.13-0.85,0.28-1.31,0.38c0-0.09,0-0.16,0-0.23c0-2.12,0-4.24,0-6.35c0-0.17,0.04-0.24,0.22-0.28
	c0.43-0.1,0.85-0.23,1.3-0.36c0,0.6,0,1.18,0,1.76c0,1.6,0,3.19,0,4.79C27.09,25.47,27.04,25.54,26.88,25.59z M25.48,18.41
	c-2.34,0.57-4.72,0.75-7.15,0.76c-2.49-0.02-5-0.21-7.45-0.86c-0.92-0.24-1.83-0.55-2.64-1.06c-0.27-0.17-0.52-0.36-0.7-0.63
	c-0.23-0.34-0.24-0.64,0-0.99c0.24-0.35,0.58-0.58,0.94-0.78c1-0.55,2.08-0.86,3.18-1.1c3.03-0.66,6.1-0.78,9.19-0.58
	c2.02,0.13,4.02,0.41,5.95,1.05c0.67,0.22,1.31,0.49,1.89,0.91c0.21,0.15,0.4,0.33,0.54,0.55c0.18,0.29,0.18,0.58,0,0.87
	c-0.2,0.33-0.5,0.55-0.82,0.74C27.5,17.85,26.5,18.16,25.48,18.41z M29.36,23.64c0,0.27-0.1,0.49-0.27,0.69
	c-0.34,0.39-0.77,0.63-1.25,0.86c0-0.07,0-0.12,0-0.16c0-2.13,0-4.27,0-6.4c0-0.13,0.03-0.21,0.16-0.27
	c0.48-0.19,0.91-0.47,1.32-0.79c0.08,0.04,0.04,0.11,0.04,0.17C29.36,19.71,29.36,21.68,29.36,23.64z"/>
<path class="st0" d="M27.94,15.52c-0.19-0.19-0.41-0.32-0.64-0.44c-0.76-0.37-1.57-0.56-2.4-0.71c-2.16-0.39-4.35-0.5-6.44-0.53
	c-1.99,0.01-3.88,0.11-5.77,0.38c-0.97,0.14-1.93,0.32-2.85,0.66c-0.4,0.15-0.79,0.33-1.09,0.65c-0.35,0.37-0.35,0.81,0,1.18
	c0.14,0.14,0.3,0.26,0.47,0.36c0.66,0.37,1.39,0.56,2.12,0.71c1.95,0.41,3.93,0.55,5.91,0.6c2.29,0.06,4.57-0.05,6.83-0.37
	c0.95-0.13,1.88-0.31,2.78-0.65c0.39-0.15,0.77-0.32,1.07-0.63C28.32,16.36,28.32,15.9,27.94,15.52z M27.02,16.5
	c-0.86,0.39-1.78,0.57-2.71,0.72c-2.07,0.34-4.16,0.44-6.4,0.43c-1.83-0.03-3.8-0.12-5.75-0.47c-0.86-0.15-1.72-0.33-2.52-0.71
	c-0.16-0.07-0.37-0.14-0.37-0.33c0-0.2,0.22-0.27,0.38-0.35c0.8-0.38,1.66-0.56,2.52-0.71c2.58-0.44,5.18-0.53,7.79-0.44
	c1.72,0.05,3.44,0.2,5.13,0.54c0.66,0.13,1.32,0.29,1.94,0.58c0.17,0.08,0.43,0.15,0.42,0.37C27.44,16.35,27.19,16.42,27.02,16.5z"
	/>
</svg>
