<?xml version="1.0" encoding="utf-8"?>
<!-- Generator: Adobe Illustrator 25.2.3, SVG Export Plug-In . SVG Version: 6.00 Build 0)  -->
<svg version="1.1" id="Layer_1" xmlns="http://www.w3.org/2000/svg" xmlns:xlink="http://www.w3.org/1999/xlink" x="0px" y="0px"
	 viewBox="0 0 36 36" style="enable-background:new 0 0 36 36;" xml:space="preserve">
<style type="text/css">
	.st0{fill:#7B6929;}
</style>
<path class="st0" d="M28.58,13.32c-0.06-0.01-0.13-0.01-0.19-0.01c-0.81,0-1.62,0-2.43,0c-0.14,0-0.19-0.03-0.18-0.18
	c0.01-0.24,0-0.49,0-0.73c0-0.64,0-0.64-0.63-0.64c-0.17,0-0.2-0.05-0.2-0.21c-0.02-0.9-0.14-1.79-0.47-2.63
	c-0.25-0.63-0.6-1.18-1.19-1.56c-0.18-0.12-0.33-0.13-0.51-0.01c-0.61,0.39-0.97,0.96-1.22,1.62c-0.31,0.83-0.43,1.69-0.45,2.57
	c0,0.18-0.06,0.22-0.24,0.22c-0.62-0.01-1.25,0-1.87-0.01c-0.05,0-0.11,0.03-0.16-0.04c0.15-0.39,0.1-0.76-0.17-1.09
	c-0.05-0.06-0.05-0.1,0-0.16c0.28-0.35,0.33-0.74,0.12-1.15c-0.21-0.41-0.57-0.57-1.03-0.57c-1.72,0-3.45,0-5.17,0
	c-0.46,0-0.82,0.16-1.02,0.58c-0.2,0.4-0.15,0.79,0.13,1.15c0.03,0.04,0.08,0.06,0.03,0.12c-0.3,0.34-0.33,0.73-0.18,1.16
	c-0.44,0-0.86-0.01-1.29,0c-0.97,0.02-1.7,0.67-1.84,1.63c-0.06,0.39,0.06,0.52,0.46,0.52c0.92,0,1.84,0,2.76,0
	c0.15,0,0.25,0.05,0.34,0.17c1.53,2.07,3.06,4.14,4.6,6.2c0.12,0.16,0.12,0.25,0,0.41c-1.58,2.14-3.16,4.28-4.74,6.42
	c-0.15,0.21-0.14,0.37,0.01,0.49c0.15,0.12,0.32,0.07,0.47-0.13c0.29-0.4,0.59-0.8,0.88-1.2c1.29-1.76,2.59-3.51,3.89-5.29
	c0.65,0.87,1.28,1.72,1.91,2.58c0.96,1.3,1.92,2.59,2.88,3.89c0.14,0.19,0.31,0.23,0.46,0.13c0.16-0.11,0.17-0.29,0.03-0.49
	c-0.02-0.03-0.04-0.06-0.06-0.09c-1.57-2.12-3.14-4.24-4.72-6.36c-0.1-0.13-0.1-0.21,0-0.35c1.54-2.08,3.07-4.15,4.59-6.24
	c0.09-0.12,0.18-0.17,0.34-0.17c1.94,0,3.88,0,5.81,0c0.09,0,0.17,0,0.26-0.02c0.15-0.03,0.24-0.14,0.23-0.29
	C28.82,13.45,28.74,13.35,28.58,13.32z M22.2,8.99c0.16-0.37,0.38-0.7,0.69-0.98c0.11-0.09,0.18-0.09,0.29,0
	c0.47,0.42,0.72,0.97,0.89,1.56c0.19,0.66,0.26,1.33,0.29,2.02c0.01,0.14-0.04,0.17-0.17,0.17c-0.39-0.01-0.77,0-1.16,0
	c-0.39,0-0.79,0-1.18,0c-0.09,0-0.15-0.01-0.14-0.12C21.74,10.73,21.84,9.84,22.2,8.99z M12.56,9.36c0.88,0,1.76,0,2.64,0
	c0.84,0,1.68,0,2.52,0c0.07,0,0.14,0,0.21,0.01c0.21,0.03,0.37,0.2,0.39,0.4c0.02,0.2-0.11,0.4-0.31,0.46
	c-0.07,0.02-0.14,0.03-0.21,0.03c-1.73,0-3.47,0-5.2,0c-0.28,0-0.47-0.14-0.52-0.36C12.02,9.6,12.22,9.36,12.56,9.36z M17.98,11.74
	c-0.07,0.02-0.14,0.02-0.21,0.02c-1.72,0-3.43,0-5.15,0c-0.32,0-0.51-0.14-0.55-0.37c-0.04-0.3,0.15-0.52,0.48-0.52
	c0.67,0,1.34,0,2,0c0.22,0,0.43,0,0.65,0c0.87,0,1.74,0,2.61,0c0.28,0,0.46,0.14,0.51,0.37C18.36,11.46,18.21,11.68,17.98,11.74z
	 M17.1,19.98c-1.5-2.02-2.98-4.02-4.48-6.05c2.99,0,5.95,0,8.94,0C20.06,15.95,18.59,17.96,17.1,19.98z M25.18,12.6
	c-0.02,0.18-0.01,0.37,0,0.56c0.01,0.13-0.04,0.16-0.16,0.15c-0.5-0.01-1,0-1.51,0c-2.13,0-4.26,0-6.4,0c-2.61,0-5.23,0-7.84,0
	c-0.24,0-0.25,0-0.14-0.23c0.2-0.42,0.54-0.66,1-0.71c0.09-0.01,0.19-0.01,0.28-0.01c4.84,0,9.68,0,14.52,0
	C25.12,12.36,25.2,12.39,25.18,12.6z"/>
</svg>
