<?xml version="1.0" encoding="utf-8"?>
<!-- Generator: Adobe Illustrator 25.2.3, SVG Export Plug-In . SVG Version: 6.00 Build 0)  -->
<svg version="1.1" id="Layer_1" xmlns="http://www.w3.org/2000/svg" xmlns:xlink="http://www.w3.org/1999/xlink" x="0px" y="0px"
	 viewBox="0 0 36 36" style="enable-background:new 0 0 36 36;" xml:space="preserve">
<style type="text/css">
	.st0{fill:#7B6A29;}
</style>
<g>
	<path class="st0" d="M21.1,15.1c-0.1,0-0.3-0.1-0.4-0.1c-0.1,0.1-0.2,0.3-0.2,0.4c0.2,0.1,0.3,0.1,0.5,0.2l0.5,0.1
		c0.1-0.2,0.2-0.3,0.3-0.4L21.1,15.1z"/>
	<path class="st0" d="M25.3,16.7l-1.5-1.5c-0.6-0.6-1.5-0.6-2,0c0,0,0,0,0,0c0,0,0,0,0,0l0.7,0.2c0.1,0,0.2,0.2,0.2,0.3
		c0,0.1-0.2,0.2-0.3,0.2l-0.8-0.2c-0.2,0.5-0.1,1.1,0.3,1.6l1.5,1.5c0.6,0.6,1.5,0.6,2,0C25.9,18.2,25.9,17.3,25.3,16.7L25.3,16.7z
		 M24.2,18.4c-0.1,0.1-0.2,0.1-0.3,0l-1.7-1.7c-0.1-0.1-0.1-0.3,0-0.3c0.1-0.1,0.2-0.1,0.3,0l1.7,1.7C24.3,18.1,24.3,18.3,24.2,18.4
		z M24.9,17.6c-0.1,0.1-0.2,0.1-0.3,0l-1.7-1.7c-0.1-0.1-0.1-0.3,0-0.3c0.1-0.1,0.2-0.1,0.3,0l1.7,1.7C25,17.4,25,17.5,24.9,17.6z"
		/>
	<path class="st0" d="M17.6,13c-0.1,0-0.1,0-0.2,0c-0.7,0-1.2-0.5-1.2-1.2c0-0.7,0.5-1.2,1.2-1.2s1.2,0.5,1.2,1.2
		c0,0.4-0.2,0.8-0.6,1c0.7,0.9,1.6,1.6,2.6,2.1c0.3-0.5,0.4-1.1,0.4-1.7c-0.1-1.9-1.6-3.5-3.5-3.5c-2-0.1-3.7,1.5-3.8,3.5
		c-0.1,1.6,0.9,3.1,2.4,3.6c0.4,0.1,0.6,0.4,0.7,0.8c0,0.1,0.1,0.2,0.1,0.4v5.9c0,0.3,0.2,0.5,0.5,0.5h1.2c0.3,0,0.5-0.2,0.5-0.5
		c0-0.3-0.2-0.5-0.5-0.5h-0.7v-1h0.7c0.3,0,0.5-0.2,0.5-0.5c0-0.3-0.2-0.5-0.5-0.5h-0.7v-3.5c0-0.5,0.3-1,0.8-1.1
		c0.7-0.3,1.3-0.8,1.8-1.4C19.3,14.9,18.3,14.1,17.6,13z"/>
	<path class="st0" d="M21.4,14.1l0.4,0.7c0.1-0.1,0.3-0.2,0.4-0.2l-0.4-0.7c-0.2-0.3-0.3-0.6-0.5-0.8c0,0,0,0.1,0,0.1
		c0,0.2,0,0.5,0,0.7C21.3,14,21.4,14.1,21.4,14.1z"/>
</g>
</svg>
