<?xml version="1.0" encoding="utf-8"?>
<!-- Generator: Adobe Illustrator 25.2.3, SVG Export Plug-In . SVG Version: 6.00 Build 0)  -->
<svg version="1.1" id="Layer_1" xmlns="http://www.w3.org/2000/svg" xmlns:xlink="http://www.w3.org/1999/xlink" x="0px" y="0px"
	 viewBox="0 0 36 36" style="enable-background:new 0 0 36 36;" xml:space="preserve">
<style type="text/css">
	.st0{fill:#7B6929;}
	.st1{fill:#4C4C4C;}
	.st2{fill:#FDFDFD;}
</style>
<path class="st0" d="M7.81,8.6c0.08,0.03,0.04,0.09,0.04,0.14c0,6.14,0,12.27,0,18.41c0,0.1,0,0.2,0,0.3
	c-0.01,0.01-0.03,0.01-0.04,0C7.81,21.16,7.81,14.88,7.81,8.6z"/>
<path class="st1" d="M8.75,28.34c0.04-0.07,0.11-0.04,0.17-0.04c4.73,0,9.45,0,14.18,0c0.02,0,0.04,0.01,0.06,0.01
	c0,0.01,0,0.02-0.01,0.04C18.36,28.34,13.55,28.34,8.75,28.34z"/>
<path class="st2" d="M7.81,27.45c0.01-0.01,0.03,0,0.04,0c0.07,0.39,0.3,0.65,0.66,0.81c0.05,0.02,0.13,0.01,0.16,0.08
	c-0.26,0-0.51,0-0.77,0c-0.07,0-0.09-0.01-0.09-0.09C7.81,27.99,7.81,27.72,7.81,27.45z"/>
<path class="st0" d="M18.68,23.58c0,0.26-0.01,0.49,0,0.71c0.01,0.15-0.05,0.23-0.18,0.29c-2.78,1.48-6.25,0.23-7.45-2.68
	c-1.3-3.16,0.66-6.73,4.03-7.3c1.36-0.23,2.63,0.03,3.83,0.79c-0.3,0.12-0.57,0.23-0.84,0.34c-0.07,0.03-0.12-0.02-0.18-0.05
	c-2.71-1.19-5.73,0.33-6.38,3.21c-0.57,2.51,1.16,5.07,3.7,5.49c1.2,0.2,2.3-0.04,3.32-0.7C18.57,23.65,18.61,23.63,18.68,23.58z"/>
<path class="st0" d="M13.9,20.96c-0.57,0-1.03-0.2-1.49-0.42c-0.2-0.1-0.39-0.2-0.59-0.3c-0.24-0.12-0.31-0.32-0.21-0.52
	c0.1-0.21,0.32-0.26,0.56-0.14c0.3,0.15,0.59,0.31,0.9,0.44c0.54,0.23,1.05,0.25,1.58-0.07c0.56-0.33,1.15-0.61,1.73-0.92
	c0.12-0.06,0.16-0.06,0.19,0.08c0.12,0.55,0.12,0.55-0.37,0.83c-0.47,0.26-0.94,0.52-1.41,0.78C14.5,20.89,14.19,20.97,13.9,20.96z"
	/>
<path class="st0" d="M23.03,7.73c-0.04,0-0.09,0.01-0.13,0.01c-4.62,0-9.25,0-13.87,0c-0.05,0-0.1,0-0.15-0.01
	C8.95,7.68,9.03,7.7,9.11,7.7c4.57,0,9.13,0,13.7,0C22.88,7.7,22.96,7.68,23.03,7.73z"/>
<path class="st0" d="M24.06,26.54c0-0.07-0.03-0.08-0.09-0.08c-0.24,0.01-0.52-0.06-0.71,0.04c-0.12,0.07-0.03,0.38-0.03,0.59
	c-0.01,0.38-0.03,0.41-0.4,0.41c-4.59,0-9.18,0-13.77,0c-0.36,0-0.39-0.03-0.39-0.39c0-4.52,0-9.03-0.01-13.55
	c0-0.21,0.05-0.25,0.25-0.25c4.68,0.01,9.36,0.01,14.04,0.01c0.04,0,0.09,0,0.13,0c0.1-0.01,0.14,0.03,0.14,0.13
	c-0.01,0.19-0.01,0.38,0,0.58c0.01,0.2-0.09,0.47,0.04,0.57c0.12,0.1,0.38,0.02,0.58,0.04c0.18,0.02,0.22-0.04,0.22-0.22
	c-0.01-1.84,0-3.68,0-5.51c0-0.67-0.36-1.08-1.03-1.16c-0.07-0.02-0.14-0.01-0.21-0.01c-4.58,0-9.15,0-13.73,0
	c-0.07,0-0.14-0.01-0.21,0.01C8.57,7.76,8.32,7.85,8.09,8.09C7.95,8.23,7.94,8.42,7.81,8.55c0,0.01,0,0.03,0,0.04
	c0.04,0.08,0.02,0.17,0.02,0.25c0,6.17,0,12.35,0,18.52c-0.02,0.3,0.1,0.53,0.31,0.73c0.15,0.14,0.33,0.19,0.52,0.25
	c0.03,0,0.06,0,0.09,0C8.83,28.3,8.92,28.32,9,28.32c4.64,0,9.27,0,13.91,0c0.08,0,0.17,0.01,0.25-0.01
	c0.45-0.07,0.73-0.34,0.85-0.77C24.11,27.21,24.04,26.87,24.06,26.54z M8.66,8.91c0-0.28,0.06-0.34,0.34-0.34c4.62,0,9.25,0,13.87,0
	c0.29,0,0.35,0.06,0.35,0.35c0,1.12,0,2.24,0.01,3.36c0,0.18-0.06,0.2-0.22,0.2c-2.36,0-4.72,0-7.08,0c-2.35,0-4.7,0-7.05,0
	c-0.18,0-0.22-0.04-0.22-0.22C8.67,11.15,8.66,10.03,8.66,8.91z"/>
<path class="st0" d="M29.46,17.35c-1.17-0.48-2.35-0.96-3.52-1.45c-0.23-0.1-0.44-0.14-0.69-0.09c-1.12,0.22-2.25,0.2-3.37-0.03
	c-0.1-0.02-0.19-0.01-0.29,0.03c-1.27,0.5-2.53,1-3.8,1.5c-0.18,0.07-0.23,0.17-0.19,0.36c0.15,0.65,0.3,1.3,0.43,1.96
	c0.04,0.21,0.15,0.28,0.35,0.28c0.43-0.01,0.87,0.01,1.3-0.01c0.17-0.01,0.21,0.05,0.21,0.21c-0.01,1.55,0,3.09,0,4.64
	c0,0.27,0.07,0.34,0.34,0.34c1.13,0,2.26,0,3.4,0c1.13,0,2.25,0,3.38,0c0.34,0,0.38-0.04,0.38-0.38c0-1.51,0-3.02-0.01-4.53
	c0-0.2,0.06-0.25,0.25-0.24c0.4,0.01,0.8,0,1.2,0.01c0.22,0.01,0.32-0.08,0.38-0.29c0.16-0.63,0.33-1.25,0.49-1.87
	C29.75,17.52,29.72,17.46,29.46,17.35z M23.64,16.43c0.38,0,0.77-0.02,1.21-0.07c-0.4,0.41-0.76,0.78-1.11,1.16
	c-0.06,0.06-0.09,0.06-0.15,0c-0.37-0.37-0.74-0.74-1.14-1.15C22.87,16.39,23.26,16.43,23.64,16.43z M29.16,17.97
	c-0.13,0.45-0.25,0.9-0.36,1.36c-0.03,0.12-0.08,0.17-0.22,0.16c-0.45-0.01-0.9,0-1.35,0c-0.27,0-0.32,0.05-0.32,0.33
	c0,1.53,0,3.06,0,4.59c0,0.2-0.05,0.23-0.24,0.23c-1.02-0.01-2.04,0-3.06,0c-1.03,0-2.05,0-3.08,0c-0.16,0-0.21-0.04-0.21-0.21
	c0.01-1.54,0-3.08,0-4.61c0-0.32-0.05-0.37-0.37-0.37c-0.46,0-0.91,0-1.37,0c-0.11,0-0.16-0.03-0.18-0.15
	c-0.1-0.49-0.2-0.99-0.32-1.48c-0.03-0.14,0.03-0.15,0.12-0.19c0.94-0.37,1.88-0.74,2.81-1.11c0.12-0.05,0.18-0.04,0.24,0.08
	c0.38,0.7,0.77,1.39,1.15,2.09c0.09,0.17,0.17,0.19,0.32,0.07c0.21-0.18,0.44-0.34,0.66-0.51c0.22-0.17,0.35-0.17,0.57,0.01
	c0.21,0.17,0.43,0.33,0.64,0.5c0.14,0.12,0.21,0.11,0.3-0.06c0.37-0.69,0.75-1.37,1.12-2.06c0.07-0.14,0.14-0.17,0.29-0.11
	c0.9,0.38,1.79,0.75,2.7,1.11C29.18,17.73,29.21,17.8,29.16,17.97z"/>
<path class="st0" d="M11.61,11.76c-0.66,0-1.19-0.52-1.19-1.19c0-0.67,0.54-1.21,1.2-1.2c0.65,0.01,1.19,0.55,1.19,1.2
	C12.8,11.23,12.27,11.76,11.61,11.76z"/>
<path class="st0" d="M19.79,10.61c0,0.23-0.19,0.42-0.42,0.42c-0.23,0-0.41-0.2-0.41-0.43c0.01-0.22,0.19-0.4,0.41-0.41
	C19.6,10.19,19.79,10.38,19.79,10.61z"/>
<path class="st0" d="M18.19,10.62c-0.01,0.23-0.21,0.42-0.43,0.41c-0.22-0.01-0.41-0.2-0.41-0.42c0-0.22,0.2-0.42,0.42-0.42
	C18,10.19,18.2,10.39,18.19,10.62z"/>
<path class="st0" d="M20.97,11.03c-0.23,0-0.42-0.2-0.42-0.43c0.01-0.23,0.21-0.42,0.43-0.41c0.22,0.01,0.4,0.2,0.41,0.42
	C21.4,10.83,21.2,11.03,20.97,11.03z"/>
<path class="st0" d="M23.64,19.17c0.12,0.02,0.2,0.07,0.2,0.2c0,0.13-0.07,0.2-0.19,0.21c-0.14,0.01-0.22-0.08-0.22-0.21
	C23.44,19.25,23.52,19.19,23.64,19.17z"/>
<path class="st0" d="M23.85,18.67c-0.01,0.13-0.08,0.2-0.2,0.2c-0.13,0-0.2-0.07-0.21-0.19c0-0.13,0.07-0.21,0.21-0.21
	C23.78,18.47,23.84,18.54,23.85,18.67z"/>
</svg>
