<?xml version="1.0" encoding="utf-8"?>
<!-- Generator: Adobe Illustrator 25.2.3, SVG Export Plug-In . SVG Version: 6.00 Build 0)  -->
<svg version="1.1" id="Layer_1" xmlns="http://www.w3.org/2000/svg" xmlns:xlink="http://www.w3.org/1999/xlink" x="0px" y="0px"
	 viewBox="0 0 36 36" style="enable-background:new 0 0 36 36;" xml:space="preserve">
<style type="text/css">
	.st0{fill:#7B6A29;}
</style>
<path class="st0" d="M24.6,10.3H11.2c-0.1,0-0.2,0.1-0.2,0.2v13.4c0,0.1,0.1,0.2,0.2,0.2h13.4c0.1,0,0.2-0.1,0.2-0.2V10.5
	C24.7,10.4,24.7,10.3,24.6,10.3z M21.4,23.7h-3.4v-7.5h3.4V23.7z M17.7,23.7h-3.4v-7.5h3.4V23.7z M24.4,23.7h-2.6V16
	c0-0.1-0.1-0.2-0.2-0.2h-7.5c-0.1,0-0.2,0.1-0.2,0.2v7.6h-2.6v-13h13V23.7z"/>
<path class="st0" d="M17,12.7c-0.1-0.1-0.2-0.1-0.3,0l-0.6,0.7c-0.1,0.1-0.1,0.2,0,0.2c0.1,0.1,0.2,0.1,0.2,0l0.5-0.6l0.5,0.6
	c0,0,0.1,0.1,0.1,0.1c0,0,0.1,0,0.1,0c0.1-0.1,0.1-0.2,0-0.2L17,12.7z"/>
<path class="st0" d="M19.4,12.7l-0.5,0.6l-0.5-0.6c-0.1-0.1-0.2-0.1-0.2,0c-0.1,0.1-0.1,0.2,0,0.2l0.6,0.7c0,0,0.1,0.1,0.1,0.1
	s0.1,0,0.1-0.1l0.6-0.7c0.1-0.1,0.1-0.2,0-0.2C19.6,12.6,19.4,12.6,19.4,12.7z"/>
<path class="st0" d="M14.8,14.7h6.1c0.1,0,0.2-0.1,0.2-0.2c0-1.6-1.3-2.9-2.9-2.9h-0.6c-1.6,0-2.9,1.3-2.9,2.9
	C14.7,14.6,14.7,14.7,14.8,14.7z M17.6,12h0.6c1.4,0,2.5,1.1,2.6,2.4H15C15.1,13,16.2,12,17.6,12z"/>
</svg>
