<?xml version="1.0" encoding="utf-8"?>
<!-- Generator: Adobe Illustrator 27.0.0, SVG Export Plug-In . SVG Version: 6.00 Build 0)  -->
<svg version="1.1" id="Layer_1" xmlns="http://www.w3.org/2000/svg" xmlns:xlink="http://www.w3.org/1999/xlink" x="0px" y="0px"
	 viewBox="0 0 1454 182" style="enable-background:new 0 0 1454 182;" xml:space="preserve">
<style type="text/css">
	.st0{clip-path:url(#SVGID_00000008830039616068119070000010127455596354050466_);}
	.st1{fill:#B8141B;}
</style>
<g>
	<defs>
		<rect id="SVGID_1_" width="1454" height="181.3"/>
	</defs>
	<clipPath id="SVGID_00000108996105958152465100000001060372268770237600_">
		<use xlink:href="#SVGID_1_"  style="overflow:visible;"/>
	</clipPath>
	<g style="clip-path:url(#SVGID_00000108996105958152465100000001060372268770237600_);">
		<path class="st1" d="M0,90.7v90.6h40.6h40.6v-11.3v-11.3H52H22.6V79.3V0.1H11.3H0V90.7z"/>
		<path class="st1" d="M86.6,63.6c0,70.1,0.4,73.9,8.1,88.2c7.5,14,17.7,22.6,32.1,26.9c13.2,4,33,3.2,44-1.7
			c14.1-6.5,23.8-18,29.4-34.8c2.7-7.9,2.9-11.3,3.3-75.3L204,0.1h-11.3h-11.3l-0.4,65.5c-0.4,59.2-0.7,66.3-2.8,71.8
			c-3.5,8.9-10.5,16.5-18,19.4c-7.3,2.8-19.7,3.1-27.4,0.5c-6.5-2.3-14.8-9.7-18.3-16.5c-5.9-11.3-6.5-19.6-6.5-81.9V0.1H97.3H86.6
			V63.6z"/>
		<path class="st1" d="M214.5,0.7c0,0.4,11.1,20.5,24.6,44.6c13.6,24.1,24.6,44.6,24.6,45.4c0,0.8-10.9,20.9-24.2,44.9
			c-13.5,23.8-24.6,44-24.8,44.5c-0.3,0.7,5.3,0.9,12.5,0.8l13.2-0.4l18-32.2c9.9-17.7,18.3-32.5,18.7-32.8
			c0.4-0.4,9.1,14.3,19.2,32.5l18.7,33.2h12.4c6.8,0,12.4-0.5,12.4-1.2c0-0.7-11.1-21-24.6-45.3l-24.6-44l24.6-44
			c13.6-24.1,24.6-44.5,24.6-45.3c0-0.9-4.4-1.5-12.3-1.5h-12.4l-18.5,33.4c-10.1,18.4-18.9,32.9-19.4,32.2
			c-0.7-0.5-9.2-15.5-19.1-33l-17.9-32l-12.9-0.4C220.2,0.2,214.5,0.3,214.5,0.7z"/>
		<path class="st1" d="M351.7,63.8c0,70.1,0.1,71.8,8.3,87.9c5.3,10.8,16.9,21.6,27.3,25.7c6.7,2.7,10.1,3.2,24.4,3.2
			c15.6,0,17.2-0.3,24.9-3.9c10.1-4.7,20.5-15.1,25.2-25.3c6.7-14.7,7.2-20.5,7.2-88.5V0.1h-11.3h-11.2L446,66.3
			c-0.4,66.1-0.4,66.3-3.5,73c-6.4,14-15.6,19.7-31,19.9c-18,0-29.3-8.5-34.9-26.5c-2.8-9.1-2.9-11.1-2.9-71V0.1h-10.9h-11.1V63.8z"
			/>
		<path class="st1" d="M487.6,90.7v90.6h11.3h11.3v-30.6V120h9.1c4.9,0,10.1-0.4,11.7-0.8c2.4-0.7,5.5,3.5,22.6,29.6
			c10.9,16.7,20.3,30.9,20.8,31.6c0.8,1.3,12.7-4.1,18.5-8.5c2.8-2.1,2.7-2.4-17.5-32.4l-20.1-30.4l6.8-7.2
			c27.3-28.9,19.4-77.3-15.5-94.9c-11.1-5.5-19.2-6.9-40.5-6.9h-18.7V90.7z M535.2,27.1c17.9,9.1,25.4,30.5,17.2,48.2
			c-6.3,13.5-21,22.6-35,21.7l-6.4-0.4l-0.4-36.2c-0.4-41-1.3-38,11.2-37C525.6,23.7,531.4,25.3,535.2,27.1z"/>
		<path class="st1" d="M580.9,0.5c0,0.4,11.7,21.4,26,47l26,46.5v43.6v43.7h11.3h11.3v-44V93.5l23.8-42.4
			c13.1-23.3,24.8-44.4,26-46.8l2.3-4.3h-13.1l-13.1,0.1l-18.7,33.7l-18.5,33.7l-18.8-33.4L606.7,0.7l-12.9-0.4
			C586.7,0.2,580.9,0.2,580.9,0.5z"/>
		<path class="st1" d="M808.7,90.7v90.6H820h11.3v-54v-54h28h28v54v54h11.3h11.3V90.7V0.1h-11.3h-11.3v25.3v25.3h-28h-28V25.4V0.1
			H820h-11.3V90.7z"/>
		<path class="st1" d="M1003.4,1.5c-17.7,2.3-32.8,9.7-46.1,23.2c-10.7,10.7-16.9,20.2-21.4,33.6c-12,34.5-4.5,71.7,19.6,97
			c15.5,16.3,32.6,24.4,54.4,25.6c41.4,2.3,76.5-26,85.9-69.4c3.3-15.1,2.3-36.4-2.5-50.8c-6.7-19.9-22.1-39.4-38.4-49
			C1040.6,3.4,1020.6-0.6,1003.4,1.5z M1036.9,30.4c27.4,12.8,42.2,45.8,34.9,77.4c-7.5,31.4-37.8,53.7-66.2,48.4
			c-49-9.1-67.9-74.3-32.5-111.9c13.2-14,25.3-19.2,43.4-18.5C1026,26.1,1029.4,26.9,1036.9,30.4z"/>
		<path class="st1" d="M1091.1,11.4v11.3h20h20V102v79.3h12.7h12.6V102V22.7h20.7h20.7V11.4V0.1h-53.3h-53.3V11.4z"/>
		<path class="st1" d="M1207,90.7v90.6h40.6h40.6v-11.3v-11.3H1259h-29.3v-16v-16h29.3h29.3v-11.3V104H1259h-29.3V63.4V22.7h28h28
			V11.4V0.1h-39.3H1207V90.7z"/>
		<path class="st1" d="M1304.3,90.7v90.6h41.3h41.3v-11.3v-11.3h-30h-30V79.3V0.1h-11.3h-11.3V90.7z"/>
		<path class="st1" d="M1384.1,3.1c-20.5,5.9-34.9,24-35,44.2c-0.1,22.6,16.9,40.6,50.2,53.2c13.9,5.2,24.6,11.5,28,16
			c1,1.4,1.7,2.9,1.7,2.9c1.9,3.9,2.3,7.7,2.3,10.2c0,4.9-1.4,8.4-2.2,10.4c-0.3,0.8-1.1,2.7-2.7,5.1c-2.1,3.1-7.7,8.7-12.3,12.4
			l-8.5,6.8l3.1,4.1c1.7,2.3,4.5,6.1,6.3,8.5c1.7,2.3,4.3,4.3,5.5,4.3c4.1,0,24.2-20.4,28.2-28.5c1.4-2.8,2.2-5,2.5-6.1
			c1-3.1,3-9,2.9-16.9c-0.1-7.3-2-12.9-3.1-16.1c0,0-0.9-2.6-2-4.9c-5.5-11.7-18-20.9-39.7-29.2c-26.9-10.1-40.4-23.2-36.9-36
			c2.8-10,14.8-19.3,25-19.5c8.5,0,15.2,3.1,22.8,10.4l7.3,7.2l9.3-5.1c5.2-2.7,9.6-5.1,9.9-5.3c1.1-0.9-5.6-10-11.3-15.2
			c-9.5-8.7-21-13.5-34.2-14.1C1394.6,1.7,1387.8,2.1,1384.1,3.1z"/>
	</g>
</g>
</svg>
