<?xml version="1.0" encoding="utf-8"?>
<!-- Generator: Adobe Illustrator 25.2.3, SVG Export Plug-In . SVG Version: 6.00 Build 0)  -->
<svg version="1.1" id="Layer_1" xmlns="http://www.w3.org/2000/svg" xmlns:xlink="http://www.w3.org/1999/xlink" x="0px" y="0px"
	 viewBox="0 0 36 36" style="enable-background:new 0 0 36 36;" xml:space="preserve">
<style type="text/css">
	.st0{fill:#7B6A29;}
</style>
<path class="st0" d="M27.4,22.2h-4c1.5-0.5,2.6-1.6,2.6-2.9c0-1.4-1.4-2.6-3.2-3.1c1.2-0.4,2-1.2,2-2.2c0-1-0.9-1.9-2.2-2.2
	c0.8-0.3,1.3-0.9,1.3-1.6c0-1-1.2-1.8-2.7-1.8s-2.7,0.8-2.7,1.8c0,0.7,0.5,1.3,1.3,1.6c-1.3,0.4-2.2,1.2-2.2,2.2
	c0,0.9,0.8,1.8,2,2.2c-1.9,0.4-3.2,1.6-3.2,3.1c0,1.2,1,2.3,2.6,2.9h-3.9v-7.9c0-0.6-0.5-1.1-1.1-1.1h-1.1v-0.9c1.1-0.1,2-1.1,2-2.2
	c0-1.8-2-3.2-2.1-3.2c-0.1-0.1-0.2-0.1-0.3,0c-0.1,0.1-2.1,1.4-2.1,3.2c0,1.2,0.9,2.1,2,2.2v0.9h-1.1c-0.6,0-1.1,0.5-1.1,1.1v7.9
	H8.6c-0.1,0-0.2,0.1-0.2,0.2v3.4c0,0.1,0.1,0.2,0.2,0.2h18.8c0.1,0,0.2-0.1,0.2-0.2v-3.4C27.6,22.3,27.5,22.2,27.4,22.2z M18.9,10.3
	c0-0.7,1-1.4,2.2-1.4c1.2,0,2.2,0.6,2.2,1.4c0,0.7-1,1.4-2.2,1.4C19.9,11.7,18.9,11.1,18.9,10.3z M18,14.2c0-1.1,1.4-1.9,3.1-1.9
	c1.7,0,3.1,0.9,3.1,1.9s-1.4,1.9-3.1,1.9C19.4,16.1,18,15.2,18,14.2z M16.8,19.4c0-1.5,2-2.8,4.4-2.8c2.4,0,4.4,1.2,4.4,2.8
	s-2,2.8-4.4,2.8C18.7,22.1,16.8,20.9,16.8,19.4z M10.7,10.1c0-1.3,1.3-2.4,1.8-2.7c0.4,0.3,1.8,1.4,1.8,2.7c0,1-0.8,1.8-1.8,1.8
	S10.7,11.1,10.7,10.1z M10.5,14.4c0-0.4,0.3-0.6,0.6-0.6h2.6c0.4,0,0.6,0.3,0.6,0.6v7.9h-3.9V14.4z M27.2,25.6H8.8v-2.9h18.3V25.6z"
	/>
</svg>
