<?xml version="1.0" encoding="utf-8"?>
<!-- Generator: Adobe Illustrator 25.2.3, SVG Export Plug-In . SVG Version: 6.00 Build 0)  -->
<svg version="1.1" id="Layer_1" xmlns="http://www.w3.org/2000/svg" xmlns:xlink="http://www.w3.org/1999/xlink" x="0px" y="0px"
	 viewBox="0 0 36 36" style="enable-background:new 0 0 36 36;" xml:space="preserve">
<style type="text/css">
	.st0{fill:#7B6A29;}
</style>
<path class="st0" d="M8.5,25.5h19.1c0.1,0,0.2-0.1,0.2-0.2V11.8c0-0.1-0.1-0.2-0.2-0.2H8.5c-0.1,0-0.2,0.1-0.2,0.2v13.5
	C8.2,25.4,8.3,25.5,8.5,25.5z M8.7,12h18.6v13H8.7V12z"/>
<path class="st0" d="M25.7,15.8c-0.1,0-0.2,0.1-0.2,0.2V17c0,0.1,0.1,0.2,0.2,0.2c0.1,0,0.2-0.1,0.2-0.2V16
	C25.9,15.9,25.8,15.8,25.7,15.8z"/>
<path class="st0" d="M25.7,13.6c-0.1,0-0.2,0.1-0.2,0.2v0.9c0,0.1,0.1,0.2,0.2,0.2c0.1,0,0.2-0.1,0.2-0.2v-0.9
	C25.9,13.7,25.8,13.6,25.7,13.6z"/>
<path class="st0" d="M23.9,13.6H10.7c-0.1,0-0.2,0.1-0.2,0.2v9.4c0,0.1,0.1,0.2,0.2,0.2h13.2c0.1,0,0.2-0.1,0.2-0.2v-9.4
	C24.1,13.7,24,13.6,23.9,13.6z M23.6,20.8h-1.1c-0.3,0-0.5-0.2-0.5-0.5v-3.6c0-0.3,0.2-0.5,0.5-0.5h1.1V20.8z M10.9,23v-8.9h12.7
	v1.7h-1.1c-0.5,0-1,0.4-1,1v3.6c0,0.5,0.4,1,1,1h1.1V23H10.9z"/>
<path class="st0" d="M16.4,8.6c0.7,0,1.3-0.6,1.3-1.3c0-0.7-0.6-1.3-1.3-1.3c-0.1,0-0.2,0.1-0.2,0.2s0.1,0.2,0.2,0.2
	c0.5,0,0.8,0.4,0.8,0.8c0,0.5-0.4,0.8-0.8,0.8c-0.7,0-1.3,0.6-1.3,1.3c0,0.7,0.6,1.3,1.3,1.3c0.1,0,0.2-0.1,0.2-0.2
	c0-0.1-0.1-0.2-0.2-0.2c-0.5,0-0.8-0.4-0.8-0.8C15.5,9,15.9,8.6,16.4,8.6z"/>
<path class="st0" d="M19.6,8.6C20.4,8.6,21,8,21,7.3c0-0.7-0.6-1.3-1.3-1.3c-0.1,0-0.2,0.1-0.2,0.2s0.1,0.2,0.2,0.2
	c0.5,0,0.8,0.4,0.8,0.8c0,0.5-0.4,0.8-0.8,0.8c-0.7,0-1.3,0.6-1.3,1.3c0,0.7,0.6,1.3,1.3,1.3c0.1,0,0.2-0.1,0.2-0.2
	c0-0.1-0.1-0.2-0.2-0.2c-0.5,0-0.8-0.4-0.8-0.8C18.8,9,19.2,8.6,19.6,8.6z"/>
</svg>
