<?xml version="1.0" encoding="utf-8"?>
<!-- Generator: Adobe Illustrator 25.2.3, SVG Export Plug-In . SVG Version: 6.00 Build 0)  -->
<svg version="1.1" id="Layer_1" xmlns="http://www.w3.org/2000/svg" xmlns:xlink="http://www.w3.org/1999/xlink" x="0px" y="0px"
	 viewBox="0 0 36 36" style="enable-background:new 0 0 36 36;" xml:space="preserve">
<style type="text/css">
	.st0{fill:#7B6929;}
</style>
<path class="st0" d="M7.33,31.31c0.11-0.13,0.24-0.24,0.4-0.29c0.08-0.07,0.18-0.04,0.27-0.04c4.52,0,9.04,0,13.57,0
	c0.09,0,0.19-0.03,0.27,0.03c0.35,0.12,0.52,0.35,0.47,0.66c-0.05,0.31-0.27,0.47-0.66,0.47c-4.65,0-9.29,0-13.94,0
	C7.28,32.04,7.13,31.71,7.33,31.31z"/>
<path class="st0" d="M25.6,29.04c0-8.13,0-16.25,0-24.38c0-0.67-0.14-0.81-0.81-0.81c-5.73,0-11.46,0-17.18,0
	c-0.3,0-0.59,0.03-0.87,0.1C5.08,4.36,4,5.78,4,7.55c0,6.06,0.01,12.13-0.01,18.19c0,1.09,0.25,2.04,0.97,2.86
	c0.04,0.04,0.08,0.08,0.11,0.11c0.48,0.57,1.11,0.84,1.82,0.96c0.13,0,0.27,0,0.39,0.06c0.09,0.07,0.2,0.04,0.3,0.04
	c5.76,0,11.52,0,17.29,0c0.1,0,0.21,0.04,0.3-0.04c0.15-0.07,0.28-0.16,0.38-0.3c0.05-0.03,0.03-0.1,0.05-0.14
	C25.61,29.21,25.6,29.12,25.6,29.04z M24.49,28.26c0,0.28-0.07,0.36-0.36,0.36c-5.48-0.01-10.96-0.01-16.43-0.01
	c-1.3,0-2.3-0.78-2.55-1.99c-0.04-0.18-0.04-0.37-0.04-0.56c0-6.17,0-12.34,0-18.51c0-1.55,1.05-2.59,2.6-2.59
	c5.48,0,10.96,0,16.43-0.01c0.27,0,0.35,0.05,0.35,0.33c-0.01,3.83-0.01,7.67-0.01,11.5C24.49,20.62,24.48,24.44,24.49,28.26z"/>
<path class="st0" d="M33.8,15.24c-0.3-0.82-0.8-1.49-1.65-1.84c-0.01-0.02-0.03-0.03-0.06-0.02c-0.1-0.09-0.05-0.22-0.05-0.32
	c-0.01-2.04-0.01-4.09-0.02-6.13c0.01-0.03,0.01-0.06,0.01-0.09C31.9,5.83,31.3,5.1,30.59,4.45c-0.07-0.06-0.15-0.11-0.26-0.09
	c-0.21-0.1-0.43-0.21-0.64-0.31c-0.62-0.2-1.25-0.21-1.89-0.2c-0.41,0.01-0.54,0.1-0.68,0.5c0,0.13,0.01,0.25,0.01,0.38
	c0,8.08,0,16.16-0.01,24.24c0,0.37,0.1,0.63,0.46,0.76c0.25,0.07,0.49,0.05,0.74,0.01c0.24,0.02,0.47-0.02,0.71-0.06
	c0.52-0.09,1.01-0.26,1.44-0.57c1.08-0.77,1.59-1.82,1.58-3.15c-0.02-1.53-0.01-3.05,0-4.58c0-0.11-0.06-0.25,0.12-0.31
	c0.64-0.23,1.08-0.69,1.38-1.27C34.32,18.32,34.37,16.79,33.8,15.24z M30.94,26c0,1.43-0.98,2.52-2.32,2.61
	c-0.29,0.02-0.39-0.03-0.39-0.35c0.01-3.83,0.01-7.67,0.01-11.5c0-3.82,0-7.64-0.01-11.47c0-0.28,0.06-0.35,0.34-0.34
	c1.35,0.07,2.36,1.16,2.36,2.6c0,3.12,0,6.24,0,9.36C30.94,19.95,30.94,22.97,30.94,26z M32.05,19.88c0-1.78,0-3.48,0-5.18
	c0.42,0.1,0.94,1.25,0.98,2.14C33.1,17.95,32.94,18.99,32.05,19.88z"/>
<path class="st0" d="M13.86,13.27c0-0.87-0.55-1.59-1.38-1.79c-0.22-0.05-0.25-0.14-0.25-0.33c0.01-0.94,0.01-1.88,0-2.83
	c0-0.49-0.2-0.68-0.69-0.68c-0.59,0-1.17,0-1.76,0c-0.55,0-0.73,0.19-0.73,0.74c0,0.93,0,1.86,0,2.79c0,0.11,0.04,0.23-0.15,0.29
	c-1.06,0.32-1.49,0.91-1.49,2.03c0,1.74,0,3.48,0,5.21c0,1.79,0,3.58,0,5.37c0,1.14,0.78,1.92,1.91,1.92c0.9,0,1.8,0.01,2.7,0
	c1.06-0.01,1.84-0.8,1.84-1.85C13.87,20.51,13.87,16.89,13.86,13.27z M12.75,23.93c0,0.72-0.24,0.96-0.96,0.96c-0.8,0-1.59,0-2.39,0
	c-0.6,0-0.88-0.28-0.88-0.89c0-1.77,0-3.54,0-5.31c0-1.74,0-3.47,0-5.21c0-0.7,0.24-0.95,0.93-0.95c0.53,0,0.7-0.18,0.7-0.73
	c0-0.93,0.01-1.86,0-2.79c0-0.21,0.06-0.26,0.26-0.26c0.7,0,0.7-0.01,0.7,0.7c0,0.8,0,1.59,0,2.39c0,0.5,0.2,0.69,0.71,0.7
	c0.69,0,0.93,0.24,0.93,0.92C12.75,16.94,12.75,20.43,12.75,23.93z"/>
<path class="st0" d="M19.31,21.3c1.12-0.28,1.75-1.08,2.17-2.09c0.49-1.17,0.65-2.42,0.68-3.68c0.02-0.8-0.1-0.92-0.89-0.92
	c-0.88,0-1.76,0-2.64,0c-0.97,0-1.95,0-2.92,0c-0.42,0-0.66,0.19-0.66,0.55c-0.01,1.3,0.11,2.6,0.57,3.83c0.42,1.1,1.06,2,2.29,2.3
	c0.12,0.03,0.14,0.09,0.14,0.2c0,1.07,0,2.13,0,3.2c0,0.15-0.05,0.2-0.2,0.2c-0.29-0.01-0.59-0.01-0.88,0
	c-0.3,0.01-0.51,0.24-0.52,0.53c-0.01,0.3,0.21,0.56,0.51,0.56c1.09,0.01,2.18,0.01,3.27,0c0.3,0,0.53-0.27,0.52-0.56
	c-0.01-0.29-0.24-0.52-0.55-0.53c-0.28-0.01-0.57-0.01-0.85,0c-0.14,0-0.21-0.03-0.21-0.19c0.01-1.07,0-2.13,0-3.2
	C19.17,21.39,19.19,21.32,19.31,21.3z M19.16,20.18c-0.68,0.24-1.43,0.01-1.92-0.57c-0.57-0.69-0.77-1.52-0.91-2.37
	c-0.07-0.41-0.09-0.83-0.14-1.25c-0.03-0.2,0.03-0.27,0.25-0.26c0.73,0.01,1.46,0.01,2.2,0.01c0.71,0,1.42,0.01,2.13,0
	c0.21,0,0.29,0.03,0.27,0.27c-0.08,0.99-0.21,1.98-0.63,2.89C20.15,19.46,19.79,19.96,19.16,20.18z"/>
</svg>
