<?xml version="1.0" encoding="utf-8"?>
<!-- Generator: Adobe Illustrator 25.2.3, SVG Export Plug-In . SVG Version: 6.00 Build 0)  -->
<svg version="1.1" id="Layer_1" xmlns="http://www.w3.org/2000/svg" xmlns:xlink="http://www.w3.org/1999/xlink" x="0px" y="0px"
	 viewBox="0 0 36 36" style="enable-background:new 0 0 36 36;" xml:space="preserve">
<style type="text/css">
	.st0{fill:#7B6A29;}
</style>
<g>
	<path class="st0" d="M15.9,22.2v-9l7.3,4.5L15.9,22.2z M16.1,21.8l6.8-4.2l-6.8-4.2V21.8z M18.5,9.7c4.3,0,8,3.6,8,8s-3.6,8-8,8
		s-8-3.6-8-8S14.2,9.7,18.5,9.7z M18.5,9.9c-4.3,0-7.8,3.5-7.8,7.8s3.5,7.8,7.8,7.8s7.8-3.5,7.8-7.8S22.9,9.9,18.5,9.9z M18.5,11.2
		c3.6,0,6.4,2.8,6.4,6.4s-2.8,6.4-6.4,6.4s-6.4-2.8-6.4-6.4S14.9,11.2,18.5,11.2z M18.5,11.4c-3.5,0-6.2,2.8-6.2,6.2
		s2.8,6.2,6.2,6.2s6.2-2.8,6.2-6.2S22,11.4,18.5,11.4z"/>
</g>
</svg>
