<?xml version="1.0" encoding="utf-8"?>
<!-- Generator: Adobe Illustrator 25.2.3, SVG Export Plug-In . SVG Version: 6.00 Build 0)  -->
<svg version="1.1" id="Layer_1" xmlns="http://www.w3.org/2000/svg" xmlns:xlink="http://www.w3.org/1999/xlink" x="0px" y="0px"
	 viewBox="0 0 36 36" style="enable-background:new 0 0 36 36;" xml:space="preserve">
<style type="text/css">
	.st0{fill:#7B6929;}
</style>
<path class="st0" d="M24.41,25.96c-0.66,0.02-1.33-0.15-1.98-0.45c-1.14-0.52-2.29-0.52-3.44,0c-1.34,0.61-2.68,0.62-4.02,0.01
	c-1.18-0.54-2.35-0.53-3.53,0c-1.34,0.61-2.68,0.59-4.02-0.02c-0.51-0.24-1.05-0.37-1.61-0.37c-0.28,0-0.43-0.12-0.43-0.34
	c0-0.22,0.14-0.32,0.43-0.33c0.63,0,1.24,0.13,1.8,0.4c1.22,0.58,2.43,0.57,3.66,0.01c1.28-0.58,2.58-0.58,3.86,0
	c1.21,0.55,2.41,0.55,3.62,0.01c1.3-0.59,2.61-0.58,3.91,0c1.19,0.53,2.37,0.55,3.56,0.01c0.61-0.28,1.24-0.44,1.92-0.43
	c0.26,0,0.4,0.12,0.4,0.34c0,0.2-0.15,0.33-0.39,0.33c-0.61-0.01-1.18,0.15-1.73,0.4C25.76,25.85,25.24,25.96,24.41,25.96z"/>
<path class="st0" d="M24.41,23.32c-0.66,0.01-1.32-0.15-1.96-0.45c-1.14-0.53-2.3-0.53-3.44-0.01c-1.37,0.63-2.74,0.62-4.11-0.01
	c-1.11-0.51-2.24-0.51-3.35-0.01c-1.4,0.64-2.78,0.65-4.17,0c-0.51-0.24-1.05-0.35-1.62-0.35c-0.17,0-0.3-0.06-0.36-0.22
	c-0.04-0.13-0.01-0.25,0.09-0.35c0.08-0.08,0.18-0.08,0.29-0.08c0.63-0.01,1.24,0.11,1.81,0.38c1.24,0.6,2.47,0.59,3.73,0.01
	c1.25-0.57,2.54-0.57,3.8,0c1.26,0.57,2.48,0.56,3.73-0.01c1.24-0.56,2.51-0.56,3.75,0c1.26,0.57,2.5,0.59,3.76-0.01
	c0.57-0.27,1.18-0.39,1.81-0.38c0.25,0,0.39,0.11,0.39,0.32c0.01,0.21-0.13,0.34-0.38,0.34c-0.63,0-1.23,0.16-1.79,0.43
	C25.77,23.21,25.13,23.32,24.41,23.32z"/>
<path class="st0" d="M28.1,19.17c-0.65,0.01-1.26,0.15-1.85,0.43c-0.4,0.19-0.82,0.3-1.25,0.37c-0.19,0.03-0.26-0.01-0.26-0.22
	c0.01-1.82,0.02-3.64,0.02-5.45c0-1.86-0.01-3.72-0.01-5.57c0-0.22,0.01-0.44,0.09-0.66C25.08,7.4,25.76,7,26.47,7.1
	c0.69,0.1,1.2,0.68,1.25,1.42c0.02,0.24,0.15,0.39,0.34,0.38c0.2-0.01,0.33-0.18,0.32-0.42c-0.02-0.35-0.11-0.69-0.29-1
	c-0.48-0.82-1.46-1.23-2.38-1c-0.93,0.24-1.6,1.06-1.62,2.04c-0.01,0.86-0.01,1.72,0,2.58c0,0.17-0.05,0.21-0.21,0.21
	c-2.13-0.01-4.26-0.01-6.39,0c-0.15,0-0.2-0.03-0.2-0.19c0.01-0.83,0-1.66,0-2.49c0-0.85,0.61-1.51,1.41-1.54
	c0.86-0.03,1.5,0.56,1.56,1.43c0.02,0.24,0.15,0.39,0.34,0.39c0.2,0,0.33-0.16,0.33-0.41c-0.02-1.25-1.23-2.26-2.46-2.05
	c-1.1,0.19-1.84,1.05-1.84,2.16c-0.01,1.84,0,3.69,0,5.53c0,1.88,0,3.76,0,5.65c0,0.17-0.04,0.22-0.21,0.19
	c-0.46-0.06-0.89-0.22-1.31-0.41c-0.88-0.41-1.81-0.48-2.76-0.33c-0.44,0.07-0.84,0.23-1.24,0.41c-1.1,0.48-2.21,0.49-3.31,0
	c-0.64-0.29-1.3-0.48-2-0.48c-0.28,0-0.43,0.13-0.42,0.34c0.01,0.21,0.14,0.32,0.41,0.32c0.56,0.01,1.09,0.13,1.59,0.36
	c1.37,0.64,2.75,0.64,4.13,0.01c1.13-0.51,2.27-0.51,3.4,0c1.38,0.63,2.75,0.62,4.13-0.01c1.1-0.5,2.23-0.51,3.33-0.01
	c1.41,0.64,2.8,0.65,4.19,0c0.49-0.23,1.01-0.34,1.55-0.35c0.29,0,0.43-0.11,0.43-0.33C28.55,19.28,28.4,19.17,28.1,19.17z
	 M24.09,16.43c0,0.15-0.04,0.19-0.19,0.19c-2.15,0-4.29,0-6.44,0c-0.14,0-0.17-0.04-0.17-0.18c0.01-0.54,0.01-1.08,0-1.63
	c0-0.16,0.04-0.2,0.2-0.2c1.07,0.01,2.14,0,3.21,0c1.06,0,2.12,0,3.18,0c0.17,0,0.22,0.04,0.21,0.21
	C24.08,15.36,24.08,15.89,24.09,16.43z M17.5,11.97c1.07,0,2.14,0,3.2,0c1.06,0,2.12,0,3.18,0c0.17,0,0.22,0.04,0.21,0.21
	c-0.01,0.53-0.01,1.07,0,1.6c0,0.13-0.03,0.18-0.17,0.18c-2.15,0-4.3,0-6.45,0c-0.14,0-0.17-0.04-0.17-0.17
	c0.01-0.54,0.01-1.08,0-1.63C17.29,11.99,17.35,11.97,17.5,11.97z M23.85,19.96c-0.43-0.07-0.83-0.21-1.22-0.38
	c-1.28-0.56-2.56-0.56-3.84,0c-0.42,0.19-0.85,0.35-1.32,0.4c-0.13,0.01-0.18,0-0.18-0.15c0.01-0.8,0.01-1.59,0-2.39
	c0-0.18,0.08-0.17,0.2-0.17c1.07,0,2.14,0,3.2,0c1.06,0,2.12,0,3.18,0c0.17,0,0.22,0.04,0.21,0.21c-0.01,0.77-0.01,1.53,0,2.3
	C24.1,19.98,24.01,19.99,23.85,19.96z"/>
</svg>
