<?xml version="1.0" encoding="utf-8"?>
<!-- Generator: Adobe Illustrator 25.2.3, SVG Export Plug-In . SVG Version: 6.00 Build 0)  -->
<svg version="1.1" id="Layer_1" xmlns="http://www.w3.org/2000/svg" xmlns:xlink="http://www.w3.org/1999/xlink" x="0px" y="0px"
	 viewBox="0 0 36 36" style="enable-background:new 0 0 36 36;" xml:space="preserve">
<style type="text/css">
	.st0{fill:#7B6929;}
</style>
<g transform="translate(1.4065934065934016 1.4065934065934016) scale(2.81 2.81)">
	<path class="st0" d="M8,2.68H7.57V3.4v0.1v0.36c0,0.06,0.05,0.1,0.1,0.1s0.1-0.05,0.1-0.1V3.5H8c0.22,0,0.4-0.18,0.4-0.4V3.07
		C8.39,2.85,8.22,2.68,8,2.68z M8.19,3.11c0,0.1-0.08,0.19-0.19,0.19H7.78V2.88H8c0.1,0,0.19,0.08,0.19,0.19V3.11z"/>
	<path class="st0" d="M4.17,7.22H3.63c-0.16,0-0.28-0.13-0.28-0.28V6.79c0-0.16,0.13-0.28,0.28-0.28h0.54
		c0.16,0,0.28,0.13,0.28,0.28v0.15C4.45,7.1,4.33,7.22,4.17,7.22z M3.63,6.72c-0.04,0-0.08,0.03-0.08,0.08v0.15
		c0,0.04,0.03,0.08,0.08,0.08h0.54c0.04,0,0.08-0.03,0.08-0.08V6.79c0-0.04-0.03-0.08-0.08-0.08H3.63z"/>
	<path class="st0" d="M6.59,7.22H6.05c-0.16,0-0.28-0.13-0.28-0.28V6.79c0-0.16,0.13-0.28,0.28-0.28h0.54
		c0.16,0,0.28,0.13,0.28,0.28v0.15C6.87,7.1,6.74,7.22,6.59,7.22z M6.05,6.72c-0.04,0-0.08,0.03-0.08,0.08v0.15
		c0,0.04,0.03,0.08,0.08,0.08h0.54c0.04,0,0.08-0.03,0.08-0.08V6.79c0-0.04-0.03-0.08-0.08-0.08H6.05z"/>
	<path class="st0" d="M5.43,6.97H4.79c-0.06,0-0.1-0.05-0.1-0.1s0.05-0.1,0.1-0.1h0.64c0.06,0,0.1,0.05,0.1,0.1S5.49,6.97,5.43,6.97
		z"/>
	<path class="st0" d="M7.26,6.49L7.08,6.22C7.04,6.15,6.97,6.1,6.89,6.08L6.52,5.13C6.47,4.99,6.34,4.91,6.2,4.91H4.02
		c-0.14,0-0.27,0.09-0.32,0.22L3.33,6.08C3.25,6.1,3.18,6.15,3.14,6.22L2.96,6.49C2.93,6.54,2.92,6.6,2.92,6.66V7.1v0.21V8
		c0,0.2,0.16,0.36,0.36,0.36h0.5c0.2,0,0.36-0.16,0.36-0.36V7.63h1.96V8c0,0.2,0.16,0.36,0.36,0.36h0.5C7.14,8.36,7.3,8.2,7.3,8
		V7.31V7.1V6.66C7.3,6.6,7.29,6.54,7.26,6.49z M3.89,5.2c0.02-0.05,0.07-0.09,0.13-0.09H6.2c0.06,0,0.11,0.04,0.13,0.09l0.34,0.87
		H6.35C6.3,5.75,6.02,5.5,5.68,5.5c-0.34,0-0.62,0.25-0.67,0.57H3.55L3.89,5.2z M6.14,6.07H5.23c0.05-0.21,0.23-0.36,0.46-0.36
		C5.9,5.71,6.09,5.86,6.14,6.07z M3.92,8c0,0.08-0.07,0.15-0.15,0.15h-0.5C3.19,8.15,3.12,8.08,3.12,8V7.6
		c0.03,0.01,0.07,0.02,0.11,0.02h0.69L3.92,8L3.92,8z M6.94,8.15h-0.5C6.36,8.15,6.3,8.08,6.3,8V7.63h0.69
		c0.04,0,0.07-0.01,0.11-0.02V8C7.1,8.08,7.03,8.15,6.94,8.15z M7.1,7.31c0,0.06-0.05,0.11-0.11,0.11H3.23
		c-0.06,0-0.11-0.05-0.11-0.11V7.1V6.66c0-0.02,0.01-0.04,0.02-0.06l0.17-0.27C3.33,6.3,3.37,6.28,3.4,6.28h0c0,0,0,0,0,0h3.41
		c0.04,0,0.07,0.02,0.09,0.05L7.08,6.6C7.09,6.62,7.1,6.64,7.1,6.66V7.1V7.31z"/>
	<path class="st0" d="M8.53,2.07H7.31c-0.33,0-0.59,0.27-0.59,0.59v1.22c0,0.33,0.27,0.59,0.59,0.59h0.55v3.78
		c0,0.06,0.05,0.1,0.1,0.1c0.06,0,0.1-0.05,0.1-0.1V4.47h0.46c0.33,0,0.59-0.27,0.59-0.59V2.66C9.13,2.33,8.86,2.07,8.53,2.07z
		 M8.92,3.88c0,0.21-0.17,0.39-0.39,0.39H7.31c-0.21,0-0.39-0.17-0.39-0.39V2.66c0-0.21,0.17-0.39,0.39-0.39h1.22
		c0.21,0,0.39,0.17,0.39,0.39L8.92,3.88L8.92,3.88z"/>
</g>
</svg>
