<?xml version="1.0" encoding="utf-8"?>
<!-- Generator: Adobe Illustrator 25.2.3, SVG Export Plug-In . SVG Version: 6.00 Build 0)  -->
<svg version="1.1" id="Layer_1" xmlns="http://www.w3.org/2000/svg" xmlns:xlink="http://www.w3.org/1999/xlink" x="0px" y="0px"
	 viewBox="0 0 36 36" style="enable-background:new 0 0 36 36;" xml:space="preserve">
<style type="text/css">
	.st0{fill:#7B6929;}
</style>
<g>
	<path class="st0" d="M31.94,21.76c0-0.01-0.01-0.03-0.01-0.04c0.26-1.22,0.42-2.66,0.47-4.29c0.05-1.71-0.09-3.24-0.4-4.54
		l0.65-2.3c0.22-0.76,0.02-1.55-0.53-2.1c-0.55-0.55-1.33-0.75-2.1-0.53l-2.47,0.7c-0.04,0.01-0.09,0.03-0.13,0.04
		c-0.51-0.09-1.08-0.21-1.69-0.33c-2.02-0.41-4.53-0.93-7.29-0.93s-5.27,0.52-7.29,0.93C10.53,8.5,9.96,8.62,9.45,8.71
		C9.4,8.69,9.36,8.68,9.31,8.66l-2.47-0.7C6.08,7.75,5.29,7.95,4.74,8.5c-0.55,0.55-0.75,1.33-0.53,2.1l0.65,2.3
		c-0.32,1.3-0.45,2.82-0.4,4.54c0.05,1.63,0.2,3.08,0.47,4.29c0,0.01-0.01,0.03-0.01,0.04l-0.7,2.47c-0.22,0.76-0.02,1.55,0.53,2.1
		c0.55,0.55,1.33,0.75,2.1,0.53l2.47-0.7c0.04-0.01,0.08-0.02,0.12-0.04c0.48,0.08,1.01,0.19,1.58,0.3c2.05,0.41,4.6,0.92,7.42,0.92
		s5.37-0.51,7.42-0.92c0.56-0.11,1.1-0.22,1.58-0.3c0.04,0.01,0.08,0.03,0.12,0.04l2.47,0.7c0.76,0.22,1.55,0.02,2.1-0.53
		c0.55-0.55,0.75-1.33,0.53-2.1L31.94,21.76z M31.46,25.69c-0.31,0.31-0.76,0.42-1.2,0.3l-2.47-0.7c-0.05-0.01-0.1-0.03-0.15-0.05
		l-0.12-0.05l-0.13,0.02c-0.52,0.09-1.11,0.2-1.73,0.33c-2.01,0.4-4.51,0.9-7.24,0.9s-5.23-0.5-7.24-0.9
		c-0.62-0.12-1.21-0.24-1.73-0.33l-0.13-0.02l-0.12,0.05c-0.05,0.02-0.1,0.04-0.15,0.05l-2.47,0.7c-0.44,0.12-0.89,0.01-1.2-0.3
		c-0.31-0.31-0.42-0.76-0.3-1.2l0.7-2.47c0.01-0.04,0.02-0.07,0.04-0.11l0.05-0.13l-0.03-0.13c-0.27-1.18-0.43-2.61-0.47-4.24
		c-0.05-1.68,0.09-3.16,0.41-4.4l0.03-0.12l-0.72-2.54c-0.12-0.44-0.01-0.89,0.3-1.2c0.31-0.31,0.76-0.42,1.2-0.3l2.47,0.7
		C9.12,9.56,9.17,9.58,9.22,9.6l0.12,0.05l0.13-0.02c0.55-0.09,1.18-0.22,1.85-0.36c1.98-0.41,4.44-0.91,7.1-0.91
		s5.12,0.51,7.1,0.91c0.67,0.14,1.29,0.27,1.85,0.36l0.13,0.02l0.12-0.05c0.05-0.02,0.11-0.04,0.16-0.06l2.47-0.7
		c0.44-0.12,0.89-0.01,1.2,0.3c0.31,0.31,0.42,0.76,0.3,1.2l-0.72,2.54L31.07,13c0.32,1.24,0.45,2.72,0.41,4.4
		c-0.05,1.63-0.21,3.06-0.47,4.24l-0.03,0.13l0.05,0.13c0.01,0.04,0.03,0.07,0.04,0.11l0.7,2.47
		C31.88,24.93,31.77,25.38,31.46,25.69z"/>
	<path class="st0" d="M7.35,17.41c-0.03-1.15,0.02-2.22,0.16-3.17c0.03-0.19-0.1-0.36-0.29-0.39c-0.19-0.03-0.36,0.1-0.39,0.29
		c-0.14,0.99-0.2,2.1-0.17,3.29c0.05,1.68,0.21,3.16,0.49,4.4c0.04,0.16,0.18,0.27,0.34,0.27c0.03,0,0.05,0,0.08-0.01
		c0.19-0.04,0.3-0.23,0.26-0.41C7.56,20.48,7.4,19.05,7.35,17.41z"/>
	<path class="st0" d="M7.32,13.33c0.03,0.01,0.05,0.01,0.08,0.01c0.16,0,0.3-0.11,0.33-0.26c0.01-0.04,0.02-0.07,0.03-0.11
		c0.05-0.18-0.06-0.37-0.25-0.42c-0.18-0.05-0.37,0.06-0.42,0.25c-0.01,0.04-0.02,0.08-0.03,0.12C7.02,13.1,7.13,13.29,7.32,13.33z"
		/>
</g>
</svg>
