<?xml version="1.0" encoding="utf-8"?>
<!-- Generator: Adobe Illustrator 25.2.3, SVG Export Plug-In . SVG Version: 6.00 Build 0)  -->
<svg version="1.1" id="Layer_1" xmlns="http://www.w3.org/2000/svg" xmlns:xlink="http://www.w3.org/1999/xlink" x="0px" y="0px"
	 viewBox="0 0 36 36" style="enable-background:new 0 0 36 36;" xml:space="preserve">
<style type="text/css">
	.st0{fill-rule:evenodd;clip-rule:evenodd;fill:#7B6929;}
</style>
<path id="imagebot_16" class="st0" d="M19.78,16.56c-0.49,0.77-1.25,0.85-1.23,0c0.02-0.85,1.3-3.4,1.3-3.4
	c0.32-0.91,0.78-1.54,1.4-1.9c0.62-0.36,1.57,0.15,2.28,0.14c0.71-0.01,1.43-0.47,1.94-0.19c0.5,0.28,0.84,0.69,1.08,1.45
	c0.24,0.76,0.32,2.22,0.36,3.03c0.03,0.81,0,1.42-0.15,1.78c-0.15,0.36-0.52,0.42-0.75,0.39c-0.23-0.03-0.43-0.22-0.62-0.58
	c0.04,2.42,0.04,4.28,0,5.68c-0.04,1.39,0.02,2.18-0.22,2.62c-0.24,0.44-0.97,0.59-1.2,0c-0.23-0.6-0.16-2.32-0.19-3.51
	c-0.03-1.2-0.02-2.38,0.02-3.61h-0.5c0.01,2.2,0,3.86-0.02,5.08c-0.03,1.21,0.09,1.78-0.14,2.14c-0.24,0.36-1,0.56-1.25,0
	c-0.25-0.57-0.2-1.64-0.33-3.5c-0.13-1.86-0.21-4.24-0.44-7.56l-0.67,0.98C20.43,15.61,20.28,15.79,19.78,16.56L19.78,16.56z"/>
<path id="imagebot_15" class="st0" d="M23.4,8.19c0.79,0,1.43,0.64,1.43,1.43s-0.64,1.43-1.43,1.43s-1.43-0.64-1.43-1.43
	C21.97,8.83,22.61,8.19,23.4,8.19"/>
<path class="st0" d="M24.73,8.15c-0.17-0.08-0.44-0.21-0.8-0.35c-0.37-0.14-1.09-0.39-1.38-0.47c-0.29-0.08-0.31-0.08-0.35,0
	c-0.04,0.07,0.07,0.29,0.12,0.42c0.04,0.12,0.08,0.22,0.14,0.3c-0.42,0.19-0.67,0.31-0.75,0.41C21.64,8.55,21.73,8.55,22,8.59
	c0.28,0.03,0.93,0.06,1.34,0.11c0.41,0.04,0.76,0.1,1.09,0.17c0.15-0.1,0.26-0.19,0.35-0.28c0.08-0.1,0.14-0.21,0.14-0.28
	C24.9,8.22,24.9,8.23,24.73,8.15z M24.62,8.56c-0.58-0.2-1.03-0.33-1.37-0.42c-0.35-0.09-0.56-0.12-0.67-0.1
	c-0.15-0.25-0.2-0.41-0.17-0.49c0.03-0.09,0.04-0.08,0.37,0.01c0.34,0.09,1.31,0.43,1.64,0.57c0.32,0.12,0.27,0.15,0.3,0.22
	C24.74,8.41,24.72,8.49,24.62,8.56z"/>
<path class="st0" d="M18.41,20.37c-0.05-0.47-0.05-0.4-0.23-0.91c-0.19-0.51-0.56-1.51-0.84-2.11c-0.28-0.6-0.58-1.12-0.8-1.43
	c-0.21-0.31-0.28-0.35-0.48-0.43c-0.21-0.09-0.48-0.07-0.75-0.09c-0.27-0.02-0.55-0.03-0.84-0.04h-3.39c-0.31,0-0.59,0.01-0.86,0.04
	c-0.27,0.02-0.55,0-0.75,0.09c-0.21,0.08-0.27,0.12-0.48,0.43c-0.22,0.31-0.52,0.83-0.8,1.43c-0.28,0.6-0.66,1.6-0.84,2.11
	c-0.18,0.5-0.19,0.44-0.23,0.91c-0.05,0.46-0.13,1.37-0.04,1.86c0.08,0.48,0.28,0.8,0.55,1.04c0.26,0.23,0.57,0.35,0.98,0.36
	c-0.02,0.5-0.02,0.88,0,1.16c0.01,0.27-0.01,0.4,0.11,0.5c0.13,0.1,0.43,0.1,0.63,0.12c0.19,0.01,0.4,0.01,0.5-0.07
	c0.09-0.08,0.07-0.15,0.09-0.43c0.02-0.29,0.03-0.72,0.02-1.29h5.56c0.01,0.58,0.03,1,0.05,1.29c0.02,0.28-0.01,0.35,0.09,0.43
	c0.1,0.08,0.3,0.08,0.5,0.07c0.19-0.01,0.5-0.01,0.64-0.12c0.13-0.1,0.09-0.23,0.11-0.5c0.02-0.28,0.02-0.66,0-1.16
	c0.4-0.01,0.72-0.13,0.98-0.36c0.26-0.24,0.46-0.56,0.55-1.04C18.54,21.74,18.46,20.84,18.41,20.37z M8.75,22.41
	c-0.59,0-1.07-0.48-1.07-1.07c0-0.59,0.48-1.07,1.07-1.07c0.59,0,1.07,0.48,1.07,1.07C9.82,21.93,9.34,22.41,8.75,22.41z
	 M14.29,22.21h-3.03c-0.32,0-0.57-0.17-0.57-0.39c0-0.21,0.26-0.39,0.57-0.39h1.51h1.51c0.32,0,0.57,0.17,0.57,0.39
	C14.87,22.04,14.61,22.21,14.29,22.21z M14.29,21.17h-3.03c-0.32,0-0.57-0.17-0.57-0.38c0-0.21,0.26-0.38,0.57-0.38h1.51h1.51
	c0.32,0,0.57,0.17,0.57,0.38C14.87,20.99,14.61,21.17,14.29,21.17z M14.78,19.15c-0.89,0-3.16,0-4.04,0c-0.87,0-0.79,0-1.14-0.02
	c-0.35-0.03-0.75-0.06-0.93-0.16c-0.18-0.1-0.15-0.23-0.12-0.45c0.04-0.23,0.19-0.58,0.34-0.91c0.15-0.34,0.36-0.85,0.52-1.11
	c0.15-0.26,0.22-0.36,0.39-0.45c0.16-0.1,0.37-0.11,0.59-0.14c0.22-0.03,0.46-0.04,0.73-0.02h3.31c0.26-0.01,0.5,0,0.73,0.02
	c0.22,0.03,0.42,0.03,0.59,0.14c0.16,0.09,0.23,0.19,0.39,0.45c0.15,0.26,0.37,0.77,0.52,1.11c0.14,0.33,0.3,0.68,0.34,0.91
	c0.03,0.22,0.06,0.35-0.12,0.45c-0.18,0.1-0.58,0.13-0.93,0.16C15.6,19.15,15.65,19.15,14.78,19.15z M16.81,22.41
	c-0.59,0-1.07-0.48-1.07-1.07c0-0.59,0.48-1.07,1.07-1.07c0.59,0,1.07,0.48,1.07,1.07C17.88,21.93,17.4,22.41,16.81,22.41z"/>
</svg>
