<?xml version="1.0" encoding="utf-8"?>
<!-- Generator: Adobe Illustrator 25.2.3, SVG Export Plug-In . SVG Version: 6.00 Build 0)  -->
<svg version="1.1" id="Layer_1" xmlns="http://www.w3.org/2000/svg" xmlns:xlink="http://www.w3.org/1999/xlink" x="0px" y="0px"
	 viewBox="0 0 36 36" style="enable-background:new 0 0 36 36;" xml:space="preserve">
<style type="text/css">
	.st0{fill:#7B6929;}
</style>
<g>
	<path class="st0" d="M30.11,11.79h-1.89l0-1.13c0-0.47-0.09-0.94-0.31-1.36c-0.77-1.47-2.44-2.08-4.02-1.41
		c-1.08,0.45-1.73,1.56-1.73,2.72l0,1.17h-0.76l0-1.13c0-0.47-0.09-0.94-0.31-1.36c-0.77-1.47-2.44-2.08-4.02-1.41
		c-1.08,0.45-1.73,1.56-1.73,2.72l0,1.17H6.64c-0.21,0-0.38,0.17-0.38,0.38v12.49c0,0.21,0.17,0.38,0.38,0.38h23.47
		c0.21,0,0.38-0.17,0.38-0.38V12.17C30.49,11.96,30.32,11.79,30.11,11.79z M22.16,16.33v0.76c-0.67,0.02-1.05,0.24-1.37,0.43
		c-0.3,0.18-0.56,0.33-1.11,0.33c-0.55,0-0.81-0.15-1.11-0.33c-0.25-0.15-0.53-0.3-0.94-0.38v-0.81L22.16,16.33L22.16,16.33z
		 M17.07,17.74c0.06,0,0.11,0,0.16,0.01c0,0,0,0,0.01,0l0.01,0c0.43,0.03,0.67,0.17,0.94,0.32c0.35,0.2,0.74,0.43,1.49,0.43
		c0.75,0,1.15-0.23,1.49-0.43c0.3-0.18,0.56-0.33,1.11-0.33c0.55,0,0.81,0.15,1.11,0.33c0.15,0.09,0.31,0.18,0.5,0.25
		c0.01,0,0.01,0.01,0.02,0.01c0.25,0.1,0.55,0.17,0.97,0.17c0.75,0,1.15-0.23,1.49-0.43c0.3-0.18,0.56-0.33,1.12-0.33
		c0.55,0,0.81,0.15,1.11,0.33c0.28,0.16,0.6,0.34,1.12,0.41v1.51c-0.31-0.05-0.51-0.17-0.74-0.3c-0.35-0.2-0.74-0.43-1.49-0.43
		c-0.75,0-1.15,0.23-1.5,0.43c-0.3,0.18-0.56,0.33-1.11,0.33c-0.55,0-0.81-0.15-1.11-0.33c-0.35-0.2-0.74-0.43-1.49-0.43
		c-0.75,0-1.15,0.23-1.49,0.43c-0.3,0.18-0.56,0.33-1.11,0.33c-0.55,0-0.81-0.15-1.11-0.33c-0.35-0.2-0.74-0.43-1.49-0.43
		c-0.75,0-1.15,0.23-1.49,0.43c-0.3,0.18-0.56,0.33-1.11,0.33c-0.55,0-0.81-0.15-1.11-0.33c-0.35-0.2-0.74-0.43-1.49-0.43
		c-0.75,0-1.15,0.23-1.49,0.43c-0.3,0.18-0.56,0.33-1.11,0.33c-0.55,0-0.81-0.15-1.11-0.33c-0.28-0.16-0.6-0.34-1.11-0.41v-1.51
		c0.31,0.05,0.51,0.17,0.73,0.3c0.35,0.2,0.74,0.43,1.49,0.43s1.15-0.23,1.49-0.43c0.3-0.18,0.56-0.33,1.11-0.33
		c0.55,0,0.81,0.15,1.11,0.33c0.35,0.2,0.74,0.43,1.49,0.43c0.75,0,1.15-0.23,1.49-0.43C16.26,17.89,16.52,17.74,17.07,17.74
		L17.07,17.74z M25.95,11.79h-1.51v-1.14c0-0.2,0.08-0.39,0.22-0.53c0.19-0.19,0.47-0.27,0.74-0.19c0.31,0.08,0.55,0.45,0.55,0.77
		L25.95,11.79z M24.43,14.82h5.3v3c-0.31-0.05-0.51-0.17-0.74-0.3c-0.35-0.2-0.74-0.43-1.49-0.43c-0.75,0-1.15,0.23-1.5,0.43
		c-0.3,0.18-0.56,0.33-1.11,0.33c-0.18,0-0.33-0.02-0.46-0.05V14.82L24.43,14.82z M15.35,17.64c-0.23,0.12-0.48,0.2-0.89,0.2
		c-0.55,0-0.81-0.15-1.11-0.33c-0.35-0.2-0.74-0.43-1.49-0.43s-1.15,0.23-1.49,0.43c-0.3,0.18-0.56,0.33-1.11,0.33
		c-0.55,0-0.81-0.15-1.11-0.33c-0.28-0.16-0.6-0.34-1.11-0.41v-2.29h8.33V17.64z M7.02,20.04c0.31,0.05,0.51,0.17,0.73,0.3
		c0.35,0.2,0.74,0.43,1.49,0.43s1.15-0.23,1.49-0.43c0.3-0.18,0.56-0.33,1.11-0.33c0.55,0,0.81,0.15,1.11,0.33
		c0.35,0.2,0.74,0.43,1.49,0.43c0.75,0,1.15-0.23,1.49-0.43c0.3-0.18,0.56-0.33,1.11-0.33c0.55,0,0.81,0.15,1.11,0.33
		c0.35,0.2,0.74,0.43,1.49,0.43c0.75,0,1.15-0.23,1.49-0.43c0.3-0.18,0.56-0.33,1.11-0.33c0.55,0,0.81,0.15,1.11,0.33
		c0.35,0.2,0.74,0.43,1.49,0.43c0.75,0,1.15-0.23,1.49-0.43c0.3-0.18,0.56-0.33,1.12-0.33c0.55,0,0.81,0.15,1.11,0.33
		c0.28,0.16,0.6,0.34,1.12,0.41v1.51c-0.31-0.05-0.51-0.17-0.74-0.3c-0.35-0.2-0.74-0.43-1.49-0.43c-0.75,0-1.15,0.23-1.5,0.43
		c-0.3,0.18-0.56,0.33-1.11,0.33c-0.55,0-0.81-0.15-1.11-0.33c-0.35-0.2-0.74-0.43-1.49-0.43c-0.75,0-1.15,0.23-1.49,0.43
		c-0.3,0.18-0.56,0.33-1.11,0.33c-0.55,0-0.81-0.15-1.11-0.33c-0.35-0.2-0.74-0.43-1.49-0.43c-0.75,0-1.15,0.23-1.49,0.43
		c-0.3,0.18-0.56,0.33-1.11,0.33c-0.55,0-0.81-0.15-1.11-0.33c-0.35-0.2-0.74-0.43-1.49-0.43c-0.75,0-1.15,0.23-1.49,0.43
		c-0.3,0.18-0.56,0.33-1.11,0.33c-0.55,0-0.81-0.15-1.11-0.33c-0.28-0.16-0.6-0.34-1.11-0.41V20.04L7.02,20.04z M29.73,14.06h-5.3
		v-1.51h5.3V14.06z M22.16,14.06h-4.54v-1.51h4.54V14.06z M19.14,11.79h-1.51v-1.14c0-0.2,0.08-0.39,0.22-0.53
		c0.19-0.19,0.47-0.27,0.74-0.19c0.31,0.08,0.55,0.45,0.55,0.77L19.14,11.79z M16.11,10.74c0-1.16,0.83-2.2,1.98-2.34
		c0.85-0.1,1.66,0.26,2.16,0.97c0.28,0.39,0.4,0.88,0.4,1.36l0,1.07h-0.76v-1.07c0-0.69-0.54-1.43-1.22-1.55
		c-0.69-0.13-1.35,0.2-1.67,0.86c-0.1,0.2-0.13,0.42-0.13,0.64l0,3.77c0,0.21,0.17,0.38,0.38,0.38h5.3c0.21,0,0.38-0.17,0.38-0.38
		l0-3.7c0-1.16,0.83-2.2,1.98-2.34c0.85-0.1,1.66,0.26,2.16,0.97c0.28,0.39,0.4,0.88,0.4,1.36l0,1.07h-0.76v-1.07
		c0-0.69-0.54-1.43-1.22-1.55c-0.69-0.13-1.35,0.2-1.67,0.86c-0.1,0.2-0.13,0.42-0.13,0.64l0,6.79c-0.21-0.12-0.44-0.23-0.76-0.3
		v-1.2c0-0.21-0.17-0.38-0.38-0.38h-5.3c-0.21,0-0.38,0.17-0.38,0.38v1.14c-0.31,0.02-0.55,0.08-0.76,0.16L16.11,10.74z M7.02,12.55
		h8.33v1.51H7.02V12.55z M7.02,24.28v-1.86c0.31,0.05,0.51,0.17,0.73,0.3c0.35,0.2,0.74,0.43,1.49,0.43s1.15-0.23,1.49-0.43
		c0.3-0.18,0.56-0.33,1.11-0.33c0.55,0,0.81,0.15,1.11,0.33c0.35,0.2,0.74,0.43,1.49,0.43c0.75,0,1.15-0.23,1.49-0.43
		c0.3-0.18,0.56-0.33,1.11-0.33c0.55,0,0.81,0.15,1.11,0.33c0.35,0.2,0.74,0.43,1.49,0.43c0.75,0,1.15-0.23,1.49-0.43
		c0.3-0.18,0.56-0.33,1.11-0.33c0.55,0,0.81,0.15,1.11,0.33c0.35,0.2,0.74,0.43,1.49,0.43c0.75,0,1.15-0.23,1.49-0.43
		c0.3-0.18,0.56-0.33,1.12-0.33c0.55,0,0.81,0.15,1.11,0.33c0.28,0.16,0.6,0.34,1.12,0.41v1.16L7.02,24.28L7.02,24.28z"/>
</g>
</svg>
