<?xml version="1.0" encoding="utf-8"?>
<!-- Generator: Adobe Illustrator 25.2.3, SVG Export Plug-In . SVG Version: 6.00 Build 0)  -->
<svg version="1.1" id="Layer_1" xmlns="http://www.w3.org/2000/svg" xmlns:xlink="http://www.w3.org/1999/xlink" x="0px" y="0px"
	 viewBox="0 0 36 36" style="enable-background:new 0 0 36 36;" xml:space="preserve">
<style type="text/css">
	.st0{fill:#7B6929;}
</style>
<g transform="translate(1.4065934065934016 1.4065934065934016) scale(2.81 2.81)">
	<path class="st0" d="M9.45,8.11C9.2,7.97,8.95,7.9,8.7,7.9C8.34,7.49,7.68,7.19,6.9,7.05l0.58-2.16C7.63,4.97,7.76,5.1,7.87,5.28
		c0,0.01,0.01,0.01,0.01,0.02c0,0,0,0,0,0c0,0,0,0,0,0C7.9,5.3,7.91,5.3,7.91,5.3c0,0,0,0,0.01,0c0,0,0,0,0,0c0,0,0,0,0,0
		c0,0,0,0,0,0c0.01,0,0.01,0,0.02,0c0,0,0,0,0,0c0,0,0,0,0,0c0,0,0,0,0,0c0,0,0,0,0.01,0c0,0,0.01,0,0.01,0c0,0,0,0,0.01,0
		c0,0,0,0,0,0c0.56-0.28,1-0.16,1.34,0.36c0,0.01,0.01,0.01,0.02,0.02c0,0,0,0,0,0c0.01,0.01,0.02,0.01,0.02,0.01c0,0,0,0,0,0
		c0,0,0,0,0,0c0.01,0,0.01,0,0.02,0c0.01,0,0.02,0,0.02,0c0,0,0.01,0,0.01,0c0,0,0.01,0,0.01-0.01c0,0,0,0,0,0
		c0.01-0.01,0.01-0.01,0.02-0.02c0,0,0,0,0,0c0-0.01,0.01-0.01,0.01-0.02c0.13-0.5,0.02-1.02-0.31-1.49C8.81,3.69,8.3,3.35,7.7,3.19
		C7.11,3.03,6.49,3.07,5.97,3.3C5.45,3.53,5.09,3.94,4.96,4.43c0,0,0,0,0,0c0,0,0,0,0,0c0,0,0,0.01,0,0.01c0,0.01,0,0.01,0,0.02
		c0,0.01,0,0.01,0,0.02c0,0,0,0.01,0,0.01c0,0,0,0,0,0c0,0.01,0.01,0.01,0.01,0.01c0,0,0.01,0.01,0.01,0.01c0,0,0.01,0,0.01,0.01
		c0.01,0,0.01,0.01,0.02,0.01c0,0,0,0,0,0c0,0,0.01,0,0.01,0c0.01,0,0.01,0,0.02,0c0.01,0,0.01,0,0.02,0c0,0,0.01,0,0.01,0
		c0.56-0.28,1-0.16,1.34,0.36c0,0.01,0.01,0.01,0.02,0.02c0,0,0,0,0,0c0.01,0.01,0.01,0.01,0.02,0.01c0,0,0,0,0,0c0,0,0,0,0,0
		c0,0,0.01,0,0.01,0c0.02,0.01,0.04,0.01,0.06,0c0.18-0.09,0.35-0.14,0.51-0.15L6.45,6.99c-0.16-0.01-0.33-0.02-0.5-0.02
		c-1.17,0-2.25,0.37-2.75,0.94c-0.25,0-0.5,0.07-0.75,0.21C2.41,8.13,2.4,8.18,2.42,8.22c0.02,0.04,0.07,0.05,0.11,0.03
		c0.44-0.26,0.87-0.26,1.31,0c0.24,0.14,0.49,0.21,0.73,0.21c0.24,0,0.49-0.07,0.73-0.21c0.44-0.26,0.87-0.26,1.31,0
		c0.49,0.28,0.98,0.28,1.46,0c0.44-0.26,0.87-0.26,1.31,0c0.04,0.02,0.09,0.01,0.11-0.03C9.5,8.18,9.49,8.13,9.45,8.11z M6.6,4.71
		c0.28-0.92,0.77-1.45,1.07-1.37c0.3,0.08,0.45,0.77,0.24,1.71C7.56,4.62,7.12,4.5,6.6,4.71z M9.02,4.24
		C9.29,4.61,9.4,5.03,9.34,5.43C9,5.01,8.57,4.89,8.05,5.1C8.21,4.41,8.19,3.8,8.01,3.46C8.42,3.64,8.77,3.9,9.02,4.24z M5.17,4.31
		c0.15-0.37,0.45-0.68,0.87-0.87C6.42,3.27,6.86,3.22,7.3,3.27c-0.33,0.2-0.65,0.72-0.86,1.39C6.1,4.23,5.68,4.12,5.17,4.31z
		 M7.21,4.78C7.25,4.79,7.3,4.8,7.34,4.81L6.75,7.02C6.7,7.01,6.66,7.01,6.61,7L7.21,4.78z M7.99,8.11c-0.44,0.26-0.87,0.26-1.31,0
		c-0.49-0.28-0.98-0.28-1.46,0c-0.44,0.26-0.87,0.26-1.31,0C3.74,8.01,3.57,7.95,3.4,7.92c0.51-0.49,1.48-0.8,2.55-0.8
		S8,7.43,8.5,7.92C8.33,7.95,8.16,8.01,7.99,8.11z"/>
	<path class="st0" d="M3.25,4.34c-0.01,0-0.03,0-0.04-0.01c-0.05-0.01-0.09-0.05-0.1-0.1L3.03,4.02L2.81,4.04
		c-0.05,0-0.1-0.01-0.13-0.05C2.64,3.95,2.63,3.9,2.64,3.85L2.7,3.63l-0.2-0.1C2.45,3.5,2.42,3.46,2.41,3.41
		C2.4,3.36,2.42,3.31,2.46,3.27l0.17-0.16L2.51,2.92C2.48,2.88,2.48,2.83,2.5,2.78C2.52,2.73,2.56,2.7,2.61,2.69l0.22-0.04
		l0.01-0.23c0-0.05,0.03-0.1,0.07-0.12c0.04-0.03,0.1-0.03,0.14-0.01l0.21,0.09L3.4,2.19c0.03-0.04,0.08-0.07,0.13-0.07
		c0.05,0,0.1,0.02,0.13,0.07l0.13,0.19l0.21-0.09C4.04,2.27,4.1,2.27,4.14,2.3c0.04,0.03,0.07,0.07,0.07,0.12l0.01,0.23l0.22,0.04
		C4.49,2.7,4.53,2.73,4.55,2.78c0.02,0.05,0.02,0.1-0.01,0.14l-0.11,0.2L4.6,3.27c0.04,0.03,0.05,0.09,0.05,0.14
		C4.64,3.46,4.61,3.5,4.56,3.53l-0.2,0.1l0.06,0.22c0.01,0.05,0,0.1-0.03,0.14C4.35,4.03,4.3,4.04,4.25,4.04L4.02,4.02L3.95,4.23
		c-0.02,0.05-0.06,0.08-0.1,0.1c-0.05,0.01-0.1,0-0.14-0.03L3.53,4.16L3.35,4.3C3.32,4.33,3.29,4.34,3.25,4.34z M3.03,3.86
		c0.07,0,0.13,0.04,0.15,0.11l0.07,0.22l0.18-0.14c0.06-0.05,0.14-0.05,0.19,0L3.8,4.18l0.07-0.21C3.9,3.9,3.96,3.85,4.04,3.86
		l0.23,0.02L4.21,3.66C4.19,3.59,4.22,3.52,4.29,3.49l0.2-0.1L4.32,3.23C4.27,3.18,4.26,3.1,4.3,3.04l0.11-0.2L4.19,2.8
		C4.12,2.79,4.06,2.73,4.06,2.66L4.05,2.43L3.84,2.52c-0.07,0.03-0.14,0-0.19-0.05L3.53,2.28L3.4,2.46
		C3.36,2.52,3.28,2.54,3.21,2.52L3,2.43L2.99,2.66c0,0.07-0.06,0.13-0.13,0.15L2.64,2.85l0.12,0.19C2.8,3.1,2.78,3.18,2.73,3.23
		L2.57,3.39l0.2,0.1c0.06,0.03,0.1,0.11,0.08,0.18L2.79,3.89l0.22-0.02C3.02,3.86,3.03,3.86,3.03,3.86z"/>
	<path class="st0" d="M3.53,3.78c-0.3,0-0.55-0.25-0.55-0.55s0.25-0.55,0.55-0.55s0.55,0.25,0.55,0.55S3.83,3.78,3.53,3.78z
		 M3.53,2.83c-0.22,0-0.39,0.18-0.39,0.39c0,0.22,0.18,0.39,0.39,0.39c0.22,0,0.39-0.18,0.39-0.39C3.92,3.01,3.74,2.83,3.53,2.83z"
		/>
</g>
</svg>
