<?xml version="1.0" encoding="utf-8"?>
<!-- Generator: Adobe Illustrator 25.2.3, SVG Export Plug-In . SVG Version: 6.00 Build 0)  -->
<svg version="1.1" id="Layer_1" xmlns="http://www.w3.org/2000/svg" xmlns:xlink="http://www.w3.org/1999/xlink" x="0px" y="0px"
	 viewBox="0 0 36 36" style="enable-background:new 0 0 36 36;" xml:space="preserve">
<style type="text/css">
	.st0{fill:#7B6929;}
</style>
<g>
	<path class="st0" d="M14.95,24.57c1.1,0,2.15-0.31,3.05-0.9c0.91-0.6,1.95-0.82,2.88-0.6c0.33,0.08,0.66,0.12,0.98,0.12
		c2.12,0,3.85-1.61,3.85-3.59c0-1.98-1.73-3.59-3.85-3.59c-0.33,0-0.66,0.04-0.97,0.12c-0.92,0.23-1.96,0.01-2.88-0.59
		c-0.54-0.36-1.14-0.61-1.77-0.76v1.88c0,0.7-0.58,1.28-1.28,1.28c-0.63,0-1.16-0.46-1.26-1.06h-0.61c-0.1,0.6-0.63,1.06-1.26,1.06
		c-0.65,0-1.18-0.48-1.27-1.11c-0.58,0.81-0.91,1.77-0.91,2.77C9.64,22.34,12.03,24.57,14.95,24.57L14.95,24.57z M21.78,18.76h1.59
		c0.24,0,0.43,0.19,0.43,0.43c0,0.24-0.19,0.43-0.43,0.43h-1.59c-0.24,0-0.43-0.19-0.43-0.43C21.35,18.95,21.54,18.76,21.78,18.76z
		 M18.46,20.25h1.59c0.24,0,0.43,0.19,0.43,0.43c0,0.24-0.19,0.43-0.43,0.43h-1.59c-0.24,0-0.43-0.19-0.43-0.43
		C18.03,20.44,18.22,20.25,18.46,20.25z M16,18.37h1.59c0.24,0,0.43,0.19,0.43,0.43s-0.19,0.43-0.43,0.43H16
		c-0.24,0-0.43-0.19-0.43-0.43C15.58,18.57,15.76,18.37,16,18.37z M12.35,19.51h1.59c0.24,0,0.43,0.19,0.43,0.43
		c0,0.24-0.19,0.43-0.43,0.43h-1.59c-0.24,0-0.43-0.19-0.43-0.43C11.92,19.7,12.11,19.51,12.35,19.51z"/>
	<path class="st0" d="M22.02,14.06c-0.49,0-0.97,0.06-1.44,0.17c-0.11,0.02-0.23,0.04-0.35,0.04c-0.38,0-0.81-0.15-1.21-0.41
		c-0.85-0.55-1.79-0.93-2.78-1.11v1.15c0.8,0.15,1.55,0.46,2.24,0.91c0.72,0.47,1.51,0.65,2.21,0.48c0.38-0.09,0.78-0.14,1.18-0.14
		c2.59,0,4.7,1.99,4.7,4.44s-2.11,4.44-4.7,4.44c-0.39,0-0.79-0.05-1.18-0.14c-0.7-0.17-1.49,0-2.2,0.48
		c-1.05,0.68-2.26,1.04-3.52,1.04c-3.4,0-6.17-2.61-6.17-5.82c0-1.53,0.65-2.99,1.75-4.06v-1.55c-1.82,1.26-3,3.31-3,5.62
		c0,3.84,3.29,6.96,7.32,6.96c1.5,0,2.93-0.42,4.16-1.23c0.4-0.26,0.83-0.41,1.21-0.41c0.12,0,0.24,0.01,0.35,0.04
		c0.47,0.12,0.95,0.17,1.44,0.17c3.2,0,5.8-2.49,5.8-5.54C27.81,16.55,25.21,14.06,22.02,14.06L22.02,14.06z"/>
	<path class="st0" d="M24.39,13.63v-2.35h0.69c-0.05-2.17-0.99-3.97-1.51-4.81c-0.52,0.84-1.46,2.64-1.51,4.81h0.69v1.97
		C23.32,13.31,23.87,13.44,24.39,13.63L24.39,13.63z"/>
	<path class="st0" d="M11.82,17.08c0.24,0,0.43-0.19,0.43-0.43v-0.63h2.28v0.63c0,0.24,0.19,0.43,0.43,0.43
		c0.24,0,0.43-0.19,0.43-0.43l0-5.32c0-0.31,0.25-0.56,0.56-0.56c0.31,0,0.56,0.25,0.56,0.56v0.07c0,0.24,0.19,0.43,0.43,0.43
		c0.24,0,0.43-0.19,0.43-0.43v-0.07c0-0.78-0.64-1.42-1.42-1.42c-0.78,0-1.42,0.64-1.42,1.42v1.03h-2.28v-1.03
		c0-0.31,0.25-0.56,0.56-0.56c0.31,0,0.56,0.25,0.56,0.56v0.07c0,0.24,0.19,0.43,0.43,0.43c0.24,0,0.43-0.19,0.43-0.43v-0.07
		c0-0.78-0.64-1.42-1.42-1.42c-0.78,0-1.42,0.64-1.42,1.42v5.32C11.39,16.89,11.59,17.08,11.82,17.08L11.82,17.08z M12.25,13.22
		h2.28v0.56h-2.28V13.22z M12.25,14.64h2.28v0.53h-2.28V14.64z"/>
	<path class="st0" d="M22.71,6.24c-2.3,0.41-4.04,2.41-4.04,4.82v0.22h2.53C21.25,9.06,22.12,7.23,22.71,6.24L22.71,6.24z"/>
	<path class="st0" d="M27.03,7.59c-0.69-0.69-1.59-1.18-2.6-1.36c0.59,0.99,1.46,2.82,1.5,5.04h2.53v-0.22
		C28.47,9.71,27.92,8.48,27.03,7.59L27.03,7.59z"/>
</g>
</svg>
