<?xml version="1.0" encoding="utf-8"?>
<!-- Generator: Adobe Illustrator 25.2.3, SVG Export Plug-In . SVG Version: 6.00 Build 0)  -->
<svg version="1.1" id="Layer_1" xmlns="http://www.w3.org/2000/svg" xmlns:xlink="http://www.w3.org/1999/xlink" x="0px" y="0px"
	 viewBox="0 0 36 36" style="enable-background:new 0 0 36 36;" xml:space="preserve">
<style type="text/css">
	.st0{fill:#7B6929;}
</style>
<path class="st0" d="M26.99,20.06c-5.34,0-10.69,0-16.03,0c-0.16,0-0.28,0.03-0.38,0.17c0,0.13,0,0.26,0,0.39
	c0.04,0.12,0.03,0.26,0.08,0.38c0.29,0.73,0.98,1.2,1.77,1.21c0.47,0,0.94,0,1.41,0c0.05,0,0.1,0,0.15,0c0.18-0.02,0.3-0.14,0.3-0.3
	c0-0.17-0.12-0.29-0.3-0.31c-0.06-0.01-0.12,0-0.18,0c-0.46,0-0.93,0.01-1.39,0c-0.48-0.01-0.86-0.22-1.1-0.65
	c-0.16-0.28-0.14-0.3,0.17-0.3c3.82,0,7.65,0,11.47,0c0.08,0,0.15,0,0.25,0c-0.18,0.17-0.34,0.31-0.51,0.45
	c-0.61,0.55-1.22,1.09-1.82,1.65c-0.14,0.13-0.3,0.19-0.48,0.2c-0.52,0.03-1.04,0.08-1.57,0.12c-0.28,0.02-0.55,0.06-0.83,0.05
	c-0.15-0.01-0.28-0.06-0.37-0.18c-0.03-0.04-0.08-0.09-0.06-0.15c0.03-0.06,0.1-0.03,0.15-0.03c0.39,0,0.78,0,1.16,0
	c0.65-0.01,1.13-0.44,1.21-1.08c0.05-0.41-0.1-0.58-0.51-0.58c-1.18,0-2.36,0-3.54,0c-0.39,0-0.72,0.14-1,0.42
	c-0.17,0.18-0.27,0.39-0.36,0.62c-0.1,0.26-0.2,0.52-0.31,0.78c-0.03,0.07-0.06,0.14-0.17,0.1c-0.31-0.11-0.37-0.09-0.55,0.18
	c-0.54,0.78-1.08,1.56-1.62,2.34c-0.21,0.3-0.42,0.6-0.62,0.9c-0.14,0.21-0.09,0.38,0.13,0.47c1.9,0,3.8,0,5.7,0
	c0.09-0.03,0.15-0.08,0.2-0.15c0.19-0.25,0.38-0.51,0.57-0.76c0.07-0.1,0.16-0.15,0.28-0.19c1.01-0.3,2.02-0.62,3.02-0.92
	c0.12-0.04,0.23-0.1,0.32-0.19c0.74-0.74,1.47-1.48,2.21-2.21c0.14-0.13,0.2-0.3,0.22-0.48c0.02-0.24,0-0.47-0.09-0.69
	c-0.08-0.22-0.18-0.44-0.33-0.64c0.98,0,1.94,0,2.9,0c0.02,0,0.03,0,0.05,0c0.15,0.01,0.17,0.03,0.11,0.17
	c-0.22,0.51-0.62,0.77-1.16,0.79c-0.25,0.01-0.5,0-0.75,0c-0.21,0.01-0.34,0.12-0.34,0.3c0,0.18,0.13,0.3,0.35,0.31
	c0.22,0.01,0.44-0.01,0.66,0c0.93,0.04,1.81-0.64,1.92-1.59c0-0.13,0-0.26,0-0.39C27.27,20.1,27.15,20.06,26.99,20.06z M12.15,26.35
	c-0.02-0.03,0.01-0.05,0.03-0.08c0.34-0.52,0.69-1.03,1.03-1.55c0.04-0.06,0.06-0.12,0.16-0.06c0.92,0.56,1.84,1.11,2.76,1.66
	c0.01,0,0.01,0.01,0.02,0.03C14.81,26.35,13.48,26.35,12.15,26.35z M17.48,25.73c-0.12,0.15-0.24,0.31-0.35,0.47
	c-0.04,0.05-0.07,0.07-0.13,0.03c-1.12-0.68-2.25-1.35-3.38-2.03c-0.01-0.01-0.01-0.02-0.02-0.03c0.13-0.18,0.27-0.35,0.4-0.54
	c0.05-0.07,0.09-0.06,0.16-0.02c1.1,0.66,2.19,1.32,3.29,1.98C17.51,25.63,17.54,25.66,17.48,25.73z M23.48,21.97
	c-0.01,0.06-0.05,0.09-0.09,0.13c-0.71,0.71-1.41,1.41-2.12,2.12c-0.05,0.05-0.11,0.09-0.18,0.11c-1,0.31-2.01,0.61-3.01,0.93
	c-0.09,0.03-0.15,0.02-0.23-0.03c-0.98-0.59-1.97-1.19-2.96-1.77c-0.09-0.05-0.11-0.09-0.07-0.19c0.15-0.36,0.29-0.72,0.43-1.07
	c0.15-0.38,0.4-0.55,0.8-0.55c1.11,0,2.22,0,3.33,0c0.04,0,0.08,0,0.11,0c-0.02,0.31-0.29,0.53-0.67,0.53c-0.53,0-1.06,0-1.59,0
	c-0.31,0-0.41,0.12-0.33,0.42c0.03,0.12,0.06,0.24,0.1,0.36c0.14,0.46,0.55,0.77,1.04,0.74c0.93-0.06,1.85-0.14,2.78-0.21
	c0.1-0.01,0.17-0.07,0.24-0.13c0.76-0.69,1.53-1.37,2.3-2.07C23.48,21.5,23.52,21.73,23.48,21.97z"/>
<path class="st0" d="M15.29,11.9c-0.04-0.12-0.13-0.18-0.26-0.2c-0.39-0.06-0.78-0.12-1.16-0.18c-0.08-0.01-0.12-0.04-0.15-0.12
	c-0.16-0.35-0.32-0.69-0.48-1.04c-0.05-0.1-0.11-0.2-0.2-0.27c-0.07,0-0.13,0-0.2,0c-0.11,0.03-0.17,0.11-0.22,0.2
	c-0.15,0.33-0.31,0.65-0.45,0.98c-0.06,0.14-0.16,0.2-0.31,0.22c-0.35,0.05-0.69,0.1-1.04,0.16c-0.12,0.02-0.21,0.08-0.24,0.21
	c0,0.05,0,0.11,0,0.16c0.04,0.07,0.08,0.13,0.14,0.18c0.26,0.26,0.51,0.54,0.78,0.79c0.09,0.09,0.11,0.17,0.09,0.29
	c-0.07,0.39-0.13,0.77-0.19,1.16c-0.02,0.13-0.01,0.24,0.11,0.32c0.11,0.07,0.21,0.04,0.32-0.02c0.34-0.19,0.68-0.37,1.01-0.56
	c0.08-0.04,0.13-0.04,0.21,0c0.34,0.19,0.68,0.37,1.01,0.56c0.11,0.06,0.21,0.09,0.32,0.01c0.11-0.07,0.13-0.18,0.11-0.3
	c-0.07-0.39-0.12-0.78-0.19-1.16c-0.02-0.12-0.01-0.21,0.09-0.3c0.27-0.27,0.54-0.54,0.8-0.82C15.27,12.11,15.33,12.01,15.29,11.9z
	 M13.88,12.78c-0.13,0.12-0.16,0.25-0.13,0.42c0.06,0.28,0.09,0.56,0.14,0.86c-0.25-0.14-0.5-0.27-0.73-0.41
	c-0.15-0.09-0.28-0.09-0.43,0c-0.24,0.14-0.48,0.27-0.74,0.41c0.05-0.32,0.09-0.61,0.15-0.91c0.03-0.14-0.01-0.25-0.11-0.35
	c-0.21-0.21-0.42-0.43-0.64-0.66c0.32-0.05,0.6-0.1,0.89-0.14c0.13-0.02,0.21-0.09,0.27-0.21c0.12-0.27,0.25-0.53,0.39-0.82
	c0.14,0.29,0.26,0.55,0.38,0.8c0.06,0.13,0.14,0.21,0.29,0.23c0.28,0.04,0.57,0.09,0.88,0.14C14.28,12.37,14.08,12.58,13.88,12.78z"
	/>
<path class="st0" d="M21.32,11.88c-0.04-0.12-0.14-0.17-0.27-0.18c-0.38-0.06-0.76-0.12-1.15-0.18c-0.08-0.01-0.12-0.04-0.15-0.12
	c-0.16-0.35-0.32-0.69-0.48-1.04c-0.05-0.1-0.1-0.2-0.2-0.27c-0.07,0-0.13,0-0.2,0c-0.09,0.07-0.15,0.16-0.2,0.27
	c-0.16,0.35-0.33,0.69-0.48,1.04c-0.03,0.07-0.07,0.11-0.15,0.12c-0.38,0.06-0.76,0.12-1.15,0.18c-0.12,0.02-0.22,0.06-0.27,0.18
	c-0.05,0.13,0.02,0.23,0.11,0.32c0.26,0.27,0.52,0.54,0.79,0.81c0.1,0.09,0.11,0.18,0.09,0.3c-0.07,0.38-0.12,0.76-0.19,1.15
	c-0.02,0.13-0.01,0.24,0.1,0.32c0.12,0.08,0.23,0.04,0.34-0.02c0.33-0.18,0.66-0.36,0.98-0.55c0.09-0.05,0.15-0.05,0.24,0
	c0.33,0.19,0.66,0.37,0.98,0.55c0.11,0.06,0.22,0.1,0.34,0.02c0.11-0.08,0.13-0.19,0.1-0.32c-0.07-0.38-0.12-0.76-0.19-1.15
	c-0.02-0.12-0.01-0.21,0.09-0.3c0.27-0.26,0.53-0.54,0.79-0.81C21.3,12.11,21.36,12.01,21.32,11.88z M19.91,12.78
	c-0.12,0.12-0.16,0.24-0.13,0.41c0.06,0.28,0.09,0.57,0.14,0.87c-0.26-0.14-0.5-0.27-0.74-0.41c-0.15-0.09-0.28-0.09-0.43,0
	c-0.23,0.14-0.47,0.26-0.74,0.41c0.05-0.31,0.09-0.6,0.15-0.89c0.03-0.16-0.01-0.27-0.12-0.38c-0.21-0.2-0.41-0.42-0.63-0.64
	c0.31-0.05,0.6-0.1,0.88-0.14c0.15-0.02,0.23-0.09,0.29-0.23c0.12-0.26,0.24-0.52,0.38-0.81c0.13,0.28,0.26,0.54,0.37,0.79
	c0.06,0.14,0.16,0.22,0.32,0.24c0.28,0.03,0.56,0.08,0.86,0.13C20.31,12.37,20.11,12.58,19.91,12.78z"/>
<path class="st0" d="M27.12,11.66c-0.34-0.06-0.68-0.11-1.02-0.16c-0.18-0.02-0.28-0.1-0.35-0.26c-0.12-0.3-0.28-0.58-0.41-0.88
	c-0.05-0.12-0.1-0.23-0.24-0.26c-0.07,0-0.13,0-0.2,0c-0.09,0.07-0.15,0.16-0.2,0.27c-0.15,0.33-0.31,0.65-0.45,0.98
	c-0.05,0.13-0.13,0.18-0.26,0.19c-0.36,0.05-0.71,0.11-1.07,0.16c-0.12,0.02-0.22,0.06-0.27,0.18c-0.05,0.13,0.02,0.23,0.11,0.32
	c0.26,0.27,0.52,0.54,0.79,0.8c0.1,0.09,0.11,0.18,0.09,0.3c-0.07,0.39-0.13,0.77-0.19,1.16c-0.02,0.12,0,0.23,0.1,0.3
	c0.11,0.07,0.21,0.05,0.32-0.01c0.32-0.18,0.65-0.35,0.97-0.54c0.11-0.06,0.18-0.07,0.3,0c0.32,0.19,0.66,0.36,0.98,0.55
	c0.1,0.06,0.2,0.08,0.31,0.01c0.11-0.07,0.13-0.18,0.11-0.3c-0.07-0.39-0.13-0.79-0.19-1.18c-0.02-0.12-0.01-0.2,0.09-0.29
	c0.15-0.13,0.28-0.28,0.41-0.42c0.17-0.18,0.37-0.34,0.51-0.55c0-0.05,0-0.11,0-0.16C27.33,11.74,27.25,11.69,27.12,11.66z
	 M25.94,12.78c-0.12,0.12-0.16,0.24-0.13,0.41c0.06,0.28,0.09,0.57,0.14,0.88c-0.26-0.14-0.5-0.27-0.74-0.41
	c-0.15-0.09-0.28-0.09-0.43,0c-0.23,0.14-0.47,0.26-0.74,0.41c0.05-0.32,0.09-0.62,0.15-0.91c0.03-0.14-0.01-0.25-0.11-0.35
	c-0.21-0.21-0.42-0.43-0.64-0.66c0.32-0.05,0.61-0.1,0.9-0.14c0.13-0.02,0.21-0.09,0.27-0.21c0.12-0.26,0.25-0.53,0.39-0.82
	c0.13,0.28,0.25,0.54,0.37,0.79c0.06,0.14,0.16,0.22,0.32,0.24c0.28,0.03,0.56,0.08,0.86,0.13C26.34,12.37,26.14,12.58,25.94,12.78z
	"/>
<path class="st0" d="M17.91,16.35c-0.04-0.12-0.14-0.17-0.26-0.19c-0.38-0.06-0.76-0.12-1.15-0.18c-0.09-0.01-0.13-0.05-0.16-0.13
	c-0.17-0.37-0.34-0.73-0.51-1.09c-0.05-0.11-0.12-0.2-0.25-0.2c-0.14,0-0.22,0.08-0.27,0.2c-0.16,0.35-0.33,0.69-0.48,1.04
	c-0.06,0.14-0.14,0.18-0.27,0.2c-0.35,0.05-0.7,0.11-1.05,0.16c-0.13,0.02-0.23,0.06-0.28,0.19c-0.04,0.13,0.03,0.23,0.12,0.32
	c0.26,0.26,0.51,0.54,0.78,0.79c0.1,0.1,0.11,0.19,0.09,0.32c-0.07,0.4-0.13,0.81-0.2,1.19c-0.01,0.24,0.19,0.38,0.4,0.27
	c0.35-0.19,0.7-0.38,1.04-0.58c0.08-0.05,0.14-0.05,0.22,0c0.33,0.19,0.67,0.37,1,0.56c0.11,0.06,0.22,0.1,0.34,0.01
	c0.11-0.08,0.12-0.18,0.1-0.31c-0.07-0.39-0.12-0.78-0.19-1.16c-0.02-0.12-0.01-0.2,0.08-0.29c0.27-0.27,0.54-0.54,0.81-0.82
	C17.89,16.57,17.95,16.47,17.91,16.35z M16.49,17.25c-0.12,0.11-0.15,0.24-0.12,0.4c0.06,0.28,0.09,0.57,0.14,0.88
	c-0.26-0.14-0.5-0.27-0.74-0.41c-0.15-0.09-0.28-0.09-0.43,0c-0.23,0.14-0.47,0.26-0.74,0.41c0.05-0.31,0.09-0.6,0.15-0.89
	c0.03-0.16-0.01-0.27-0.12-0.38c-0.21-0.2-0.41-0.42-0.63-0.64c0.32-0.05,0.61-0.1,0.9-0.14c0.13-0.02,0.21-0.09,0.27-0.21
	c0.12-0.27,0.25-0.53,0.39-0.82c0.13,0.28,0.25,0.52,0.36,0.78c0.07,0.16,0.17,0.24,0.34,0.26c0.27,0.03,0.55,0.08,0.85,0.13
	C16.89,16.83,16.7,17.05,16.49,17.25z"/>
<path class="st0" d="M24.47,16.35c-0.04-0.12-0.13-0.18-0.26-0.2c-0.39-0.06-0.78-0.12-1.16-0.18c-0.08-0.01-0.12-0.05-0.15-0.12
	c-0.17-0.37-0.34-0.73-0.51-1.09c-0.05-0.12-0.13-0.21-0.27-0.21c-0.14,0-0.21,0.09-0.26,0.21c-0.17,0.37-0.35,0.73-0.51,1.09
	c-0.03,0.07-0.07,0.11-0.15,0.12c-0.38,0.06-0.76,0.12-1.15,0.18c-0.12,0.02-0.22,0.06-0.27,0.18c-0.05,0.12,0.01,0.22,0.1,0.31
	c0.26,0.27,0.52,0.54,0.79,0.81c0.1,0.09,0.12,0.19,0.1,0.32c-0.07,0.41-0.14,0.82-0.2,1.21c-0.01,0.24,0.2,0.36,0.41,0.25
	c0.35-0.19,0.69-0.38,1.03-0.57c0.09-0.05,0.15-0.05,0.24,0c0.33,0.19,0.67,0.37,1,0.56c0.11,0.06,0.21,0.09,0.32,0.01
	c0.11-0.07,0.13-0.18,0.1-0.3c-0.07-0.39-0.13-0.79-0.19-1.18c-0.02-0.11,0-0.19,0.08-0.28c0.28-0.27,0.54-0.55,0.82-0.83
	C24.45,16.56,24.51,16.47,24.47,16.35z M23.05,17.24c-0.12,0.12-0.16,0.24-0.13,0.41c0.06,0.28,0.09,0.57,0.14,0.87
	c-0.26-0.14-0.5-0.27-0.74-0.41c-0.15-0.09-0.28-0.09-0.43,0c-0.23,0.14-0.48,0.26-0.74,0.41c0.05-0.32,0.09-0.62,0.15-0.91
	c0.03-0.14,0-0.25-0.1-0.34c-0.22-0.2-0.44-0.41-0.66-0.61c0.01-0.02,0.03-0.04,0.04-0.06c0.28-0.04,0.57-0.1,0.85-0.13
	c0.15-0.02,0.23-0.09,0.29-0.22c0.12-0.26,0.24-0.52,0.38-0.81c0.13,0.28,0.26,0.54,0.37,0.79c0.06,0.14,0.16,0.22,0.32,0.24
	c0.28,0.03,0.56,0.08,0.86,0.13C23.45,16.83,23.26,17.04,23.05,17.24z"/>
</svg>
