<?xml version="1.0" encoding="utf-8"?>
<!-- Generator: Adobe Illustrator 25.2.3, SVG Export Plug-In . SVG Version: 6.00 Build 0)  -->
<svg version="1.1" id="Layer_1" xmlns="http://www.w3.org/2000/svg" xmlns:xlink="http://www.w3.org/1999/xlink" x="0px" y="0px"
	 viewBox="0 0 36 36" style="enable-background:new 0 0 36 36;" xml:space="preserve">
<style type="text/css">
	.st0{fill:#7B6929;}
</style>
<path class="st0" d="M28.51,20.22c-0.18-0.24-0.4-0.41-0.69-0.46c-0.16-0.03-0.2-0.11-0.2-0.25c0.01-0.35,0-0.71,0-1.06
	c0-0.6,0.01-1.2-0.08-1.8c-0.36-2.18-1.33-4.02-2.96-5.51c-1.14-1.04-2.46-1.74-3.95-2.12c-0.18-0.05-0.3-0.13-0.37-0.29
	c-0.1-0.22-0.22-0.41-0.39-0.59c-0.42-0.44-0.91-0.73-1.54-0.77c-0.24,0-0.47,0-0.71,0c-0.23,0.05-0.46,0.07-0.68,0.17
	C16.42,7.78,16,8.15,15.75,8.69c-0.08,0.18-0.2,0.28-0.4,0.32c-0.29,0.05-0.56,0.16-0.83,0.26c-1.34,0.47-2.51,1.22-3.5,2.23
	c-0.84,0.86-1.51,1.85-1.96,2.97c-0.44,1.1-0.71,2.23-0.69,3.42c0.01,0.54,0,1.08,0,1.62c0,0.12-0.01,0.21-0.16,0.24
	c-0.47,0.11-0.8,0.37-0.87,0.88c0,0.14,0,0.28,0,0.42c0.04,0.25,0.11,0.5,0.19,0.74c0.22,0.64,0.58,0.9,1.26,0.9c0.5,0,1,0,1.52,0
	c-0.25,0.25-0.5,0.45-0.74,0.68c-0.34,0.32-0.42,0.59-0.24,1.02c0.51,1.26,1.04,2.51,1.56,3.76c0.12,0.28,0.28,0.49,0.6,0.52
	c0.1,0,0.19,0,0.29,0c0.22-0.03,0.39-0.15,0.54-0.31c0.42-0.48,0.88-0.94,1.29-1.44c0.18-0.22,0.39-0.32,0.68-0.32
	c1.81,0.01,3.62,0,5.43,0.01c0.56,0,1.04-0.19,1.44-0.59c0.17-0.18,0.37-0.34,0.54-0.51c0.9-0.87,1.82-1.72,2.72-2.59
	c0.15-0.15,0.3-0.22,0.51-0.22c0.78,0.01,1.57,0.01,2.35,0c0.54,0,0.94-0.29,1.12-0.8c0.1-0.27,0.19-0.55,0.23-0.84
	c0-0.12,0-0.25,0-0.37C28.61,20.51,28.62,20.35,28.51,20.22z M17.94,8.06c0.63-0.02,1.13,0.25,1.52,0.77c-0.99-0.09-1.95-0.1-2.94,0
	C16.89,8.34,17.36,8.08,17.94,8.06z M9.12,19.55c0.03-0.81-0.04-1.62,0.05-2.43c0.23-2.11,1.12-3.89,2.67-5.34
	c1.38-1.3,3.03-2.05,4.91-2.24c1.91-0.19,3.78-0.03,5.51,0.9c2.45,1.32,3.95,3.35,4.48,6.08c0.2,1.04,0.11,2.09,0.13,3.13
	c0,0.17-0.1,0.13-0.19,0.13c-1.91,0-3.81,0-5.72,0c-0.99,0-1.98,0-2.97,0c-2.88,0-5.75,0-8.63,0C9.17,19.78,9.11,19.74,9.12,19.55z
	 M22.97,23.23c-0.78,0.74-1.57,1.49-2.35,2.23c-0.25,0.24-0.53,0.35-0.88,0.35c-1.82,0-3.65,0.01-5.47-0.01
	c-0.46,0-0.82,0.15-1.12,0.48c-0.43,0.47-0.85,0.95-1.28,1.42c-0.06,0.07-0.13,0.14-0.22,0.23c-0.54-1.29-1.07-2.56-1.6-3.83
	c-0.03-0.07-0.06-0.13,0.02-0.2c0.49-0.43,0.95-0.89,1.52-1.22c0.1-0.06,0.2-0.08,0.31-0.08c2.57,0,5.13,0.01,7.7,0
	c0.3,0,0.54,0.22,0.58,0.43c0.04,0.25-0.18,0.55-0.46,0.61c-0.1,0.02-0.21,0.03-0.31,0.03c-1.1,0-2.19,0-3.29,0
	c-0.1,0-0.21-0.01-0.3,0.05c-0.13,0.07-0.19,0.19-0.18,0.33c0.01,0.15,0.09,0.26,0.23,0.31c0.07,0.02,0.15,0.03,0.23,0.03
	c1.13,0,2.26,0,3.39,0c0.75,0,1.29-0.46,1.4-1.16c0.03-0.21-0.02-0.4-0.08-0.6c0.93,0,1.84,0,2.79,0
	C23.38,22.85,23.18,23.04,22.97,23.23z M27.93,20.93c-0.07,0.25-0.15,0.49-0.24,0.73c-0.06,0.16-0.18,0.24-0.35,0.25
	c-0.06,0-0.11,0-0.17,0c-6.12,0-12.23,0-18.35,0c-0.39,0-0.45-0.04-0.57-0.41c-0.06-0.18-0.13-0.37-0.18-0.55
	c-0.07-0.24,0.08-0.44,0.33-0.46c0.07,0,0.14,0,0.21,0c3.13,0,6.25,0,9.38,0s6.25,0,9.38,0c0.08,0,0.15,0,0.23,0
	C27.84,20.51,27.99,20.71,27.93,20.93z"/>
<path class="st0" d="M26.16,17.74c0,0.08,0,0.15,0,0.23c0,0.23-0.14,0.38-0.35,0.38c-0.2,0-0.36-0.15-0.36-0.37
	c-0.01-0.35-0.03-0.69-0.08-1.03c-0.4-2.35-1.65-4.1-3.74-5.25c-0.07-0.04-0.15-0.07-0.22-0.11c-0.2-0.11-0.27-0.31-0.17-0.49
	c0.09-0.18,0.29-0.24,0.5-0.14c0.38,0.18,0.75,0.39,1.09,0.64C24.91,13.11,26,15.17,26.16,17.74z"/>
</svg>
