<?xml version="1.0" encoding="utf-8"?>
<!-- Generator: Adobe Illustrator 25.2.3, SVG Export Plug-In . SVG Version: 6.00 Build 0)  -->
<svg version="1.1" id="Layer_1" xmlns="http://www.w3.org/2000/svg" xmlns:xlink="http://www.w3.org/1999/xlink" x="0px" y="0px"
	 viewBox="0 0 36 36" style="enable-background:new 0 0 36 36;" xml:space="preserve">
<style type="text/css">
	.st0{fill:#7B6929;}
</style>
<path class="st0" d="M29.06,12.03c-0.08-0.06-2.03-1.44-5.12-1.48V8.33c0-0.05-0.02-0.09-0.06-0.11C23.85,8.2,21.41,6.74,18,6.74
	c-3.41,0-5.85,1.47-5.88,1.48c-0.04,0.02-0.06,0.07-0.06,0.11v2.21c-3.09,0.04-5.04,1.42-5.12,1.48c-0.03,0.03-0.06,0.07-0.06,0.11
	V27.3c0,0.07,0.06,0.13,0.13,0.13h5.18h11.61h5.18c0.07,0,0.13-0.06,0.13-0.13V12.14C29.12,12.09,29.1,12.05,29.06,12.03z M28.85,14
	h-2.31v-2.81c1.27,0.36,2.1,0.87,2.31,1.01V14z M14.06,18.21h3.8v8.96h-3.8V18.21z M18.13,18.21h3.8v8.96h-3.8V18.21z M21.94,17.94
	h-7.87v-0.67h7.87V17.94z M15.77,17v-4.62h4.46V17H15.77z M15.77,12.12V9.6h4.46v2.52H15.77z M15.5,12.12h-3.18V9.6h3.18V12.12z
	 M20.5,9.6h3.18v2.52H20.5V9.6z M23.94,14.27h2.33v2.52h-2.33V14.27z M26.54,14.27h2.31v2.52h-2.31V14.27z M26.27,11.12V14h-2.33
	v-3.19C24.82,10.83,25.6,10.95,26.27,11.12z M23.67,9.33H20.5V7.27c1.72,0.36,2.9,0.98,3.18,1.14V9.33z M20.23,7.22v2.12h-4.46V7.22
	C16.44,7.09,17.19,7,18,7C18.81,7,19.55,7.09,20.23,7.22z M15.5,7.27v2.06h-3.18V8.41C12.61,8.25,13.79,7.63,15.5,7.27z
	 M12.06,16.79H9.73v-2.52h2.32V16.79z M7.15,14.27h2.32v2.52H7.15V14.27z M9.73,14v-2.88c0.67-0.17,1.45-0.29,2.32-0.31V14H9.73z
	 M9.47,11.19V14H7.15v-1.79C7.36,12.07,8.19,11.55,9.47,11.19z M7.15,17.06h4.91v10.11H7.15V17.06z M12.33,12.39h3.18V17h-1.57
	c-0.07,0-0.13,0.06-0.13,0.13v10.03h-1.47V12.39z M22.2,27.17V17.14c0-0.07-0.06-0.13-0.13-0.13H20.5v-4.62h3.18v14.78H22.2z
	 M23.94,27.17V17.06h4.91v10.11H23.94z M8.27,20.71c0.02,0.05,0.06,0.09,0.11,0.09h2.44c0.06,0,0.09-0.04,0.11-0.09l0.01,0
	l0.63-1.57c0.01-0.03,0.01-0.07,0-0.1c-0.02-0.03-0.04-0.06-0.08-0.07l-0.54-0.19v-0.09c0-0.07-0.06-0.13-0.13-0.13H10.3v-0.24
	c0-0.38-0.31-0.69-0.69-0.69c-0.38,0-0.69,0.31-0.69,0.69v0.24H8.38c-0.07,0-0.13,0.06-0.13,0.13v0.09l-0.54,0.19
	C7.67,18.98,7.65,19,7.63,19.04c-0.01,0.03-0.02,0.07,0,0.1L8.27,20.71L8.27,20.71z M11.28,19.17l-0.32,0.8v-0.91L11.28,19.17z
	 M9.18,18.31c0-0.23,0.19-0.42,0.42-0.42c0.23,0,0.42,0.19,0.42,0.42v0.24H9.18V18.31z M8.52,18.82h0.4v0.54
	c0,0.07,0.06,0.13,0.13,0.13s0.13-0.06,0.13-0.13v-0.54h0.85v0.54c0,0.07,0.06,0.13,0.13,0.13s0.13-0.06,0.13-0.13v-0.54h0.4v1.71
	H8.52V18.82z M8.25,19.06v0.91l-0.32-0.8L8.25,19.06z M9.77,19.54H9.43c-0.16,0-0.3,0.13-0.3,0.3v0.08c0,0.16,0.13,0.3,0.3,0.3h0.34
	c0.16,0,0.3-0.13,0.3-0.3v-0.08C10.07,19.67,9.94,19.54,9.77,19.54z M9.8,19.91c0,0.02-0.01,0.03-0.03,0.03H9.43
	c-0.02,0-0.03-0.01-0.03-0.03v-0.08c0-0.02,0.01-0.03,0.03-0.03h0.34c0.02,0,0.03,0.01,0.03,0.03V19.91z M9.95,23.54
	c0.38,0,0.69-0.31,0.69-0.69c0-0.38-0.31-0.69-0.69-0.69c-0.38,0-0.69,0.31-0.69,0.69C9.26,23.23,9.57,23.54,9.95,23.54z
	 M9.95,22.43c0.23,0,0.42,0.19,0.42,0.42c0,0.23-0.19,0.42-0.42,0.42c-0.23,0-0.42-0.19-0.42-0.42C9.53,22.62,9.72,22.43,9.95,22.43
	z M8.57,21.43H8.22c-0.16,0-0.3,0.13-0.3,0.3v0.2c-0.15,0.06-0.25,0.2-0.25,0.37v1.28c0,0.22,0.18,0.4,0.4,0.4h3.08
	c0.22,0,0.4-0.18,0.4-0.4V22c0-0.22-0.18-0.4-0.4-0.4H9.48c-0.15,0-0.29,0.05-0.42,0.16c-0.06,0.05-0.12,0.08-0.19,0.1v-0.14
	C8.87,21.57,8.74,21.43,8.57,21.43z M8.22,21.7h0.36c0.02,0,0.03,0.01,0.03,0.03v0.17H8.18v-0.17C8.18,21.72,8.2,21.7,8.22,21.7z
	 M7.93,23.59V22.3c0-0.07,0.06-0.13,0.13-0.13h0.37v1.55H8.06C7.99,23.72,7.93,23.66,7.93,23.59z M9.26,21.96
	c0.06-0.05,0.14-0.08,0.23-0.08h1.66c0.07,0,0.13,0.06,0.13,0.13v1.58c0,0.07-0.06,0.13-0.13,0.13H8.7v-1.55c0.01,0,0.02,0,0.03,0
	c0,0,0.01,0,0.01,0c0.01,0,0.02-0.01,0.03-0.01C8.94,22.14,9.11,22.08,9.26,21.96z M8.92,22.33c0.04-0.04,0.09-0.03,0.13,0
	c0.04,0.04,0.03,0.09,0,0.13c-0.04,0.04-0.09,0.03-0.13,0C8.89,22.42,8.89,22.36,8.92,22.33z M10.63,22.15
	c0-0.07,0.06-0.13,0.13-0.13h0.2c0.07,0,0.13,0.06,0.13,0.13s-0.06,0.13-0.13,0.13h-0.2C10.69,22.28,10.63,22.22,10.63,22.15z
	 M11.35,25.34c-0.16-0.08-0.39-0.08-0.63-0.08c-0.16,0-0.33,0-0.43-0.03c-0.08-0.03-0.24-0.13-0.39-0.23
	c-0.02-0.01-0.04-0.03-0.06-0.04c0,0,0,0,0,0c0,0,0,0,0,0c-0.07-0.05-0.14-0.1-0.21-0.14c-0.27-0.17-0.55-0.17-0.56-0.17
	c-0.04,0.01-0.08,0.02-0.11,0.05c0,0-0.18,0.22-0.41,0.27c-0.13,0.03-0.48-0.09-0.68-0.18c-0.07-0.03-0.15,0-0.18,0.07
	c-0.01,0.01-0.14,0.31-0.16,0.54c-0.03,0.27,0.11,0.53,0.13,0.56v0.46c0,0.07,0.06,0.13,0.13,0.13h1.04c0.07,0,0.13-0.06,0.13-0.13
	v-0.15c0.32,0.07,0.63,0.15,0.9,0.25c0.05,0.02,0.13,0.03,0.21,0.03c0.33,0,0.87-0.12,1.2-0.3c0.22-0.11,0.36-0.25,0.4-0.39
	C11.73,25.62,11.43,25.38,11.35,25.34z M8.69,26.26H7.91v-0.22c0.17,0.03,0.44,0.08,0.74,0.13c0.01,0,0.02,0.01,0.03,0.01V26.26z
	 M11.15,25.98c-0.42,0.22-1.06,0.3-1.2,0.25C9.57,26.11,9.17,26,8.71,25.91C8.34,25.84,8,25.78,7.86,25.76
	c-0.03-0.08-0.09-0.22-0.07-0.36c0.01-0.11,0.06-0.24,0.09-0.34c0.19,0.07,0.52,0.19,0.72,0.14c0.24-0.05,0.42-0.22,0.51-0.3
	c0.03,0,0.08,0.02,0.14,0.03l-0.07,0.11c-0.04,0.06-0.02,0.14,0.04,0.19c0.02,0.01,0.05,0.02,0.07,0.02c0.04,0,0.09-0.02,0.11-0.06
	l0.1-0.15c0.03,0.02,0.06,0.04,0.08,0.05l-0.09,0.13c-0.04,0.06-0.02,0.14,0.04,0.19c0.02,0.01,0.05,0.02,0.07,0.02
	c0.04,0,0.09-0.02,0.11-0.06l0.09-0.13c0.03,0.02,0.05,0.04,0.08,0.05l-0.07,0.11c-0.04,0.06-0.02,0.14,0.04,0.19
	c0.02,0.01,0.05,0.02,0.07,0.02c0.04,0,0.09-0.02,0.11-0.06l0.08-0.13c0.03,0.02,0.07,0.04,0.1,0.05c0.14,0.04,0.32,0.04,0.51,0.04
	c0.19,0,0.41,0,0.51,0.05c0.06,0.03,0.17,0.15,0.19,0.17C11.39,25.82,11.29,25.9,11.15,25.98z M27.7,17.96
	c-0.02-0.02-0.04-0.04-0.07-0.05l-0.67-0.21c-0.04-0.01-0.08,0-0.11,0.02c-0.03,0.02-0.06,0.06-0.06,0.1c0,0.02-0.03,0.21-0.38,0.21
	c-0.35,0-0.38-0.19-0.38-0.21c0-0.04-0.02-0.08-0.06-0.1c-0.03-0.02-0.08-0.03-0.11-0.02l-0.67,0.21c-0.03,0.01-0.05,0.03-0.07,0.05
	l-0.65,0.91c-0.04,0.06-0.03,0.14,0.02,0.18l0.6,0.5c0.06,0.04,0.14,0.04,0.18-0.01l0.09-0.09v0.71c0,0.07,0.06,0.13,0.13,0.13h1.84
	c0.07,0,0.13-0.06,0.13-0.13v-0.71l0.09,0.09c0.05,0.05,0.13,0.06,0.18,0.01l0.6-0.5c0.05-0.04,0.06-0.12,0.02-0.18L27.7,17.96z
	 M27.65,19.26l-0.23-0.25c-0.04-0.04-0.1-0.05-0.15-0.03c-0.05,0.02-0.08,0.07-0.08,0.12v0.92h-1.57V19.1c0-0.05-0.03-0.1-0.08-0.12
	c-0.05-0.02-0.11-0.01-0.15,0.03l-0.23,0.25l-0.41-0.34l0.55-0.77L25.8,18c0.08,0.15,0.25,0.31,0.61,0.31c0.36,0,0.53-0.16,0.61-0.3
	l0.5,0.15l0.55,0.77L27.65,19.26z M27.81,24.9h-0.14v-0.51c0-0.38-0.31-0.69-0.69-0.69h-1.17c-0.38,0-0.69,0.31-0.69,0.69v0.51
	h-0.14c-0.24,0-0.44,0.2-0.44,0.44c0,0.23,0.18,0.42,0.4,0.44v0.45c0,0.14,0.11,0.26,0.26,0.26h0.2v0.15c0,0.07,0.06,0.13,0.13,0.13
	s0.13-0.06,0.13-0.13v-0.15h1.46v0.15c0,0.07,0.06,0.13,0.13,0.13s0.13-0.06,0.13-0.13v-0.15h0.2c0.14,0,0.26-0.11,0.26-0.26v-0.45
	c0.22-0.02,0.4-0.21,0.4-0.44C28.25,25.09,28.05,24.9,27.81,24.9z M25.81,23.96h1.17c0.23,0,0.42,0.19,0.42,0.42v0.51
	c-0.24,0-0.43,0.2-0.43,0.44l0.01,0.44l-1.16,0.01v-0.46c0-0.24-0.19-0.43-0.43-0.44v-0.51C25.39,24.15,25.58,23.96,25.81,23.96z
	 M27.81,25.51h-0.1c-0.07,0-0.13,0.06-0.13,0.13l0.01,0.57l-0.33,0c0,0,0,0,0,0c0,0,0,0,0,0l-1.7,0.01c-0.01,0-0.02-0.01-0.02-0.01
	c-0.01,0-0.02,0.01-0.03,0.01l-0.29,0v-0.58c0-0.07-0.06-0.13-0.13-0.13h-0.1c-0.09,0-0.17-0.08-0.17-0.17
	c0-0.09,0.08-0.17,0.17-0.17h0.4c0.09,0,0.17,0.08,0.17,0.17v0.46c0,0.14,0.11,0.26,0.26,0.26h1.17c0.14,0,0.26-0.11,0.26-0.26
	v-0.46c0-0.09,0.08-0.17,0.17-0.17h0.4c0.09,0,0.17,0.08,0.17,0.17C27.98,25.43,27.9,25.51,27.81,25.51z M27.53,20.85h-2.25
	c-0.07,0-0.13,0.06-0.13,0.13v1.42l-0.4,0.52c-0.03,0.04-0.04,0.1-0.01,0.14c0.02,0.05,0.07,0.08,0.12,0.08h3.11
	c0.05,0,0.1-0.03,0.12-0.08c0.02-0.05,0.02-0.1-0.01-0.14l-0.4-0.52v-1.42C27.66,20.91,27.6,20.85,27.53,20.85z M25.41,21.12h1.98
	v1.2h-1.98V21.12z M25.12,22.87l0.22-0.28h2.12l0.22,0.28H25.12z M27.07,21.25h-1.32c-0.07,0-0.13,0.06-0.13,0.13v0.67
	c0,0.07,0.06,0.13,0.13,0.13h1.32c0.07,0,0.13-0.06,0.13-0.13v-0.67C27.2,21.31,27.14,21.25,27.07,21.25z M26.93,21.92h-1.05v-0.4
	h1.05V21.92z"/>
</svg>
