<?xml version="1.0" encoding="utf-8"?>
<!-- Generator: Adobe Illustrator 25.2.3, SVG Export Plug-In . SVG Version: 6.00 Build 0)  -->
<svg version="1.1" id="Layer_1" xmlns="http://www.w3.org/2000/svg" xmlns:xlink="http://www.w3.org/1999/xlink" x="0px" y="0px"
	 viewBox="0 0 36 36" style="enable-background:new 0 0 36 36;" xml:space="preserve">
<style type="text/css">
	.st0{fill:#7B6929;}
</style>
<path class="st0" d="M20.96,9.47V8.83c0-0.71-0.57-1.28-1.28-1.28s-1.28,0.57-1.28,1.28v0.64h0.64V8.83c0-0.35,0.29-0.64,0.64-0.64
	s0.64,0.29,0.64,0.64v0.64H20.96z"/>
<rect x="25.12" y="22.29" class="st0" width="1.28" height="1.6"/>
<path class="st0" d="M14.87,20.69v5.45h0.64v-7.05c0-0.35,0.29-0.64,0.64-0.64V17.8h-5.13v1.92h2.88
	C14.44,19.72,14.87,20.15,14.87,20.69z"/>
<rect x="27.04" y="20.36" class="st0" width="1.28" height="1.28"/>
<path class="st0" d="M27.04,26.13h0.96c0.18,0,0.32-0.14,0.32-0.32v-1.28h-1.28V26.13z"/>
<path class="st0" d="M26.4,20.36h-0.96c-0.18,0-0.32,0.14-0.32,0.32v0.96h1.28V20.36z"/>
<rect x="25.12" y="24.53" class="st0" width="1.28" height="1.6"/>
<path class="st0" d="M28.33,17.8H23.2v0.64c0.35,0,0.64,0.29,0.64,0.64v7.05h0.64v-5.45c0-0.53,0.43-0.96,0.96-0.96h2.88V17.8z"/>
<rect x="27.04" y="22.29" class="st0" width="1.28" height="1.6"/>
<path class="st0" d="M18.21,10.11c-0.16,0-0.29,0.12-0.32,0.28l-0.46,3.2c-0.02,0.18,0.1,0.34,0.27,0.36c0.01,0,0.03,0,0.04,0h3.84
	c0.18,0,0.32-0.14,0.32-0.32c0-0.02,0-0.03,0-0.05l-0.46-3.2c-0.02-0.16-0.16-0.27-0.32-0.27h-0.18v0.32c0,0.18-0.14,0.32-0.32,0.32
	s-0.32-0.14-0.32-0.32v-0.32h-1.28v0.32c0,0.18-0.14,0.32-0.32,0.32s-0.32-0.14-0.32-0.32v-0.32H18.21z"/>
<path class="st0" d="M16.15,26.13h0.64v-5.77c0-0.35,0.29-0.64,0.64-0.64h4.49c0.35,0,0.64,0.29,0.64,0.64v5.77h0.64v-7.05h-7.05
	V26.13z"/>
<path class="st0" d="M16.79,14.92v3.52h5.77v-3.52c0-0.18-0.14-0.32-0.32-0.32h-5.13C16.94,14.6,16.79,14.74,16.79,14.92z
	 M18.39,16.2h2.56c0.18,0,0.32,0.14,0.32,0.32c0,0.18-0.14,0.32-0.32,0.32h-2.56c-0.18,0-0.32-0.14-0.32-0.32
	C18.07,16.34,18.22,16.2,18.39,16.2z"/>
<rect x="12.95" y="22.29" class="st0" width="1.28" height="1.6"/>
<rect x="17.43" y="24.53" class="st0" width="1.92" height="1.6"/>
<rect x="17.43" y="20.36" class="st0" width="1.92" height="1.28"/>
<rect x="20" y="20.36" class="st0" width="1.92" height="1.28"/>
<rect x="17.43" y="22.29" class="st0" width="1.92" height="1.6"/>
<path class="st0" d="M11.02,25.81c0,0.18,0.14,0.32,0.32,0.32h0.96v-1.6h-1.28V25.81z"/>
<rect x="12.95" y="24.53" class="st0" width="1.28" height="1.6"/>
<path class="st0" d="M14.23,20.69c0-0.18-0.14-0.32-0.32-0.32h-0.96v1.28h1.28V20.69z"/>
<rect x="11.02" y="22.29" class="st0" width="1.28" height="1.6"/>
<rect x="11.02" y="20.36" class="st0" width="1.28" height="1.28"/>
<rect x="20" y="22.29" class="st0" width="1.92" height="1.6"/>
<rect x="20" y="24.53" class="st0" width="1.92" height="1.6"/>
<rect x="10.7" y="16.52" class="st0" width="5.45" height="0.64"/>
<rect x="23.2" y="16.52" class="st0" width="5.45" height="0.64"/>
</svg>
