<?xml version="1.0" encoding="utf-8"?>
<!-- Generator: Adobe Illustrator 25.2.3, SVG Export Plug-In . SVG Version: 6.00 Build 0)  -->
<svg version="1.1" id="Layer_1" xmlns="http://www.w3.org/2000/svg" xmlns:xlink="http://www.w3.org/1999/xlink" x="0px" y="0px"
	 viewBox="0 0 36 36" style="enable-background:new 0 0 36 36;" xml:space="preserve">
<style type="text/css">
	.st0{fill:#7B6929;}
</style>
<g>
	<path class="st0" d="M16.48,25.22c-0.11,0.69-0.42,1.25-0.85,1.68c-0.39,0.38-0.87,0.66-1.4,0.81c-0.53,0.15-1.09,0.19-1.65,0.1
		c-0.74-0.12-1.46-0.46-2.03-1.04c-1.14-1.15-1.1-2.09-1.04-3.35c0.01-0.17,0.02-0.34,0.02-0.51c0.03-0.87-0.04-1.72-0.21-2.61
		c-0.17-0.9-0.45-1.84-0.86-2.92c-0.23-0.6-0.38-1.41-0.43-2.22c-0.05-0.79,0-1.59,0.17-2.23c0.15-0.57,0.31-1.11,0.51-1.6
		c0.2-0.5,0.44-0.96,0.73-1.36c0.58-0.81,1.39-1.4,2.28-1.67c0.84-0.25,1.76-0.21,2.64,0.21c0.2,0.1,0.4,0.22,0.59,0.35
		c0.18,0.13,0.36,0.29,0.52,0.46c0.81,0.87,1.21,1.8,1.33,2.8c0.13,0.98-0.01,2-0.26,3.05c-0.08,0.33-0.14,0.58-0.2,0.83l0,0.02
		c0.23,1.21,0.07,1.8-0.29,3.36l-0.31,1.35c0.02,0.23,0.06,0.47,0.1,0.7c0.03,0.18,0.07,0.34,0.1,0.5c0.04,0.15,0.08,0.3,0.13,0.45
		c0.16,0.45,0.31,0.9,0.4,1.37C16.53,24.23,16.57,24.72,16.48,25.22L16.48,25.22z M12.82,11.06c0.01-0.22,0.2-0.39,0.42-0.37
		c0.22,0.01,0.39,0.2,0.37,0.42l-0.04,0.66c0,0.01,0,0.03,0,0.04c0.42,0.11,0.82,0.34,1.2,0.7c0.62,0.6,1.03,1.46,1.31,2.47
		c0.23-0.97,0.35-1.91,0.24-2.8c-0.11-0.89-0.47-1.74-1.21-2.52c-0.14-0.15-0.3-0.29-0.46-0.41c-0.16-0.12-0.33-0.22-0.51-0.31
		c-0.77-0.37-1.56-0.4-2.29-0.19c-0.79,0.24-1.5,0.76-2.02,1.49c-0.26,0.37-0.48,0.79-0.67,1.26c-0.19,0.47-0.35,0.99-0.49,1.54
		c-0.15,0.59-0.2,1.33-0.15,2.08c0.04,0.76,0.18,1.51,0.4,2.07l0.01,0.03c-0.09-0.94-0.04-1.74,0.18-2.41
		c0.49-1.51,2.07-3,3.67-3.08c0,0,0-0.01,0-0.01L12.82,11.06L12.82,11.06z M15.26,21.07l-0.01-0.03c-0.53-0.98-0.56-0.96-0.13-2.18
		c0.07-0.16,0.14-0.32,0.19-0.48c0.07-0.45,0.16-0.89,0.26-1.33c0.04-0.82-0.11-1.66-0.42-2.54c-0.28-0.75-0.59-1.32-0.93-1.69
		c-1.48-1.6-3.64,0.38-4.1,1.99c-0.27,0.96-0.3,2.2-0.13,3.69l0.33,1.17c0.17,0.61,0.05,1.3-0.32,2.04c0.03,0.4,0.03,0.8,0.02,1.21
		c0,0.19-0.01,0.36-0.02,0.52c-0.05,1.14-0.09,1.98,0.9,2.99c0.49,0.5,1.12,0.79,1.76,0.9c0.49,0.08,0.98,0.05,1.44-0.08
		c0.45-0.13,0.87-0.36,1.2-0.69c0.36-0.36,0.62-0.83,0.71-1.41c0.07-0.44,0.04-0.87-0.04-1.3c-0.08-0.44-0.23-0.88-0.38-1.3
		c-0.06-0.16-0.1-0.33-0.14-0.5c-0.04-0.16-0.07-0.34-0.11-0.52C15.3,21.37,15.28,21.22,15.26,21.07L15.26,21.07z M27.08,17.23
		c0.09-0.94,0.04-1.74-0.18-2.41c-0.49-1.51-2.07-3-3.67-3.08c0,0,0-0.01,0-0.01l-0.04-0.66c-0.01-0.22-0.2-0.39-0.42-0.37
		c-0.22,0.01-0.39,0.2-0.37,0.42l0.04,0.66c0,0.01,0,0.03,0,0.04c-0.42,0.11-0.82,0.34-1.2,0.7c-0.62,0.6-1.03,1.46-1.31,2.47
		c-0.23-0.97-0.35-1.91-0.24-2.8c0.11-0.89,0.47-1.74,1.21-2.52c0.14-0.15,0.3-0.29,0.46-0.41c0.16-0.12,0.33-0.22,0.51-0.31
		c0.77-0.37,1.56-0.4,2.29-0.19c0.79,0.24,1.5,0.76,2.02,1.49c0.26,0.37,0.48,0.79,0.67,1.26c0.19,0.47,0.35,0.99,0.49,1.54
		c0.15,0.59,0.2,1.33,0.15,2.08c-0.04,0.76-0.18,1.51-0.4,2.07L27.08,17.23L27.08,17.23z M19.69,16.02
		c-0.23,1.21-0.07,1.8,0.29,3.36l0.31,1.35c-0.02,0.23-0.06,0.47-0.1,0.7c-0.03,0.18-0.07,0.34-0.1,0.5
		c-0.04,0.15-0.08,0.3-0.13,0.45c-0.16,0.45-0.31,0.9-0.4,1.37c-0.09,0.48-0.13,0.97-0.04,1.47c0.11,0.69,0.42,1.25,0.85,1.68
		c0.39,0.38,0.87,0.66,1.4,0.81c0.53,0.15,1.09,0.19,1.65,0.1c0.74-0.12,1.46-0.46,2.03-1.04c1.14-1.15,1.1-2.09,1.04-3.35
		c-0.01-0.17-0.02-0.34-0.02-0.51c-0.03-0.87,0.04-1.72,0.21-2.61c0.17-0.9,0.45-1.84,0.86-2.92c0.23-0.6,0.38-1.41,0.43-2.22
		c0.05-0.79,0-1.59-0.17-2.23c-0.15-0.57-0.31-1.11-0.51-1.6c-0.2-0.5-0.44-0.96-0.73-1.36c-0.58-0.81-1.39-1.4-2.28-1.67
		c-0.84-0.25-1.76-0.21-2.64,0.21c-0.2,0.1-0.4,0.22-0.59,0.35C20.88,9,20.71,9.16,20.55,9.33c-0.81,0.87-1.21,1.8-1.33,2.8
		c-0.13,0.98,0.01,2,0.26,3.05c0.08,0.33,0.14,0.58,0.2,0.83L19.69,16.02L19.69,16.02z M20.74,21.07l0.01-0.03
		c0.53-0.98,0.56-0.96,0.13-2.18c-0.07-0.16-0.14-0.32-0.19-0.48c-0.07-0.45-0.16-0.89-0.26-1.33c-0.04-0.82,0.11-1.66,0.42-2.54
		c0.28-0.75,0.59-1.32,0.93-1.69c1.48-1.6,3.64,0.38,4.1,1.99c0.27,0.96,0.3,2.2,0.13,3.69l-0.33,1.17
		c-0.17,0.61-0.05,1.3,0.32,2.04c-0.03,0.4-0.03,0.8-0.02,1.21c0,0.19,0.01,0.36,0.02,0.52c0.05,1.14,0.09,1.98-0.9,2.99
		c-0.49,0.5-1.12,0.79-1.76,0.9c-0.49,0.08-0.98,0.05-1.44-0.08c-0.45-0.13-0.87-0.36-1.2-0.69c-0.36-0.36-0.62-0.83-0.71-1.41
		c-0.07-0.44-0.04-0.87,0.04-1.3c0.08-0.44,0.23-0.88,0.38-1.3c0.06-0.16,0.1-0.33,0.14-0.5c0.04-0.16,0.07-0.34,0.11-0.52
		C20.7,21.37,20.72,21.22,20.74,21.07L20.74,21.07z"/>
</g>
</svg>
