<?xml version="1.0" encoding="utf-8"?>
<!-- Generator: Adobe Illustrator 25.2.3, SVG Export Plug-In . SVG Version: 6.00 Build 0)  -->
<svg version="1.1" id="Layer_1" xmlns="http://www.w3.org/2000/svg" xmlns:xlink="http://www.w3.org/1999/xlink" x="0px" y="0px"
	 viewBox="0 0 36 36" style="enable-background:new 0 0 36 36;" xml:space="preserve">
<style type="text/css">
	.st0{fill:#7B6929;}
</style>
<path class="st0" d="M28.44,23.5c-0.27,0-0.54,0-0.85,0c0.15-0.21,0.27-0.4,0.34-0.61c0.15-0.43-0.13-0.83-0.59-0.84
	c-0.25,0-0.5-0.01-0.75,0c-0.16,0.01-0.2-0.05-0.18-0.19c0.01-0.17,0.01-0.35,0-0.53c0-0.22-0.12-0.35-0.3-0.35
	c-0.18,0-0.3,0.13-0.3,0.35c0,0.19-0.01,0.38,0,0.57c0.01,0.11-0.03,0.15-0.14,0.15c-0.33-0.01-0.66-0.01-0.99,0
	c-0.15,0.01-0.15-0.06-0.12-0.16c0.11-0.42,0.13-0.84,0.12-1.27c-0.01-0.44-0.25-0.69-0.69-0.7c-0.3-0.01-0.59,0.01-0.89,0.06
	c-0.12,0.02-0.17,0-0.17-0.14c0.01-0.5,0.01-1,0-1.5c0-0.16,0.04-0.2,0.2-0.15c0.82,0.23,1.64,0.24,2.45,0
	c0.19-0.06,0.22,0,0.21,0.17c-0.01,0.44-0.01,0.88,0,1.32c0,0.22,0.13,0.35,0.31,0.34c0.18-0.01,0.29-0.13,0.29-0.34
	c0-0.49,0-0.97,0-1.46c0-0.19-0.07-0.36-0.21-0.49c-0.19-0.17-0.41-0.23-0.66-0.16c-0.57,0.17-1.15,0.23-1.74,0.13
	c-0.25-0.04-0.5-0.12-0.75-0.15c-0.12-0.01-0.17-0.06-0.23-0.15c-0.35-0.58-0.79-1.09-1.3-1.54c-0.47-0.41-0.99-0.74-1.56-1
	c0.35-0.57,0.33-0.86-0.12-1.4c-0.06-0.07-0.02-0.11,0-0.16c0.13-0.31,0.12-0.61-0.06-0.89c-0.07-0.1-0.06-0.16,0.01-0.26
	c0.27-0.42,0.16-0.96-0.26-1.25c-0.1-0.07-0.12-0.14-0.12-0.25c0-0.61,0.02-1.23-0.01-1.84c-0.05-1.14-1.02-2-2.16-1.96
	c-1.1,0.04-1.99,0.93-2.01,2.04c-0.01,0.59,0,1.19,0,1.78c0,0.09,0,0.16-0.09,0.22c-0.47,0.33-0.56,0.83-0.25,1.31
	c0.03,0.05,0.07,0.08,0.02,0.15c-0.23,0.31-0.26,0.64-0.08,0.99c0.02,0.05,0.02,0.08-0.02,0.12c-0.2,0.17-0.32,0.39-0.34,0.66
	c-0.02,0.27,0.07,0.51,0.24,0.73c-0.04,0.02-0.07,0.04-0.1,0.06c-0.35,0.16-0.68,0.35-0.99,0.58c-0.22,0.16-0.19,0.45,0.04,0.54
	c0.12,0.05,0.23,0.01,0.34-0.06c0.36-0.26,0.75-0.47,1.17-0.63c0.19-0.08,0.38-0.16,0.6-0.16c1.05,0.01,2.11,0,3.16,0
	c0.09,0,0.17,0,0.26,0.03c1.37,0.47,2.43,1.34,3.18,2.58c0.04,0.06,0.07,0.11,0.03,0.19c-0.06,0.13-0.06,0.28-0.06,0.42
	c0,0.53,0,1.07,0,1.6c0,0.06,0.03,0.14-0.05,0.16c-0.08,0.02-0.09-0.07-0.11-0.12c-0.26-0.5-0.6-0.93-1.01-1.31
	c-0.29-0.27-0.64-0.27-0.92-0.01c-0.4,0.37-0.75,0.79-1,1.29c-0.06,0.13-0.12,0.16-0.26,0.11c-0.54-0.18-1.09-0.24-1.66-0.21
	c-0.38,0.02-0.6,0.28-0.61,0.65c0,0.18-0.01,0.35,0,0.53c0.07,0.89,0.29,1.71,0.98,2.35c0.01,0.01,0.01,0.03,0.01,0.05
	c-1.36,0-2.71,0-4.06,0c-0.07,0-0.13-0.01-0.2-0.03c-0.98-0.35-1.62-1.02-1.88-2.03c-0.21-0.83-0.06-1.65,0.19-2.45
	c0.21-0.7,0.56-1.34,1.03-1.91c0.11-0.13,0.17-0.26,0.07-0.42c-0.12-0.2-0.36-0.18-0.54,0.03c-0.87,1.08-1.34,2.32-1.43,3.71
	c-0.08,1.22,0.32,2.24,1.26,3.03c0.02,0.02,0.04,0.03,0.02,0.07c-0.68,0-1.36,0-2.04,0c-0.11,0-0.23,0-0.34,0.03
	c-0.44,0.11-0.67,0.42-0.8,0.83c0,0.15,0,0.3,0,0.45c0.04,0.2,0.03,0.41,0.13,0.61c0.4,0.78,1.04,1.19,1.92,1.2
	c2.83,0.01,5.66,0,8.48,0c2.71,0,5.41,0,8.12,0c0.32,0,0.64-0.05,0.92-0.19c0.67-0.33,1.11-0.84,1.16-1.62c0-0.15,0-0.3,0-0.45
	C29.45,23.68,29.19,23.5,28.44,23.5z M15.83,8.97c0.01-0.83,0.66-1.48,1.47-1.49c0.81-0.01,1.47,0.61,1.5,1.44
	c0.02,0.57,0,1.15,0.01,1.72c0,0.12-0.06,0.12-0.15,0.12c-0.45,0-0.9,0-1.35,0c-0.44,0-0.88-0.01-1.31,0
	c-0.14,0-0.17-0.04-0.16-0.17C15.84,10.04,15.83,9.5,15.83,8.97z M15.69,11.36c0.55,0,1.09,0,1.64,0c0.53,0,1.06,0,1.6,0
	c0.26,0,0.4,0.12,0.39,0.33c0,0.2-0.14,0.32-0.39,0.32c-1.08,0-2.16,0-3.24,0c-0.23,0-0.39-0.13-0.39-0.32
	C15.31,11.49,15.46,11.36,15.69,11.36z M15.72,12.61c0.54,0,1.08,0,1.62,0c0.53,0,1.06,0,1.6,0c0.25,0,0.38,0.11,0.39,0.31
	c0,0.21-0.14,0.33-0.39,0.33c-1.07,0-2.14,0-3.21,0c-0.25,0-0.4-0.13-0.4-0.33C15.32,12.72,15.46,12.61,15.72,12.61z M19.2,14.58
	c-0.05,0-0.09,0-0.14,0c-0.58,0-1.16,0-1.74,0c-0.59,0-1.17,0-1.76,0c-0.08,0-0.16,0-0.24-0.02c-0.17-0.04-0.28-0.2-0.25-0.38
	c0.02-0.18,0.13-0.29,0.32-0.31c0.1-0.01,0.2,0,0.3,0c1.17,0,2.33,0,3.5,0c0.25,0,0.41,0.14,0.41,0.35
	C19.6,14.41,19.44,14.56,19.2,14.58z M24.73,22.65c0.87,0.02,1.74,0.01,2.64,0.01c-0.13,0.38-0.36,0.64-0.69,0.82
	c-0.06,0.03-0.11,0.03-0.18,0.03c-0.94,0-1.88,0-2.87,0c0.18-0.17,0.37-0.32,0.45-0.51C24.21,22.68,24.43,22.64,24.73,22.65z
	 M22.36,22.12c0.13-0.41,0.16-0.82,0.09-1.24c-0.02-0.09-0.01-0.13,0.08-0.16c0.46-0.15,0.93-0.2,1.42-0.2
	c0.07,0,0.11,0.02,0.11,0.1c0.01,0.64-0.03,1.28-0.36,1.84c-0.48,0.8-1.2,1.12-2.15,1.03C21.9,23.06,22.2,22.63,22.36,22.12z
	 M19.83,20.18c0.2-0.35,0.46-0.66,0.76-0.94c0.05-0.05,0.09-0.12,0.18-0.03c0.5,0.49,0.93,1.02,1.07,1.72
	c0.01,0.05,0.02,0.09,0.03,0.14c0.01,0.09,0.01,0.17,0.01,0.24c0,0.61-0.25,1.11-0.59,1.56c-0.15,0.2-0.32,0.38-0.5,0.55
	c-0.05,0.05-0.09,0.09-0.16,0.02c-0.49-0.48-0.92-1-1.07-1.7C19.44,21.17,19.56,20.66,19.83,20.18z M17.37,21.5
	c-0.04-0.28-0.04-0.55-0.04-0.83c0-0.09,0.01-0.15,0.13-0.15c0.47,0,0.93,0.05,1.38,0.19c0.07,0.02,0.13,0.04,0.11,0.15
	c-0.16,0.85,0.12,1.58,0.61,2.25c0.09,0.12,0.18,0.24,0.28,0.37C18.52,23.66,17.53,22.78,17.37,21.5z M29.09,24.83
	c-0.15,0.63-0.67,1.09-1.32,1.11c-0.04,0-0.08,0-0.12,0c-5.53,0-11.06,0-16.59,0c-0.77,0-1.34-0.47-1.46-1.19
	c-0.07-0.41,0.12-0.63,0.54-0.63c3.08,0,6.16,0,9.24,0c3.05,0,6.09,0.01,9.14-0.01C29.06,24.1,29.18,24.44,29.09,24.83z"/>
<path class="st0" d="M25.65,15.45c-0.14-0.7-0.49-1.31-0.9-1.88c-0.2-0.28-0.57-0.27-0.77,0.01c-0.32,0.43-0.58,0.89-0.76,1.4
	c-0.13,0.36-0.2,0.73-0.14,1.11c0.13,0.78,0.83,1.29,1.56,1.14c0.6-0.13,1.04-0.73,1.05-1.42C25.68,15.69,25.67,15.57,25.65,15.45z
	 M24.97,16.25c-0.13,0.24-0.33,0.4-0.61,0.4c-0.28,0-0.47-0.16-0.6-0.41c-0.13-0.25-0.12-0.51-0.06-0.77
	c0.12-0.5,0.37-0.95,0.67-1.4c0.33,0.53,0.64,1.03,0.7,1.65C25.09,15.91,25.06,16.09,24.97,16.25z"/>
</svg>
