<?xml version="1.0" encoding="utf-8"?>
<!-- Generator: Adobe Illustrator 25.2.3, SVG Export Plug-In . SVG Version: 6.00 Build 0)  -->
<svg version="1.1" id="Layer_1" xmlns="http://www.w3.org/2000/svg" xmlns:xlink="http://www.w3.org/1999/xlink" x="0px" y="0px"
	 viewBox="0 0 36 36" style="enable-background:new 0 0 36 36;" xml:space="preserve">
<style type="text/css">
	.st0{fill:#7B6929;}
</style>
<g transform="translate(1.4065934065934016 1.4065934065934016) scale(2.81 2.81)">
	<path class="st0" d="M9.93,5.98c-0.12-0.16-0.3-0.27-0.5-0.3c-0.2-0.03-0.4,0.04-0.56,0.17L7.65,6.88
		c-0.29,0.25-0.64,0.42-1.02,0.5V3.45c0.32,0.02,0.64,0.18,0.97,0.47c0,0,0.01,0.01,0.01,0.01c0,0,0.01,0.01,0.01,0.01c0,0,0,0,0,0
		c0.01,0,0.01,0,0.02,0c0,0,0.01,0,0.01,0c0,0,0,0,0,0c0.01,0,0.01,0,0.01,0c0.01,0,0.01,0,0.02,0c0,0,0,0,0,0c0,0,0,0,0.01,0
		c0,0,0,0,0.01,0c0,0,0.01,0,0.01-0.01c0.71-0.63,1.4-0.63,2.11,0c0,0,0.01,0.01,0.02,0.01c0,0,0.01,0.01,0.01,0.01
		c0.01,0,0.02,0.01,0.04,0.01c0.01,0,0.03,0,0.04-0.01c0,0,0,0,0.01,0c0.01-0.01,0.02-0.01,0.03-0.02c0,0,0,0,0,0
		c0,0,0-0.01,0.01-0.01c0-0.01,0.01-0.01,0.01-0.02c0-0.01,0-0.01,0-0.02c0,0,0-0.01,0-0.01c0,0,0,0,0-0.01c0,0,0,0,0,0
		C10.01,2.27,8.45,1,6.54,1c0,0,0,0,0,0C4.62,1,3.06,2.27,3.06,3.84v0c0,0,0,0,0,0.01c0,0,0,0.01,0,0.01c0,0.01,0,0.01,0,0.02
		c0,0.01,0.01,0.01,0.01,0.02c0,0,0,0.01,0.01,0.01c0,0,0,0,0,0C3.09,3.92,3.1,3.92,3.1,3.93c0,0,0.01,0.01,0.01,0.01
		c0.01,0,0.01,0,0.02,0c0.01,0,0.01,0,0.02,0c0,0,0,0,0,0c0,0,0.01,0,0.01,0c0.01,0,0.01,0,0.02,0c0.01,0,0.01-0.01,0.02-0.01
		c0,0,0.01,0,0.01-0.01c0.71-0.63,1.4-0.63,2.11,0c0,0,0.01,0.01,0.02,0.01c0,0,0.01,0.01,0.01,0.01c0.01,0,0.02,0.01,0.04,0.01l0,0
		l0,0c0.01,0,0.01,0,0.01,0c0.03,0,0.06,0,0.08-0.02c0.32-0.28,0.63-0.43,0.94-0.47v3.95C6.34,7.42,6.25,7.43,6.16,7.43H2.03
		c-0.38,0-0.69,0.31-0.69,0.69c0,0.38,0.31,0.69,0.69,0.69H2.1L2.03,8.94C1.92,9.14,1.92,9.39,2.04,9.59
		c0.12,0.2,0.34,0.33,0.57,0.33c0.24,0,0.47-0.13,0.59-0.35l0.41-0.76h2.21l0.41,0.76c0.12,0.22,0.34,0.35,0.59,0.35
		c0.24,0,0.45-0.12,0.57-0.33c0.12-0.2,0.13-0.45,0.01-0.66L7.3,8.74c0.37-0.09,0.71-0.27,1.01-0.52l1.5-1.27
		C10.1,6.7,10.15,6.29,9.93,5.98z M6.54,1.2c0.53,0,0.99,1.1,1.03,2.44C6.88,3.11,6.19,3.12,5.5,3.66C5.52,3.01,5.63,2.4,5.82,1.94
		C6.02,1.47,6.28,1.2,6.54,1.2z M9.8,3.63c-0.68-0.51-1.36-0.5-2.03,0.01c-0.03-1.1-0.32-2.01-0.74-2.41
		C8.52,1.41,9.68,2.4,9.8,3.63z M3.27,3.63c0.12-1.23,1.28-2.22,2.77-2.4c-0.15,0.15-0.29,0.36-0.4,0.64
		C5.44,2.35,5.32,2.97,5.3,3.64C4.63,3.12,3.94,3.12,3.27,3.63z M3.03,9.48C2.95,9.63,2.79,9.72,2.62,9.72
		c-0.17,0-0.32-0.09-0.4-0.23C2.13,9.35,2.13,9.18,2.21,9.03l0.12-0.22h1.07L3.03,9.48z M7.12,8.81l0.12,0.22
		c0.08,0.15,0.08,0.32-0.01,0.46c-0.09,0.14-0.24,0.23-0.4,0.23c-0.17,0-0.33-0.09-0.41-0.25L6.05,8.81h0.64L7.12,8.81L7.12,8.81z
		 M9.68,6.8l-1.5,1.27C7.76,8.42,7.23,8.62,6.69,8.62H5.72H3.72H2.21H2.03c-0.27,0-0.5-0.22-0.5-0.5s0.22-0.5,0.5-0.5h4.13
		c0.13,0,0.25-0.01,0.37-0.03c0,0,0,0,0,0c0,0,0,0,0.01,0c0.45-0.07,0.88-0.26,1.24-0.56L9,5.99c0.11-0.1,0.26-0.14,0.41-0.12
		c0.15,0.02,0.28,0.1,0.36,0.22C9.93,6.32,9.89,6.62,9.68,6.8z"/>
</g>
</svg>
