<?xml version="1.0" encoding="utf-8"?>
<!-- Generator: Adobe Illustrator 25.2.3, SVG Export Plug-In . SVG Version: 6.00 Build 0)  -->
<svg version="1.1" id="Layer_1" xmlns="http://www.w3.org/2000/svg" xmlns:xlink="http://www.w3.org/1999/xlink" x="0px" y="0px"
	 viewBox="0 0 36 36" style="enable-background:new 0 0 36 36;" xml:space="preserve">
<style type="text/css">
	.st0{fill:#7B6929;}
</style>
<path class="st0" d="M30.39,30.93c-0.03-0.38-0.14-0.75-0.19-1.13c-0.22-1.45-0.41-2.9-0.6-4.35c-0.34-2.54-0.67-5.09-1-7.63
	c-0.37-2.82-0.75-5.65-1.13-8.47c-0.05-0.38-0.05-0.38,0.35-0.38c0.08,0,0.16,0,0.25,0c1.58-0.05,2.66-1.48,2.24-2.98
	c-0.29-1.03-1.21-1.7-2.37-1.7c-3.79,0-7.58,0-11.37,0c-2.55,0-5.1-0.01-7.66,0c-1.65,0-2.77,1.46-2.33,2.99
	C6.86,8.3,7.79,8.96,8.92,8.96c3.72,0,7.44,0,11.16,0c0.23,0,0.28,0.05,0.28,0.28c-0.01,5.8-0.01,11.61-0.01,17.41
	c0,0.08-0.01,0.16,0,0.25c0.01,0.11-0.04,0.14-0.14,0.14c-0.95,0-1.91,0-2.89,0c0.02-0.06,0.02-0.08,0.03-0.1
	c1.72-2.9,1.76-5.89,0.46-8.95c-0.09-0.21-0.21-0.29-0.45-0.29c-3.04,0.01-6.09,0.01-9.13,0.01c-0.82,0-0.84-0.01-1.13,0.77
	c-0.14,0.39-0.3,0.68-0.77,0.64c-0.08-0.01-0.16,0.03-0.24,0.05c-1.76,0.47-2.92,2.17-2.7,3.98c0.22,1.84,1.74,3.24,3.6,3.23
	c0.37,0,0.57,0.08,0.69,0.41c0.03,0.07,0.08,0.14,0.12,0.21c-0.1,0.05-0.19,0.03-0.27,0.03c-0.7,0-1.4,0-2.11,0
	c-0.29,0-0.58,0.03-0.86,0.12c-1.1,0.37-1.75,1.45-1.56,2.62c0.17,1.11,1.18,1.92,2.4,1.92c8.08,0,16.17,0,24.25,0
	C30.22,31.71,30.43,31.48,30.39,30.93z M4.56,22.89c-0.1-1.26,0.84-2.5,2.02-2.64c-0.29,1.68-0.17,3.33,0.38,4.96
	C5.74,25.23,4.65,24.16,4.56,22.89z M9.01,7.79c-0.17,0-0.35,0.01-0.52-0.04c-0.57-0.16-0.91-0.7-0.84-1.3
	C7.73,5.91,8.2,5.48,8.77,5.47c0.77-0.01,1.55,0,2.32,0c5.59,0,11.17,0,16.76,0c0.17,0,0.35-0.01,0.52,0.04
	c0.57,0.16,0.92,0.7,0.84,1.3c-0.07,0.54-0.54,0.97-1.11,0.98c-0.58,0.01-1.17,0.01-1.75,0c-0.2,0-0.22,0.07-0.2,0.24
	c0.38,2.84,0.76,5.68,1.14,8.52c0.34,2.52,0.68,5.03,1.02,7.55c0.17,1.24,0.33,2.47,0.49,3.71c-0.08,0.01-0.13-0.05-0.18-0.08
	c-0.71-0.47-1.49-0.69-2.34-0.69c-1.49-0.01-2.99-0.01-4.48,0c-0.23,0-0.28-0.05-0.28-0.28c0.01-6.2,0.01-12.41,0-18.61
	c0-0.41,0.04-0.35-0.35-0.35C17.13,7.79,13.07,7.79,9.01,7.79z M7.72,23.44c-0.24-1.43-0.14-2.83,0.33-4.22
	c0.1-0.29,0.2-0.36,0.49-0.36c2.69,0.01,5.37,0.01,8.06,0c0.19,0,0.28,0.05,0.34,0.24c0.74,2.3,0.69,4.54-0.43,6.72
	c-0.2,0.39-0.41,0.8-0.74,1.07c-0.35,0.29-0.82,0.09-1.23,0.11c-0.68,0.03-1.37,0.01-2.05,0.01c-0.97,0-1.95-0.01-2.92,0
	c-0.19,0-0.32-0.06-0.43-0.21C8.41,25.8,7.93,24.68,7.72,23.44z M28.87,30.54c-7.78,0-15.56,0-23.35,0c-0.22,0-0.44,0.01-0.65-0.08
	c-0.51-0.21-0.81-0.75-0.71-1.31c0.09-0.53,0.57-0.94,1.15-0.94c1.98,0,3.95,0.01,5.93,0.01c2.93,0,5.87-0.01,8.8-0.01
	c2.13,0,4.26,0,6.4,0.01c1.25,0.01,2.46,1.04,2.7,2.31C29.05,30.54,28.96,30.54,28.87,30.54z"/>
<path class="st0" d="M16.77,10.13c-2.69,0-5.37,0-8.06,0c-0.08,0-0.27-0.1-0.22,0.14c0.21,0.99,0.57,1.91,1.33,2.61
	c0.95,0.87,1.4,1.92,1.33,3.21c-0.01,0.17,0.03,0.23,0.22,0.23c0.92-0.01,1.84-0.01,2.76,0c0.21,0,0.23-0.07,0.23-0.25
	c-0.02-0.43,0.01-0.85,0.13-1.27c0.21-0.73,0.63-1.32,1.18-1.83c0.83-0.76,1.24-1.73,1.41-2.84C16.97,10.13,16.87,10.13,16.77,10.13
	z M14.92,12.07c-0.88,0.78-1.47,1.72-1.65,2.9c-0.02,0.15-0.08,0.2-0.23,0.19c-0.23-0.01-0.49,0.06-0.67-0.03
	c-0.2-0.1-0.14-0.41-0.2-0.62c-0.28-0.94-0.75-1.75-1.5-2.39c-0.26-0.22-0.47-0.47-0.62-0.82c1.83,0,3.62,0,5.44,0
	C15.35,11.61,15.16,11.86,14.92,12.07z"/>
</svg>
