<?xml version="1.0" encoding="utf-8"?>
<!-- Generator: Adobe Illustrator 25.2.3, SVG Export Plug-In . SVG Version: 6.00 Build 0)  -->
<svg version="1.1" id="Layer_1" xmlns="http://www.w3.org/2000/svg" xmlns:xlink="http://www.w3.org/1999/xlink" x="0px" y="0px"
	 viewBox="0 0 36 36" style="enable-background:new 0 0 36 36;" xml:space="preserve">
<style type="text/css">
	.st0{fill:#7B6929;}
</style>
<path class="st0" d="M15.07,11.75c0.8,0,1.44-0.65,1.44-1.44c0-0.8-0.65-1.44-1.44-1.44c-0.8,0-1.44,0.65-1.44,1.44
	C13.62,11.11,14.27,11.75,15.07,11.75"/>
<path class="st0" d="M9.61,14.76c0.09-0.04,0.18-0.09,0.26-0.15c0.08-0.06,0.16-0.12,0.23-0.2c0.04,0.27,0.11,0.53,0.19,0.79
	C10.08,15.05,9.85,14.9,9.61,14.76z M8.5,14.28c-0.02-0.01-0.04-0.01-0.06-0.02l0,0c-0.41-0.13-0.82-0.42-1.12-0.86
	c-0.34-0.49-0.48-1.05-0.4-1.55c0.06-0.34,0.22-0.61,0.47-0.79c0.25-0.17,0.56-0.23,0.9-0.17c0.5,0.09,0.98,0.42,1.32,0.9
	c0.29,0.41,0.44,0.88,0.42,1.32h0c0,0.02,0,0.03,0,0.05c0,0.06-0.01,0.12-0.02,0.18c-0.06,0.34-0.22,0.61-0.47,0.79
	C9.25,14.34,8.87,14.38,8.5,14.28z M12.36,18.67c1.69-0.53,3.1-1.7,3.96-3.21l1.09,1.38l-2.57,2.51c-0.26,0.26-0.42,0.62-0.42,1.02
	c0,0.12,0.01,0.24,0.04,0.35l1.56,5.71h1.71l-0.73-5.83l2.21-1.49l5.73,7.25l1.47-0.75l-7.6-12.92c0.39-0.1,0.8-0.16,1.23-0.16
	c1.42,0,2.7,0.63,3.57,1.63l0.48-1.32c-1.1-1.25-2.71-2.04-4.5-2.04c-1.75,0-3.34,0.75-4.43,1.95c-0.08,0.09-0.13,0.2-0.13,0.33
	c0,1.94-1.16,3.6-2.82,4.34l-0.58-0.82c-0.7-1-1.04-2.18-0.98-3.39c0.03-0.58-0.15-1.19-0.52-1.72c-0.78-1.11-2.14-1.5-3.04-0.87
	c-0.37,0.26-0.63,0.67-0.71,1.16c-0.12,0.65,0.06,1.38,0.49,1.99c0.38,0.54,0.9,0.92,1.46,1.09c1.15,0.37,2.13,1.08,2.83,2.08
	L12.36,18.67z"/>
</svg>
