<?xml version="1.0" encoding="utf-8"?>
<!-- Generator: Adobe Illustrator 25.2.3, SVG Export Plug-In . SVG Version: 6.00 Build 0)  -->
<svg version="1.1" id="Layer_1" xmlns="http://www.w3.org/2000/svg" xmlns:xlink="http://www.w3.org/1999/xlink" x="0px" y="0px"
	 viewBox="0 0 36 36" style="enable-background:new 0 0 36 36;" xml:space="preserve">
<style type="text/css">
	.st0{fill:#7B6A29;}
</style>
<path class="st0" d="M13.3,16.2c0-1-0.5-1.8-1.1-1.8s-1.1,0.7-1.1,1.8c0,1.1,0.5,1.8,1.1,1.8S13.3,17.2,13.3,16.2z M11.8,16.2
	c0-0.7,0.3-1.1,0.4-1.1s0.4,0.4,0.4,1.1c0,0.7-0.3,1.1-0.4,1.1S11.8,16.9,11.8,16.2L11.8,16.2z"/>
<path class="st0" d="M22.4,10.6H12c0,0-0.1,0-0.1,0c-1.6,0.3-2.8,2.7-2.8,5.6c0,3.2,1.4,5.6,3.1,5.6h2.4v2.5c0,0.2,0.2,0.4,0.4,0.4
	c0.1,0,0.2,0,0.3-0.1c0.6-0.2,1.2-0.1,1.7,0.3c0.3,0.2,0.5,0.4,0.8,0.6c0.5,0.6,1.3,0.9,2.1,1c0.5,0,1-0.1,1.5-0.3
	c1-0.4,2.1-0.5,3.2-0.5c0.1,0,0.2,0,0.3-0.1c0.1-0.1,0.1-0.2,0.1-0.3c0-0.1,0.3-7.6,0.3-10C25.3,12.7,24,10.6,22.4,10.6z M9.8,16.2
	c0-2.7,1.1-4.9,2.4-4.9s2.4,2.2,2.4,4.9s-1.1,4.9-2.4,4.9S9.8,18.9,9.8,16.2z M13.8,21.1c0.3-0.4,0.6-0.8,0.8-1.2v1.2H13.8z
	 M24.3,24.9c-1.1,0-2.2,0.2-3.2,0.5c-1.7,0.5-2.2,0.1-2.8-0.5c-0.3-0.3-0.6-0.5-0.9-0.7c-0.6-0.4-1.4-0.6-2.1-0.4v-7.2c0,0,0,0,0,0
	c0-0.1,0-0.2,0-0.3c0-2.1-0.6-3.9-1.6-4.9h8.6c1.2,0,2.2,1.8,2.2,4S24.4,23.4,24.3,24.9z"/>
</svg>
