<?xml version="1.0" encoding="utf-8"?>
<!-- Generator: Adobe Illustrator 25.2.3, SVG Export Plug-In . SVG Version: 6.00 Build 0)  -->
<svg version="1.1" id="Layer_1" xmlns="http://www.w3.org/2000/svg" xmlns:xlink="http://www.w3.org/1999/xlink" x="0px" y="0px"
	 viewBox="0 0 36 36" style="enable-background:new 0 0 36 36;" xml:space="preserve">
<style type="text/css">
	.st0{fill:#7B6929;}
</style>
<path class="st0" d="M30.31,10.17c-0.54-0.95-1.78-1.27-2.69-0.62c-0.34,0.24-0.67,0.3-1.04,0.28c-0.1,0-0.21-0.01-0.31,0
	c-0.14,0.01-0.17-0.05-0.18-0.18c-0.12-1.36-1.23-2.41-2.59-2.41c-3.95-0.01-7.9-0.01-11.85,0c-1.36,0-2.48,1.05-2.6,2.41
	c-0.01,0.15-0.06,0.19-0.2,0.18c-0.37-0.01-0.74-0.01-1.11,0C7.55,9.84,7.42,9.78,7.28,9.66c-0.66-0.58-1.71-0.59-2.4-0.04
	c-0.4,0.32-0.6,0.75-0.74,1.23c0,0.17,0,0.34,0,0.52c0.01,0.03,0.03,0.06,0.04,0.09c0.28,1.37,1.75,2.03,2.9,1.25
	c0.39-0.27,0.75-0.3,1.17-0.3c0.15,0,0.31,0.02,0.46,0c0.26-0.04,0.33,0.05,0.32,0.32c-0.01,3.88-0.01,7.76-0.01,11.64
	c0,0.47,0.11,0.58,0.58,0.58c0.76,0,1.51,0.01,2.27-0.01c0.2,0,0.24,0.06,0.23,0.24c-0.01,0.42,0,0.84,0,1.26
	c0,0.51,0.11,0.62,0.62,0.62c4.24,0,8.48,0,12.72,0c0.57,0,0.65-0.08,0.65-0.66c0-4.4,0-8.79,0-13.19c0-0.26-0.11-0.59,0.04-0.75
	c0.16-0.17,0.5-0.03,0.77-0.06c0.23-0.02,0.39,0.07,0.57,0.21c0.6,0.48,1.29,0.56,1.98,0.24C30.51,12.36,30.87,11.16,30.31,10.17z
	 M6.05,12.26c-0.62,0-1.13-0.51-1.13-1.13c0-0.61,0.52-1.14,1.12-1.15c0.63,0,1.16,0.53,1.15,1.17C7.19,11.76,6.68,12.26,6.05,12.26
	z M8.83,11.63c-0.12-0.01-0.24,0-0.36,0c0,0,0-0.01,0-0.01c-0.17,0-0.38,0.06-0.5-0.02c-0.1-0.07,0.03-0.29,0.01-0.45
	c-0.01-0.07,0-0.14-0.01-0.21C7.95,10.6,7.95,10.6,8.29,10.6c0.19,0,0.38,0.01,0.57,0c0.13-0.01,0.18,0.04,0.18,0.17
	c-0.01,0.22-0.01,0.45,0,0.67C9.05,11.61,8.98,11.65,8.83,11.63z M21.64,9.65c0.08-0.76,0.57-1.33,1.35-1.53
	c1.08-0.27,2,0.25,2.28,1.3c0.02,0.06,0.02,0.12,0.04,0.18c0.04,0.17,0,0.24-0.2,0.24c-0.55-0.01-1.1-0.01-1.65-0.01s-1.1,0-1.65,0
	C21.67,9.83,21.62,9.81,21.64,9.65z M9.8,21.52c-0.02-0.19,0.05-0.23,0.23-0.23c1.18,0.01,2.36,0,3.53,0c2.34,0,4.68,0,7.01,0
	c0.19,0,0.29,0.03,0.26,0.25c-0.02,0.16-0.02,0.33,0,0.49c0.02,0.19-0.05,0.22-0.23,0.22c-1.76-0.01-3.52,0-5.29,0
	c-1.75,0-3.51,0-5.26,0.01c-0.22,0-0.28-0.06-0.26-0.27C9.82,21.83,9.82,21.67,9.8,21.52z M10.08,24.17c-0.24,0-0.3-0.07-0.27-0.28
	c0.03-0.28-0.12-0.65,0.06-0.81c0.15-0.14,0.52-0.04,0.8-0.04c3.3,0,6.61,0,9.91-0.01c0.23,0,0.3,0.06,0.27,0.28
	c-0.02,0.2-0.02,0.41,0,0.62c0.02,0.22-0.07,0.25-0.26,0.25c-1.76-0.01-3.51,0-5.27,0C13.57,24.16,11.82,24.16,10.08,24.17z
	 M25.33,26.07c0,0.17-0.04,0.21-0.21,0.21c-4.01,0-8.02,0-12.03,0c-0.17,0-0.22-0.05-0.21-0.22c0.01-0.31,0.02-0.62,0-0.93
	c-0.01-0.18,0.06-0.21,0.22-0.21c1.45,0.01,2.89,0,4.34,0c1.21,0,2.43,0,3.64,0c0.41,0,0.54-0.12,0.54-0.54c0-2.81,0-5.63,0-8.44
	c0-0.09,0-0.19-0.02-0.28c-0.05-0.17-0.18-0.25-0.35-0.26c-0.17,0-0.3,0.07-0.36,0.24c-0.04,0.11-0.04,0.24-0.04,0.36
	c0,1.42,0,2.84,0.01,4.26c0,0.2-0.04,0.26-0.25,0.26c-3.51-0.01-7.02-0.01-10.53,0c-0.2,0-0.26-0.05-0.26-0.25
	c0.01-3.42,0-6.85,0.01-10.27c0-1.22,0.78-2,2-2c3.17,0,6.35,0,9.52,0c0.07,0,0.15,0,0.28,0c-0.55,0.59-0.76,1.23-0.75,1.97
	c0.02,1.35-0.01,2.7-0.02,4.05c0,0.09,0,0.17,0.01,0.26c0.03,0.22,0.16,0.34,0.38,0.34c0.21,0,0.36-0.14,0.37-0.38
	c0.01-0.48,0.01-0.96,0.01-1.45c0-0.4,0-0.4,0.39-0.4c1.03,0,2.06,0,3.1,0c0.18,0,0.23,0.04,0.23,0.22
	C25.32,17.11,25.32,21.59,25.33,26.07z M26.58,11.63c-0.78-0.01-1.56,0-2.35,0c-0.79,0-1.58-0.01-2.37,0.01
	c-0.21,0-0.27-0.06-0.25-0.26c0.02-0.25-0.1-0.57,0.04-0.72c0.16-0.16,0.49-0.05,0.74-0.05c1.39-0.01,2.79,0,4.18-0.01
	c0.19,0,0.25,0.03,0.2,0.24c-0.04,0.19-0.04,0.4,0,0.59C26.83,11.64,26.74,11.63,26.58,11.63z M28.67,12.26
	c-0.63,0-1.15-0.52-1.14-1.15c0-0.61,0.52-1.13,1.13-1.13c0.62,0,1.15,0.53,1.15,1.15C29.8,11.75,29.29,12.25,28.67,12.26z"/>
</svg>
