<?xml version="1.0" encoding="utf-8"?>
<!-- Generator: Adobe Illustrator 25.2.3, SVG Export Plug-In . SVG Version: 6.00 Build 0)  -->
<svg version="1.1" id="Layer_1" xmlns="http://www.w3.org/2000/svg" xmlns:xlink="http://www.w3.org/1999/xlink" x="0px" y="0px"
	 viewBox="0 0 36 36" style="enable-background:new 0 0 36 36;" xml:space="preserve">
<style type="text/css">
	.st0{fill:#7B6929;}
</style>
<g>
	<path class="st0" d="M27.22,5.09c0.18,0.11,0.23,0.26,0.23,0.47c0,5.07,0,10.15,0,15.22c0,0.05,0.01,0.11,0,0.16
		c-0.03,0.19-0.15,0.3-0.33,0.3c-0.19,0-0.3-0.11-0.33-0.3c-0.01-0.05,0-0.1,0-0.16c0-5.07,0-10.15,0-15.22
		c0-0.21,0.05-0.36,0.23-0.47C27.08,5.09,27.15,5.09,27.22,5.09z"/>
	<path class="st0" d="M13.83,8.65c-1.45,0-2.9,0-4.34,0c-0.55,0-0.76,0.21-0.76,0.76c0,2.37,0,4.73,0,7.1
		c0,0.55,0.21,0.76,0.75,0.76c2.29,0,4.58,0,6.87,0c0.07,0,0.15,0,0.22,0c0.17,0.02,0.27,0.12,0.29,0.29
		c0.02,0.18-0.07,0.3-0.24,0.36c-0.08,0.02-0.16,0.02-0.24,0.02c-2.31,0-4.63,0-6.94,0c-0.87,0-1.39-0.52-1.39-1.39
		c0-2.4,0-4.79,0-7.19c0-0.86,0.52-1.38,1.38-1.38c2.94,0,5.88,0,8.82,0c0.85,0,1.37,0.51,1.37,1.36c0,2.41-0.01,4.82,0,7.23
		c0,0.86-0.62,1.5-1.69,1.35c-0.18-0.02-0.29-0.16-0.27-0.35c0.02-0.19,0.13-0.3,0.32-0.31c0.13-0.01,0.25,0,0.38,0
		c0.33-0.02,0.55-0.23,0.58-0.57c0.01-0.07,0.01-0.13,0.01-0.2c0-2.36,0-4.72,0-7.07c0-0.58-0.19-0.77-0.78-0.77
		C16.73,8.65,15.28,8.65,13.83,8.65z"/>
	<path class="st0" d="M28.43,23.76c-0.27,0.02-0.55,0-0.83,0.01c-0.13,0-0.16-0.04-0.16-0.16c0.01-0.4,0-0.79,0-1.19
		c0-0.24-0.14-0.39-0.34-0.39c-0.2,0-0.33,0.16-0.33,0.39c0,0.4-0.01,0.79,0,1.19c0,0.13-0.03,0.16-0.16,0.16c-1.77,0-3.54,0-5.3,0
		c-0.12,0-0.17-0.02-0.17-0.16c0.01-0.9,0.01-1.81,0-2.71c0-0.13,0.03-0.17,0.16-0.17c0.27,0.01,0.54,0.01,0.81,0
		c0.43-0.01,0.67-0.26,0.68-0.69c0-0.17,0-0.34,0-0.51c0-0.1,0.02-0.14,0.13-0.16c0.7-0.14,1.13-0.66,1.13-1.38
		c0-3.38,0-6.76,0-10.14c0-0.17-0.02-0.33-0.08-0.48c-0.2-0.59-0.7-0.92-1.41-0.92c-4.81,0-9.62,0-14.44,0
		c-0.86,0-1.22,0.24-1.55,1.03c0,0.01-0.02,0.02-0.03,0.02c0,0.66,0,1.31,0,1.97c0.1,0.17,0.23,0.28,0.44,0.22
		c0.21-0.07,0.24-0.24,0.24-0.43c-0.01-0.47,0-0.94,0-1.41c0-0.15,0.03-0.3,0.12-0.42c0.17-0.25,0.42-0.31,0.7-0.31
		c4.83,0,9.65,0,14.48,0c0.06,0,0.12,0,0.18,0c0.41,0.02,0.68,0.3,0.68,0.71c0,3.39,0,6.79,0,10.18c0,0.41-0.27,0.69-0.68,0.7
		c-0.46,0.01-0.93,0-1.39,0.01c-0.11,0-0.16-0.03-0.16-0.15c0.01-0.2,0.01-0.4,0-0.6c-0.01-0.22-0.13-0.35-0.31-0.36
		c-0.2-0.01-0.34,0.13-0.35,0.35c-0.01,0.18-0.02,0.36,0,0.54c0.02,0.19-0.04,0.23-0.23,0.23c-4.07-0.01-8.15,0-12.22,0
		c-0.57,0-0.82-0.26-0.82-0.81c0-2.32,0-4.64,0-6.96c0-0.19-0.01-0.36-0.22-0.44c-0.21-0.08-0.33,0.05-0.45,0.18
		c0,2.55,0,5.1,0,7.66c0.07,0.04,0.06,0.13,0.09,0.19c0.19,0.44,0.52,0.73,0.99,0.82c0.16,0.03,0.19,0.09,0.18,0.23
		c-0.01,0.16,0,0.31,0,0.47c0,0.08,0.01,0.16,0.04,0.24c0.11,0.31,0.33,0.44,0.77,0.44c3.86,0,7.73,0,11.59,0c0.05,0,0.1,0,0.16,0
		c0.11-0.01,0.14,0.03,0.14,0.14c0,0.92,0,1.83,0,2.75c0,0.11-0.03,0.14-0.14,0.14c-0.33-0.01-0.66,0-0.98,0
		c-0.59,0-0.9,0.31-0.9,0.89c0,0.79,0.01,1.58-0.01,2.37c-0.01,0.48,0.16,0.82,0.62,0.99c3.27,0,6.54,0,9.81,0
		c0.32-0.07,0.52-0.26,0.58-0.58c0-1.03,0-2.06,0-3.09C29.27,23.89,28.92,23.72,28.43,23.76z M21.15,19.47
		c0-0.09,0.07-0.08,0.13-0.08c0.12,0,0.24,0,0.36,0c0.49,0,0.48,0,0.48,0.49c0,0.16-0.05,0.2-0.2,0.19c-0.21-0.01-0.42,0-0.63,0
		c-0.06,0-0.15,0.02-0.15-0.08C21.15,19.81,21.15,19.64,21.15,19.47z M20.06,20.06c-1.86,0-3.73,0-5.59,0c-1.92,0-3.85,0-5.77,0
		c-0.18,0-0.24-0.02-0.24-0.22c0.02-0.45,0-0.45,0.45-0.45c3.77,0,7.53,0,11.3,0c0.2,0,0.29,0.03,0.28,0.26
		C20.46,20.06,20.48,20.06,20.06,20.06z M28.54,27.35c-1.53-0.01-3.06,0-4.59,0c-1.51,0-3.03,0-4.54,0c-0.21,0-0.29-0.05-0.28-0.27
		c0.01-0.79,0.01-1.58,0-2.37c0-0.2,0.05-0.27,0.26-0.27c3.05,0.01,6.1,0.01,9.15,0c0.19,0,0.26,0.05,0.26,0.25
		c-0.01,0.81-0.01,1.61,0,2.42C28.8,27.3,28.73,27.35,28.54,27.35z"/>
	<path class="st0" d="M22.71,15.38c-0.01-0.38-0.24-0.61-0.61-0.62c-0.41,0-0.82,0-1.23,0c-0.36,0-0.6,0.24-0.62,0.6
		c-0.01,0.27-0.01,0.54,0,0.8c0.01,0.36,0.25,0.6,0.61,0.61c0.21,0.01,0.42,0,0.63,0c0.21,0,0.42,0.01,0.63,0
		c0.36-0.02,0.59-0.25,0.6-0.61C22.71,15.9,22.71,15.64,22.71,15.38z M22.04,16c-0.01,0.1-0.05,0.1-0.13,0.1
		c-0.29,0-0.58,0.03-0.87-0.01c-0.29-0.05-0.07-0.3-0.12-0.45c-0.02-0.07-0.07-0.22,0.12-0.21c0.15,0.01,0.3,0,0.45,0
		c0.02,0,0.04,0,0.07,0C22.09,15.43,22.1,15.45,22.04,16z"/>
	<path class="st0" d="M21.48,8.74c-0.62,0-1.12,0.48-1.12,1.09c0,0.61,0.49,1.1,1.11,1.1c0.61,0,1.12-0.49,1.13-1.09
		C22.61,9.24,22.1,8.74,21.48,8.74z M21.49,10.26c-0.25,0.01-0.45-0.18-0.46-0.42c0-0.24,0.18-0.42,0.43-0.42
		c0.25-0.01,0.46,0.18,0.46,0.42C21.93,10.06,21.74,10.25,21.49,10.26z"/>
	<path class="st0" d="M21.49,11.86c-0.62-0.01-1.12,0.48-1.13,1.09c-0.01,0.61,0.48,1.1,1.1,1.11c0.62,0,1.12-0.48,1.13-1.08
		C22.61,12.37,22.1,11.86,21.49,11.86z M21.49,13.38c-0.25,0-0.45-0.18-0.45-0.42c0-0.24,0.2-0.43,0.45-0.43
		c0.23,0,0.44,0.19,0.44,0.41C21.94,13.17,21.73,13.37,21.49,13.38z"/>
	<path class="st0" d="M21.65,25.55c0.5,0,1,0,1.5,0c0.25,0,0.41,0.14,0.41,0.34c0,0.2-0.16,0.33-0.4,0.33c-1.01,0-2.01,0-3.02,0
		c-0.24,0-0.39-0.13-0.39-0.33c0-0.2,0.14-0.34,0.38-0.34C20.63,25.55,21.14,25.55,21.65,25.55z"/>
	<path class="st0" d="M27.78,25.44c-0.02-0.34-0.23-0.56-0.57-0.57c-0.44-0.02-0.88-0.02-1.32,0c-0.34,0.01-0.55,0.24-0.56,0.58
		c-0.01,0.28-0.01,0.57,0,0.85c0.02,0.35,0.24,0.56,0.59,0.58c0.21,0.01,0.42,0,0.63,0c0.22,0,0.43,0.01,0.65,0
		c0.35-0.02,0.57-0.23,0.59-0.58C27.79,26.01,27.79,25.72,27.78,25.44z M27.11,26.11c0,0.07-0.03,0.09-0.1,0.09
		c-0.3,0-0.62,0.05-0.91-0.01c-0.26-0.06-0.06-0.33-0.11-0.49c-0.03-0.09-0.01-0.18,0.13-0.17c0.14,0.01,0.28,0,0.42,0
		c0.04,0,0.07,0,0.11,0c0.15,0.02,0.35-0.07,0.42,0.04C27.18,25.71,27.11,25.93,27.11,26.11z"/>
</g>
</svg>
