<?xml version="1.0" encoding="utf-8"?>
<!-- Generator: Adobe Illustrator 25.2.3, SVG Export Plug-In . SVG Version: 6.00 Build 0)  -->
<svg version="1.1" id="Layer_1" xmlns="http://www.w3.org/2000/svg" xmlns:xlink="http://www.w3.org/1999/xlink" x="0px" y="0px"
	 viewBox="0 0 36 36" style="enable-background:new 0 0 36 36;" xml:space="preserve">
<style type="text/css">
	.st0{fill:#7B6929;}
	.st1{fill-rule:evenodd;clip-rule:evenodd;fill:#7B6929;}
</style>
<path class="st0" d="M22.27,16.2c0.07,0.05,0.08,0.15,0.03,0.22c-0.05,0.07-0.15,0.08-0.22,0.03c-0.87-0.68-1.61-1.36-2.2-2.04
	c-0.6-0.68-1.06-1.36-1.39-2.04c-0.04-0.08,0-0.17,0.07-0.21c0.08-0.04,0.17,0,0.21,0.07c0.31,0.65,0.76,1.31,1.34,1.97
	C20.69,14.86,21.41,15.53,22.27,16.2z M23.55,18.88h-0.69l-0.72,6.8h2.07L23.55,18.88L23.55,18.88z M22.9,18.53h0.62l-0.05-0.51
	h-0.51L22.9,18.53L22.9,18.53z M22.89,17.66h0.57c0.12-2.4-0.45-4.16-1.54-5.42c-0.71-0.82-1.66-1.44-2.78-1.87
	c0.04-0.1,0.07-0.19,0.08-0.29c0-0.03,0.01-0.07,0.01-0.1c1.2,0.46,2.22,1.11,2.99,2c1.18,1.37,1.79,3.28,1.62,5.89l0.78,7.98
	c0.01,0.11-0.07,0.2-0.18,0.21l-2.53,0c-0.11,0-0.2-0.09-0.2-0.2c0-0.01,0-0.02,0-0.04l0.84-7.93c-2.07-1.38-3.56-2.76-4.49-4.13
	c-0.33-0.48-0.59-0.96-0.78-1.44c0.04,0,0.09-0.01,0.13-0.03l0.23-0.13c0.18,0.46,0.43,0.92,0.75,1.38
	C19.33,14.92,20.81,16.28,22.89,17.66L22.89,17.66L22.89,17.66z M10.62,18.53h0.62l-0.05-0.51h-0.51L10.62,18.53z M11.27,18.88
	h-0.69l-0.66,6.8h2.07L11.27,18.88L11.27,18.88z M11.24,17.66L11.24,17.66L11.24,17.66c2.09-1.38,3.57-2.74,4.49-4.09
	c0.3-0.44,0.54-0.88,0.72-1.31c0.05-0.01,0.11-0.02,0.16-0.05L16.97,12c-0.2,0.6-0.5,1.19-0.91,1.79c-0.93,1.37-2.42,2.74-4.49,4.13
	l0.84,7.93c0,0.01,0,0.02,0,0.04c0,0.11-0.09,0.2-0.2,0.2H9.7l-0.02,0c-0.11-0.01-0.19-0.11-0.18-0.21c0,0,0,0,0,0l0.78-7.98
	c-0.16-2.61,0.44-4.53,1.62-5.89c0.77-0.89,1.78-1.54,2.99-2c0.04,0.12,0.09,0.25,0.14,0.37c-1.15,0.44-2.11,1.06-2.84,1.89
	c-1.09,1.26-1.65,3.02-1.54,5.42H11.24z M17.26,10.32c-0.01,0.27-0.03,0.55-0.08,0.82c-0.07-0.12-0.14-0.24-0.19-0.36
	c-0.06-0.14-0.09-0.28-0.06-0.39l0-0.01c0.01-0.04,0.03-0.07,0.06-0.09l0.01-0.01c0.04-0.02,0.1-0.03,0.15-0.02l0.01,0
	C17.21,10.28,17.24,10.3,17.26,10.32L17.26,10.32z M12.27,16.45c-0.07,0.05-0.17,0.04-0.22-0.03c-0.05-0.07-0.04-0.17,0.03-0.22
	c0.86-0.67,1.58-1.33,2.16-2c0.58-0.66,1.03-1.31,1.34-1.97c0.04-0.08,0.13-0.11,0.21-0.07c0.08,0.04,0.11,0.13,0.07,0.21l0,0
	c-0.33,0.68-0.79,1.36-1.39,2.04C13.88,15.08,13.14,15.76,12.27,16.45z"/>
<path class="st1" d="M14.14,19.84v0.56c0,0.03,0.03,0.06,0.06,0.06h2.51v3.81c-0.02,0.01-0.04,0.03-0.06,0.05l-1.86,1.58h0.76
	l1.16-0.9v0.9h0.9v-0.88l1.14,0.88h0.76l-1.86-1.58c-0.01-0.01-0.03-0.02-0.04-0.03v-3.82h2.32c0.03,0,0.06-0.03,0.06-0.06v-0.56
	H14.14z"/>
<path class="st1" d="M17.11,9.23c0.3-0.18,0.52-0.35,0.89-0.29c0.56,0.08,0.96,0.66,0.81,1.19c-0.12-0.09-0.25-0.15-0.41-0.18
	c-0.23-0.03-0.39,0.02-0.54,0.11c-0.11-0.18-0.24-0.31-0.52-0.39L17.3,9.66c-0.2-0.05-0.41-0.02-0.59,0.07
	c-0.18,0.09-0.32,0.25-0.38,0.47l-0.01,0.05c-0.12,0.51,0.18,1,0.45,1.41l-0.36,0.2l-0.31-0.52c-0.37-0.62-1.03-1.45-0.86-2.22
	c0.12-0.54,0.63-0.76,1.11-0.63C16.78,8.62,16.91,8.88,17.11,9.23L17.11,9.23z"/>
<path class="st1" d="M17.78,10.38c0.2-0.12,0.34-0.23,0.59-0.19c0.46,0.07,0.75,0.64,0.4,1.03c-0.1,0.11-0.27,0.23-0.46,0.34
	c-0.2,0.12-0.42,0.24-0.58,0.33l-0.43,0.24l-0.21-0.34c-0.25-0.41-0.69-0.96-0.57-1.47c0.08-0.36,0.42-0.51,0.74-0.42
	C17.56,9.97,17.65,10.14,17.78,10.38L17.78,10.38z"/>
</svg>
