<?xml version="1.0" encoding="utf-8"?>
<!-- Generator: Adobe Illustrator 25.2.3, SVG Export Plug-In . SVG Version: 6.00 Build 0)  -->
<svg version="1.1" id="Layer_1" xmlns="http://www.w3.org/2000/svg" xmlns:xlink="http://www.w3.org/1999/xlink" x="0px" y="0px"
	 viewBox="0 0 36 36" style="enable-background:new 0 0 36 36;" xml:space="preserve">
<style type="text/css">
	.st0{fill:#7B6929;}
</style>
<path class="st0" d="M16.7,23.19c-0.22,0-0.43,0-0.65,0c-0.21-0.01-0.36-0.15-0.36-0.34c0-0.19,0.15-0.35,0.36-0.35
	c0.46-0.01,0.91-0.01,1.37,0c0.21,0,0.35,0.16,0.35,0.36c-0.01,0.19-0.15,0.33-0.37,0.34C17.16,23.2,16.93,23.19,16.7,23.19z"/>
<path class="st0" d="M20.64,23.19c-0.21,0-0.42,0-0.62,0c-0.23,0-0.39-0.14-0.39-0.34c-0.01-0.21,0.15-0.36,0.39-0.36
	c0.43,0,0.86-0.01,1.3,0c0.23,0,0.38,0.15,0.38,0.35c0,0.2-0.16,0.34-0.38,0.34C21.08,23.19,20.86,23.19,20.64,23.19z"/>
<path class="st0" d="M16.74,23.84c0.22,0,0.43,0,0.65,0c0.23,0,0.38,0.15,0.38,0.35c0,0.19-0.15,0.34-0.36,0.34
	c-0.45,0.01-0.9,0.01-1.34,0c-0.22,0-0.38-0.17-0.37-0.36c0.01-0.19,0.16-0.32,0.37-0.33C16.29,23.83,16.51,23.84,16.74,23.84z"/>
<path class="st0" d="M20.65,24.53c-0.22,0-0.43,0-0.65,0c-0.23-0.01-0.38-0.15-0.38-0.35c0-0.2,0.15-0.34,0.38-0.35
	c0.44,0,0.88,0,1.32,0c0.22,0,0.36,0.14,0.37,0.33c0.01,0.2-0.14,0.35-0.37,0.36C21.1,24.54,20.87,24.53,20.65,24.53z"/>
<path class="st0" d="M12.81,25.18c0.22,0,0.45,0,0.67,0c0.21,0.01,0.34,0.13,0.35,0.32c0.01,0.2-0.12,0.36-0.33,0.37
	c-0.46,0.01-0.92,0.01-1.39,0c-0.22-0.01-0.34-0.16-0.34-0.36c0.01-0.2,0.14-0.32,0.37-0.33C12.36,25.17,12.59,25.18,12.81,25.18z"
	/>
<path class="st0" d="M24.59,25.18c0.22,0,0.45,0,0.67,0c0.21,0.01,0.34,0.13,0.35,0.32c0.01,0.2-0.12,0.36-0.33,0.37
	c-0.46,0.01-0.92,0.01-1.39,0c-0.22-0.01-0.34-0.16-0.34-0.36c0.01-0.2,0.14-0.32,0.37-0.33C24.14,25.17,24.37,25.18,24.59,25.18z"
	/>
<path class="st0" d="M16.73,25.18c0.22,0,0.45,0,0.67,0c0.21,0.01,0.35,0.13,0.36,0.32c0.01,0.19-0.13,0.36-0.33,0.37
	c-0.46,0.01-0.93,0.01-1.39,0c-0.21,0-0.36-0.17-0.35-0.36c0.01-0.19,0.15-0.33,0.37-0.33C16.28,25.17,16.51,25.18,16.73,25.18z"/>
<path class="st0" d="M20.66,25.18c0.22,0,0.45,0,0.67,0c0.22,0.01,0.36,0.15,0.36,0.34c0,0.18-0.14,0.34-0.33,0.35
	c-0.47,0.01-0.94,0.01-1.41,0c-0.2-0.01-0.33-0.17-0.33-0.35c0-0.19,0.15-0.33,0.37-0.33C20.21,25.17,20.43,25.18,20.66,25.18z"/>
<path class="st0" d="M16.73,26.51c0.22,0,0.45-0.01,0.67,0c0.22,0.01,0.36,0.15,0.36,0.34c0,0.19-0.14,0.34-0.35,0.35
	c-0.45,0.01-0.91,0.01-1.36,0c-0.21,0-0.36-0.16-0.35-0.35c0-0.19,0.15-0.33,0.37-0.34C16.28,26.5,16.51,26.51,16.73,26.51z"/>
<path class="st0" d="M20.68,26.51c0.22,0,0.43-0.01,0.65,0c0.22,0.01,0.36,0.15,0.36,0.34c0,0.19-0.14,0.34-0.36,0.35
	c-0.45,0.01-0.89,0.01-1.34,0c-0.23,0-0.38-0.15-0.37-0.36c0.01-0.19,0.15-0.33,0.37-0.33C20.22,26.5,20.45,26.51,20.68,26.51
	C20.68,26.51,20.68,26.51,20.68,26.51z"/>
<path class="st0" d="M12.79,23.19c-0.22,0-0.43,0-0.65,0c-0.22,0-0.36-0.13-0.37-0.33c-0.01-0.21,0.13-0.36,0.36-0.36
	c0.45-0.01,0.89-0.01,1.34,0c0.22,0,0.36,0.15,0.36,0.34c0,0.21-0.14,0.34-0.37,0.35C13.23,23.2,13.01,23.19,12.79,23.19z"/>
<path class="st0" d="M24.57,23.19c-0.22,0-0.43,0-0.65,0c-0.23-0.01-0.37-0.14-0.37-0.35c0-0.2,0.14-0.34,0.36-0.34
	c0.45-0.01,0.89-0.01,1.34,0c0.23,0,0.37,0.16,0.36,0.36c-0.01,0.2-0.14,0.32-0.37,0.33C25.02,23.2,24.8,23.19,24.57,23.19z"/>
<path class="st0" d="M12.82,23.84c0.22,0,0.43,0,0.65,0c0.22,0.01,0.36,0.14,0.36,0.34c0,0.2-0.13,0.35-0.35,0.35
	c-0.45,0.01-0.91,0.01-1.36,0c-0.22,0-0.35-0.15-0.35-0.35c0-0.2,0.14-0.33,0.36-0.34C12.36,23.83,12.59,23.84,12.82,23.84z"/>
<path class="st0" d="M24.58,24.53c-0.21,0-0.42,0-0.62,0c-0.25,0-0.4-0.13-0.4-0.35c0-0.21,0.14-0.35,0.4-0.35c0.42,0,0.85,0,1.27,0
	c0.25,0,0.4,0.14,0.39,0.35c0,0.2-0.15,0.34-0.38,0.34C25.01,24.54,24.8,24.53,24.58,24.53z"/>
<path class="st0" d="M13.13,26.52c0.13,0,0.26-0.01,0.39,0c0.19,0.02,0.29,0.13,0.3,0.32c0.01,0.2-0.1,0.34-0.29,0.35
	c-0.26,0.02-0.53,0.02-0.79,0c-0.2-0.02-0.3-0.16-0.29-0.35c0.01-0.18,0.12-0.3,0.31-0.32C12.89,26.51,13.01,26.52,13.13,26.52
	C13.13,26.52,13.13,26.52,13.13,26.52z"/>
<path class="st0" d="M24.24,27.2c-0.13,0-0.26,0.01-0.39,0c-0.2-0.03-0.3-0.15-0.29-0.35c0.01-0.19,0.12-0.31,0.3-0.32
	c0.25-0.01,0.51-0.01,0.76,0c0.19,0.01,0.3,0.14,0.3,0.32c0.01,0.2-0.1,0.33-0.29,0.35C24.5,27.21,24.37,27.2,24.24,27.2z"/>
<path class="st0" d="M18.69,21.16c-3.13,0-6.26,0-9.39,0c-0.22,0-0.31-0.04-0.29-0.28c0.02-0.27,0.01-0.54,0-0.81
	c0-0.13,0.05-0.19,0.18-0.17c0.04,0,0.08,0,0.12,0c6.25,0,12.5,0,18.75-0.01c0.23,0,0.32,0.05,0.3,0.29c-0.02,0.24-0.02,0.48,0,0.72
	c0.01,0.21-0.06,0.26-0.26,0.26c-2.38-0.01-4.76,0-7.14,0C20.21,21.16,19.45,21.16,18.69,21.16z"/>
<path class="st0" d="M14.5,17.07c0,0.64,0,1.28,0,1.92c0,0.15-0.03,0.22-0.2,0.21c-0.25-0.02-0.49-0.01-0.74,0
	c-0.11,0-0.16-0.01-0.16-0.15c0.01-1.3,0-2.59,0-3.89c0-0.16,0.08-0.22,0.22-0.22c0.23,0,0.46,0.01,0.69,0
	c0.15-0.01,0.18,0.05,0.18,0.19C14.49,15.78,14.5,16.43,14.5,17.07z"/>
<path class="st0" d="M29.14,20.12c-0.02-0.64-0.35-0.95-0.99-0.98c-0.24-0.01-0.26-0.03-0.26-0.28c0-0.49,0-0.97,0-1.46
	c0-0.6,0.03-1.21-0.01-1.81c-0.09-1.3-0.45-2.54-1.08-3.69c-0.54-0.99-1.21-1.86-2.07-2.59c-0.22-0.18-0.47-0.19-0.63-0.03
	c-0.17,0.18-0.15,0.39,0.06,0.61c0.19,0.2,0.38,0.38,0.57,0.58c1.42,1.45,2.17,3.2,2.31,5.2c0.08,1.08,0.01,2.16,0.02,3.24
	c0,0.16-0.07,0.21-0.23,0.21c-0.19,0-0.2-0.12-0.2-0.26c0-0.89,0-1.78,0-2.67c0-1.23-0.28-2.39-0.82-3.49
	c-0.61-1.22-1.49-2.21-2.6-2.99c-0.12-0.09-0.18-0.15-0.05-0.28c0.18-0.2,0.24-0.44,0.24-0.71c-0.01-0.49-0.03-0.99,0-1.48
	c0.03-0.52-0.11-0.96-0.44-1.35c-0.06-0.07-0.12-0.14-0.17-0.22c-0.17-0.27-0.4-0.44-0.72-0.48c-0.14,0-0.28,0-0.42,0
	c-0.17,0.05-0.34,0.08-0.48,0.19c-0.61,0.49-1.22,0.97-1.84,1.45c-0.37,0.29-0.92,0.29-1.3,0c-0.57-0.45-1.14-0.9-1.71-1.35
	c-0.19-0.15-0.37-0.26-0.61-0.3c-0.14,0-0.28,0-0.42,0c-0.34,0.11-0.57,0.34-0.76,0.64c-0.07,0.12-0.16,0.23-0.24,0.34
	c-0.18,0.24-0.27,0.52-0.27,0.82c0,0.38-0.01,0.76,0,1.14c0.01,0.18-0.05,0.28-0.21,0.38c-2.71,1.79-4.16,4.3-4.29,7.55
	c-0.04,0.97-0.01,1.95,0,2.92c0,0.19-0.06,0.25-0.23,0.22c-0.05-0.01-0.09,0-0.14,0c-0.53,0-0.85,0.32-0.85,0.85
	c0,0.28,0.02,0.56,0,0.83c-0.04,0.59,0.32,0.97,0.97,0.97c5.87-0.01,11.73-0.01,17.6-0.01c0.05,0,0.11,0,0.16,0
	c0.11-0.01,0.17,0.02,0.16,0.15c-0.02,0.83,0.04,1.65-0.03,2.48c-0.19,2.07-1.97,3.74-4.05,3.76c-2.96,0.02-5.92,0.02-8.88,0
	c-1.86-0.01-3.52-1.38-3.96-3.18c-0.15-0.61-0.12-1.23-0.13-1.84c0-0.27-0.14-0.43-0.35-0.43c-0.21,0-0.35,0.17-0.35,0.43
	c0,0.32-0.01,0.63,0,0.95c0.06,2.16,1.52,4.02,3.59,4.59c0.25,0.07,0.5,0.12,0.75,0.18c3.23,0,6.46,0,9.69,0
	c0.24-0.05,0.49-0.03,0.73-0.09c1.06-0.27,1.93-0.85,2.62-1.69c0.78-0.95,1.11-2.05,1.12-3.27c0-0.56,0-1.13,0-1.69
	c0-0.28,0-0.28,0.29-0.29c0.44-0.02,0.73-0.27,0.83-0.7C29.18,20.85,29.15,20.48,29.14,20.12z M21.68,5.96
	c0.16-0.12,0.31-0.09,0.43,0.06c0.16,0.21,0.3,0.43,0.45,0.64c0.07,0.1,0.08,0.21,0.08,0.33c0,0.57,0,1.14,0,1.71
	c0,0.27-0.09,0.36-0.36,0.36c-0.42,0-0.85,0-1.27,0c-0.13,0-0.17-0.03-0.19-0.17c-0.02-0.28,0.06-0.48,0.31-0.63
	c0.2-0.13,0.38-0.29,0.56-0.45c0.21-0.17,0.24-0.37,0.1-0.54c-0.14-0.16-0.33-0.17-0.53-0.01c-0.17,0.13-0.34,0.27-0.5,0.41
	c-0.08,0.07-0.14,0.1-0.21-0.02c-0.12-0.18-0.28-0.3-0.5-0.42C20.6,6.8,21.14,6.38,21.68,5.96z M21.08,11.42
	c-0.29-0.08-0.51-0.04-0.65,0.23c-0.21-0.44-0.42-0.87-0.63-1.3c-0.05-0.1-0.03-0.12,0.07-0.15c0.17-0.05,0.32-0.14,0.48-0.27
	C20.59,10.41,20.83,10.9,21.08,11.42z M18.18,7.8c0.39,0,0.79,0,1.18,0c0.49,0.01,0.77,0.29,0.77,0.78c0,0.08,0,0.17,0,0.25
	c-0.01,0.43-0.29,0.72-0.73,0.73c-0.24,0.01-0.48,0-0.72,0c0,0,0,0,0,0c-0.25,0-0.51,0.01-0.76,0c-0.39-0.01-0.66-0.3-0.68-0.68
	c0-0.05,0-0.09,0-0.14C17.24,8.03,17.47,7.8,18.18,7.8z M17.49,10.53c-0.17,0.36-0.35,0.72-0.54,1.1c-0.15-0.25-0.37-0.29-0.65-0.23
	c0.24-0.5,0.48-0.98,0.71-1.47c0.12,0.07,0.23,0.14,0.34,0.2C17.62,10.26,17.63,10.26,17.49,10.53z M14.86,6.59
	C15,6.4,15.13,6.21,15.27,6.03c0.12-0.15,0.27-0.19,0.42-0.07c0.54,0.42,1.08,0.84,1.65,1.29c-0.23,0.13-0.41,0.27-0.53,0.46
	c-0.06,0.1-0.11,0.07-0.18,0.02c-0.18-0.14-0.37-0.28-0.56-0.42c-0.19-0.14-0.39-0.12-0.52,0.04c-0.13,0.16-0.09,0.37,0.1,0.52
	c0.26,0.2,0.52,0.39,0.78,0.58c0.08,0.06,0.16,0.53,0.1,0.6c-0.03,0.04-0.09,0.03-0.13,0.03c-0.45,0-0.9,0-1.34,0
	c-0.24,0-0.33-0.11-0.33-0.35c0-0.57,0-1.14,0-1.72C14.74,6.85,14.78,6.72,14.86,6.59z M10.8,18.92c0,0.09,0.06,0.24-0.04,0.27
	c-0.15,0.04-0.32,0.02-0.48,0c-0.07-0.01-0.03-0.11-0.03-0.16c0-0.56,0-1.13,0-1.69c0-0.96-0.03-1.93,0.19-2.88
	c0.51-2.18,1.68-3.91,3.52-5.2c0.11-0.07,0.18-0.11,0.24,0.04c0.01,0.03,0.04,0.05,0.05,0.08c0.04,0.09,0.21,0.13,0.17,0.23
	c-0.03,0.08-0.15,0.12-0.23,0.18c-1.93,1.4-3.08,3.27-3.33,5.66C10.73,16.6,10.83,17.76,10.8,18.92z M16.12,19.21
	c-0.25-0.01-0.51-0.01-0.76,0c-0.13,0.01-0.17-0.04-0.16-0.17c0.01-0.65,0-1.3,0-1.95c0-0.64,0.01-1.28,0-1.92
	c0-0.19,0.06-0.24,0.23-0.23c0.2,0.01,0.4,0.01,0.6,0c0.18-0.01,0.26,0.06,0.26,0.25c-0.01,1.28-0.01,2.56,0,3.85
	C16.29,19.18,16.24,19.21,16.12,19.21z M20.06,19.21c-0.49-0.01-0.97,0-1.46,0c-0.49,0-0.97,0-1.46,0c-0.13,0-0.18-0.03-0.17-0.16
	c0.01-0.32,0.01-0.63,0-0.95c0-0.2,0.08-0.28,0.28-0.28c0.93,0,1.87,0,2.8,0c0.14,0,0.17,0.05,0.16,0.17
	c-0.01,0.35-0.01,0.71,0,1.06C20.22,19.18,20.18,19.21,20.06,19.21z M19.08,14.49c-0.03-0.09-0.02-0.2-0.02-0.3
	c0.01-0.11,0.1-0.16,0.2-0.2c0.11-0.04,0.18,0,0.25,0.07c0.05,0.06,0.1,0.12,0.13,0.19c0.32,0.65,0.39,1.36,0.47,2.07
	C19.68,15.76,19.27,15.18,19.08,14.49z M23.98,19.21c-0.49-0.01-0.97,0-1.46,0c-0.48,0-0.96,0-1.44,0c-0.12,0-0.17-0.02-0.17-0.16
	c0.01-0.36,0.01-0.71,0-1.07c0-0.13,0.04-0.17,0.17-0.17c0.93,0.01,1.85,0.01,2.78,0c0.19,0,0.29,0.08,0.28,0.27
	c0,0.32-0.01,0.63,0,0.95C24.15,19.17,24.11,19.21,23.98,19.21z M21.02,16.31c0.04-0.64,0.14-1.27,0.37-1.88
	c0.05-0.12,0.12-0.23,0.19-0.34c0.06-0.09,0.15-0.15,0.28-0.11c0.12,0.04,0.19,0.12,0.21,0.25c0.02,0.17-0.03,0.32-0.09,0.47
	C21.75,15.3,21.41,15.82,21.02,16.31z M25.89,19c0,0.15-0.02,0.22-0.2,0.21c-0.22-0.02-0.43-0.01-0.65,0
	c-0.16,0.01-0.22-0.03-0.21-0.2c0.02-0.31,0.01-0.62,0-0.93c-0.01-0.6-0.37-0.96-0.98-0.96c-0.71,0-1.42,0-2.15-0.04
	c0.37-0.25,0.74-0.5,1.12-0.74c0.09-0.06,0.19-0.11,0.28-0.17c0.18-0.13,0.22-0.32,0.11-0.48c-0.1-0.15-0.29-0.2-0.47-0.11
	c-0.19,0.1-0.37,0.22-0.58,0.34c0.14-0.28,0.28-0.54,0.39-0.8c0.14-0.34,0.26-0.7,0.17-1.08c-0.09-0.41-0.36-0.63-0.74-0.74
	c-0.36-0.1-0.65,0.03-0.89,0.29c-0.28,0.31-0.4,0.69-0.53,1.1c-0.06-0.16-0.1-0.29-0.15-0.42c-0.06-0.15-0.13-0.3-0.21-0.44
	c-0.31-0.51-0.73-0.68-1.23-0.48c-0.48,0.19-0.7,0.64-0.59,1.2c0.09,0.48,0.32,0.91,0.59,1.39c-0.21-0.13-0.38-0.23-0.55-0.33
	c-0.22-0.13-0.41-0.1-0.53,0.08c-0.12,0.19-0.06,0.38,0.18,0.52c0.45,0.27,0.89,0.57,1.38,0.91c-0.37,0-0.69,0-1,0
	c-0.43,0-0.87-0.01-1.3,0c-0.15,0-0.2-0.03-0.19-0.19c0.01-0.59,0.01-1.19,0-1.79c0-0.55-0.35-0.89-0.9-0.9c-0.81,0-1.62,0-2.43,0
	c-0.59,0-0.94,0.34-0.94,0.93c0,1.27,0,2.54,0,3.8c0,0.16-0.02,0.23-0.21,0.22c-0.28-0.02-0.57-0.01-0.86,0
	c-0.11,0-0.15-0.02-0.15-0.14c0.03-1.22-0.1-2.45,0.06-3.66c0.34-2.54,1.67-4.4,3.94-5.59c0.25-0.13,0.53-0.03,0.83-0.06
	c-0.25,0.52-0.49,1.01-0.73,1.5c-0.06,0.13-0.11,0.25-0.09,0.4c0.05,0.33,0.33,0.52,0.7,0.47c0.11-0.02,0.17,0,0.23,0.1
	c0.26,0.4,0.79,0.37,1.01-0.06c0.29-0.58,0.58-1.16,0.84-1.75c0.11-0.24,0.28-0.15,0.44-0.17c0.15-0.02,0.25,0.02,0.32,0.18
	c0.26,0.56,0.53,1.11,0.81,1.66c0.26,0.53,0.73,0.58,1.07,0.09c0.05-0.07,0.09-0.08,0.17-0.07c0.26,0.05,0.5-0.01,0.66-0.23
	c0.16-0.22,0.1-0.45-0.01-0.68c-0.24-0.47-0.46-0.94-0.7-1.43c0.44-0.06,0.82-0.01,1.19,0.22c2.31,1.43,3.54,3.49,3.62,6.21
	C25.9,17.14,25.88,18.07,25.89,19z"/>
</svg>
