<?xml version="1.0" encoding="utf-8"?>
<!-- Generator: Adobe Illustrator 25.2.3, SVG Export Plug-In . SVG Version: 6.00 Build 0)  -->
<svg version="1.1" id="Layer_1" xmlns="http://www.w3.org/2000/svg" xmlns:xlink="http://www.w3.org/1999/xlink" x="0px" y="0px"
	 viewBox="0 0 36 36" style="enable-background:new 0 0 36 36;" xml:space="preserve">
<style type="text/css">
	.st0{fill:#7B6929;}
</style>
<g>
	<circle class="st0" cx="18" cy="23.65" r="2.42"/>
	<path class="st0" d="M18,17.2c-2.08,0-4.04,1.01-5.25,2.7c-0.34,0.48-0.23,1.15,0.25,1.5c0.19,0.14,0.41,0.2,0.62,0.2
		c0.34,0,0.67-0.16,0.88-0.45c0.81-1.13,2.12-1.8,3.5-1.8c1.39,0,2.69,0.67,3.5,1.8c0.34,0.48,1.02,0.59,1.5,0.25
		c0.48-0.34,0.59-1.02,0.25-1.5C22.04,18.21,20.08,17.2,18,17.2z"/>
	<path class="st0" d="M18,13.17c-2.97,0-5.81,1.27-7.79,3.48c-0.4,0.44-0.36,1.12,0.08,1.52c0.21,0.18,0.46,0.28,0.72,0.28
		c0.29,0,0.59-0.12,0.8-0.36c1.58-1.76,3.84-2.76,6.2-2.76s4.62,1.01,6.2,2.76c0.4,0.44,1.08,0.48,1.52,0.08
		c0.44-0.4,0.48-1.08,0.08-1.52C23.81,14.44,20.97,13.17,18,13.17z"/>
	<path class="st0" d="M28.35,13.49C25.6,10.68,21.92,9.14,18,9.14c-3.92,0-7.6,1.54-10.35,4.35c-0.42,0.42-0.41,1.1,0.01,1.52
		c0.21,0.21,0.48,0.31,0.75,0.31c0.28,0,0.56-0.11,0.77-0.32c2.34-2.39,5.47-3.7,8.82-3.7c3.34,0,6.47,1.31,8.82,3.7
		c0.42,0.42,1.1,0.43,1.52,0.01C28.76,14.59,28.77,13.91,28.35,13.49z"/>
</g>
</svg>
